<svg width="168" height="202" viewBox="0 0 168 202" fill="none" xmlns="http://www.w3.org/2000/svg">
<g clip-path="url(#clip0)">
<path d="M21.6289 179.28V177.844H25.2882L21.1715 167.136H9.80163L5.68495 177.844H8.49475C8.69078 177.844 8.88681 177.844 9.0175 177.909C9.54026 177.974 9.86698 178.431 9.86698 179.28H0V177.844H3.46324L15.748 146.244H18.231L30.9078 177.844H32.7375C32.9335 177.844 33.1295 177.844 33.2602 177.909C33.8483 177.974 34.1097 178.431 34.1097 179.28H21.6289ZM15.4866 152.447L10.3897 165.635H20.5181L15.4866 152.447Z" fill="url(#paint0_linear)"/>
<path d="M36.7235 179.28V177.844H41.1016V147.681H36.7235V146.244H53.4516C56.3268 146.244 58.7445 146.897 60.7048 148.203C63.1226 149.835 64.2988 152.055 64.2988 154.797C64.2988 155.907 64.1027 156.952 63.6453 158.061C62.4038 160.869 59.9861 162.697 56.4575 163.611L65.2789 177.844H67.1086C67.3046 177.844 67.5006 177.844 67.6967 177.909C68.1541 177.974 68.4155 178.431 68.4155 179.28H59.8554L51.1646 164.133H46.3945V177.844H50.7725V179.28H36.7235ZM46.3945 147.681V162.566H51.6873C53.2556 162.566 54.6278 162.109 55.7387 161.195C57.5683 159.759 58.4831 157.67 58.4831 154.993C58.4831 153.818 58.2871 152.708 57.8297 151.663C56.6535 149.052 54.4971 147.746 51.426 147.746H46.3945V147.681Z" fill="url(#paint1_linear)"/>
<path d="M70.9639 179.28V177.844H75.342V147.681H70.9639V146.244H85.3397V147.681H80.6349V177.844H87.8227C88.3455 177.844 88.8029 177.778 89.3257 177.648C91.3513 177.125 92.7889 175.232 93.6384 172.033L94.6839 168.05H95.9254L95.664 179.215H70.9639V179.28Z" fill="url(#paint2_linear)"/>
<path d="M118.6 179.28V177.844H122.259L118.142 167.136H106.707L102.59 177.844H105.4C105.596 177.844 105.792 177.844 105.923 177.909C106.446 177.974 106.772 178.431 106.772 179.28H96.9054V177.844H100.369L112.653 146.244H115.136L127.813 177.844H129.643C129.839 177.844 130.035 177.844 130.166 177.909C130.754 177.974 131.015 178.431 131.015 179.28H118.6ZM112.457 152.447L107.36 165.635H117.489L112.457 152.447Z" fill="url(#paint3_linear)"/>
<path d="M156.761 146.31H168V147.746H163.622V179.084L161.008 179.606L139.379 152.904V177.909H142.647C142.843 177.909 143.039 177.909 143.169 177.974C143.757 178.105 144.019 178.562 144.019 179.345H132.714V177.909H137.092V147.746H132.714V146.31H140.686L161.335 171.772V147.746H156.696V146.31H156.761Z" fill="url(#paint4_linear)"/>
<path d="M13.853 201.869L12.3501 199.584C11.8927 198.866 11.5006 198.409 11.2393 198.148C10.9779 197.887 10.5205 197.822 9.86704 197.822H8.69084V201.935H7.38396V197.822H6.14242C5.48898 197.822 5.03157 197.952 4.77019 198.148C4.50881 198.409 4.11675 198.866 3.65934 199.584L2.15642 201.869H0.653503L2.54849 198.997C2.94055 198.409 3.26727 197.952 3.52865 197.691C3.79003 197.43 4.11675 197.234 4.44347 197.103C4.18209 196.973 3.92071 196.777 3.65934 196.516C3.39796 196.255 3.13658 195.863 2.74452 195.275L1.04557 192.664H2.54849L3.85537 194.688C4.31278 195.406 4.70484 195.863 4.96622 196.124C5.2276 196.385 5.68501 196.451 6.33845 196.451H7.31861V192.664H8.6255V196.451H9.60566C10.2591 196.451 10.7165 196.32 10.9779 196.124C11.2393 195.863 11.6313 195.406 12.0887 194.688L13.3956 192.664H14.8985L13.1996 195.275C12.8729 195.798 12.5462 196.189 12.2848 196.516C12.0234 196.777 11.8274 196.973 11.566 197.103C11.8927 197.234 12.1541 197.365 12.4155 197.691C12.6768 197.952 13.0036 198.409 13.3956 198.997L15.2906 201.869H13.853Z" fill="url(#paint5_linear)"/>
<path d="M26.8567 201.869H25.5498V194.949L19.4074 201.869H18.6233V192.664H19.9955V199.584L26.1379 192.664H26.922V201.869H26.8567Z" fill="url(#paint6_linear)"/>
<path d="M34.8285 194.753L31.6266 201.869H30.189L34.4364 192.664H35.2205L39.4679 201.869H38.0303L34.8285 194.753Z" fill="url(#paint7_linear)"/>
<path d="M46.3291 192.599C47.6359 192.599 48.7468 193.056 49.6616 193.97C50.5764 194.884 51.0338 195.993 51.0338 197.299C51.0338 198.605 50.5764 199.715 49.6616 200.629C48.7468 201.543 47.6359 202 46.3291 202C45.0222 202 43.9113 201.543 42.9965 200.629C42.0817 199.715 41.6243 198.605 41.6243 197.299C41.6243 195.993 42.0817 194.884 42.9965 193.97C43.9113 193.056 45.0222 192.599 46.3291 192.599ZM46.3291 193.904C45.4142 193.904 44.6301 194.231 43.9767 194.884C43.3232 195.536 42.9965 196.385 42.9965 197.365C42.9965 198.344 43.3232 199.127 43.9767 199.78C44.6301 200.433 45.4142 200.759 46.3291 200.759C47.2439 200.759 48.028 200.433 48.7468 199.78C49.4002 199.127 49.7269 198.344 49.7269 197.365C49.7269 196.385 49.4002 195.602 48.7468 194.884C48.028 194.231 47.2439 193.904 46.3291 193.904Z" fill="url(#paint8_linear)"/>
<path d="M63.0572 201.869H61.7503V194.949L55.6079 201.869H54.8238V192.664H56.196V199.584L62.3384 192.664H63.1225V201.869H63.0572ZM60.7701 190.966C60.2474 191.423 59.6593 191.685 58.8751 191.685C58.091 191.685 57.5029 191.423 56.9801 190.966C56.4574 190.509 56.196 189.922 56.196 189.269H57.1762C57.1762 189.661 57.3069 189.987 57.6336 190.248C57.9603 190.509 58.3524 190.64 58.8098 190.64C59.2672 190.64 59.6593 190.509 59.986 190.248C60.3127 189.987 60.4434 189.661 60.4434 189.269H61.4236C61.5542 189.922 61.2929 190.509 60.7701 190.966Z" fill="url(#paint9_linear)"/>
<path d="M80.9617 201.87L79.4587 199.584C79.0013 198.866 78.6093 198.409 78.3479 198.148C78.0865 197.887 77.6291 197.822 76.9757 197.822H75.6034V201.935H74.2312V192.729H75.6034V196.516H76.7796C77.4331 196.516 77.8905 196.385 78.1519 196.189C78.4132 195.928 78.8053 195.471 79.2627 194.753L80.5696 192.729H82.0725L80.3736 195.341C80.0468 195.863 79.7201 196.255 79.4587 196.581C79.1974 196.842 78.936 197.038 78.6746 197.169C79.0013 197.299 79.3281 197.43 79.5894 197.756C79.8508 198.018 80.1775 198.475 80.5696 199.062L82.4646 201.935H80.9617V201.87Z" fill="url(#paint10_linear)"/>
<path d="M89.7829 192.599C91.0898 192.599 92.2007 193.056 93.1155 193.97C94.0303 194.884 94.4877 195.993 94.4877 197.299C94.4877 198.605 94.0303 199.715 93.1155 200.629C92.2007 201.543 91.0898 202 89.7829 202C88.476 202 87.3652 201.543 86.4504 200.629C85.5355 199.715 85.0781 198.605 85.0781 197.299C85.0781 195.993 85.5355 194.884 86.4504 193.97C87.3652 193.056 88.476 192.599 89.7829 192.599ZM89.7829 193.904C88.8681 193.904 88.084 194.231 87.4305 194.884C86.7771 195.536 86.4504 196.385 86.4504 197.365C86.4504 198.344 86.7771 199.127 87.4305 199.78C88.084 200.433 88.8681 200.759 89.7829 200.759C90.6977 200.759 91.4819 200.433 92.2007 199.78C92.8541 199.127 93.1808 198.344 93.1808 197.365C93.1808 196.385 92.8541 195.602 92.2007 194.884C91.4819 194.231 90.6977 193.904 89.7829 193.904Z" fill="url(#paint11_linear)"/>
<path d="M107.687 201.869H106.315V194.949L102.917 198.801L99.5193 194.949V201.869H98.1471V192.664H98.9312L102.852 197.103L106.773 192.664H107.557V201.869H107.687Z" fill="url(#paint12_linear)"/>
<path d="M120.364 201.869H119.057V193.97H113.372V201.869H112V192.664H120.299V201.869H120.364Z" fill="url(#paint13_linear)"/>
<path d="M128.271 194.753L125.069 201.869H123.631L127.879 192.664H128.663L132.91 201.869H131.473L128.271 194.753Z" fill="url(#paint14_linear)"/>
<path d="M139.771 192.599C140.752 192.599 141.601 192.86 142.32 193.317C143.039 193.774 143.561 194.427 143.888 195.275C144.019 195.602 144.149 196.059 144.149 196.516C144.149 196.973 144.149 197.365 144.019 197.626H136.439C136.439 198.605 136.766 199.388 137.419 199.911C138.072 200.498 138.922 200.759 139.902 200.759C141.078 200.759 142.124 200.433 143.104 199.78L143.823 200.564C142.647 201.478 141.34 201.935 139.902 201.935C138.465 201.935 137.354 201.478 136.439 200.629C135.524 199.78 135.067 198.605 135.067 197.234C135.067 195.928 135.524 194.753 136.374 193.904C137.288 193.056 138.399 192.599 139.771 192.599ZM139.771 193.839C138.857 193.839 138.138 194.1 137.484 194.688C136.896 195.275 136.57 195.928 136.504 196.712H142.843C142.843 196.385 142.777 196.059 142.647 195.667C142.385 195.079 142.058 194.688 141.536 194.296C141.013 193.97 140.425 193.839 139.771 193.839Z" fill="url(#paint15_linear)"/>
<path d="M154.8 201.87L153.298 199.584C152.84 198.866 152.448 198.409 152.187 198.148C151.925 197.887 151.468 197.822 150.814 197.822H149.442V201.935H148.07V192.729H149.442V196.516H150.618C151.272 196.516 151.729 196.385 151.991 196.189C152.252 195.928 152.644 195.471 153.102 194.753L154.408 192.729H155.911L154.212 195.341C153.886 195.863 153.559 196.255 153.298 196.581C153.036 196.842 152.775 197.038 152.513 197.169C152.84 197.299 153.167 197.43 153.428 197.756C153.69 198.018 154.016 198.475 154.408 199.062L156.303 201.935H154.8V201.87Z" fill="url(#paint16_linear)"/>
<path d="M163.687 192.599C165.125 192.599 166.366 193.186 167.281 194.296L166.497 195.145C165.713 194.296 164.798 193.839 163.687 193.839C162.773 193.839 161.988 194.165 161.335 194.818C160.681 195.471 160.355 196.32 160.355 197.299C160.355 198.279 160.681 199.062 161.335 199.715C161.988 200.368 162.773 200.694 163.687 200.694C164.798 200.694 165.713 200.302 166.497 199.454L167.281 200.302C166.366 201.412 165.125 202 163.687 202C162.38 202 161.27 201.543 160.355 200.629C159.44 199.715 158.983 198.605 158.983 197.299C158.983 195.993 159.44 194.884 160.355 193.97C161.27 193.056 162.38 192.599 163.687 192.599Z" fill="url(#paint17_linear)"/>
<path d="M86.8423 98.5844C82.0722 98.5844 78.2169 102.567 78.2169 107.398C78.2169 112.295 82.0722 116.212 86.8423 116.212C91.6124 116.212 95.4677 112.229 95.4677 107.398C95.5331 102.502 91.6124 98.5844 86.8423 98.5844ZM86.8423 110.924C84.9473 110.924 83.4444 109.292 83.4444 107.333C83.4444 105.374 84.9473 103.742 86.8423 103.742C88.6719 103.742 90.2402 105.309 90.2402 107.333C90.2402 109.357 88.7373 110.924 86.8423 110.924Z" fill="url(#paint18_linear)"/>
<path d="M41.8202 52.7524C39.7945 52.7524 38.0956 54.4499 38.0956 56.5391C38.0956 58.6283 39.7945 60.3258 41.8202 60.3258C43.8459 60.3258 45.5448 58.6283 45.5448 56.5391C45.5448 54.4499 43.9112 52.7524 41.8202 52.7524ZM41.8202 58.0407C40.9707 58.0407 40.2519 57.3878 40.2519 56.5391C40.2519 55.6904 40.9707 55.0375 41.8202 55.0375C42.6697 55.0375 43.3885 55.6904 43.3885 56.5391C43.3885 57.3225 42.6697 58.0407 41.8202 58.0407Z" fill="url(#paint19_linear)"/>
<path d="M38.357 41.327C39.9449 41.327 41.2321 39.9824 41.2321 38.3238C41.2321 36.6652 39.9449 35.3206 38.357 35.3206C36.7691 35.3206 35.4818 36.6652 35.4818 38.3238C35.4818 39.9824 36.7691 41.327 38.357 41.327Z" fill="url(#paint20_linear)"/>
<path d="M134.282 41.327C135.87 41.327 137.157 39.9824 137.157 38.3238C137.157 36.6652 135.87 35.3206 134.282 35.3206C132.694 35.3206 131.407 36.6652 131.407 38.3238C131.407 39.9824 132.694 41.327 134.282 41.327Z" fill="url(#paint21_linear)"/>
<path d="M39.0756 77.6924C40.6635 77.6924 41.9508 76.3478 41.9508 74.6891C41.9508 73.0305 40.6635 71.6859 39.0756 71.6859C37.4877 71.6859 36.2005 73.0305 36.2005 74.6891C36.2005 76.3478 37.4877 77.6924 39.0756 77.6924Z" fill="url(#paint22_linear)"/>
<path d="M75.2764 103.22C75.2764 104.852 73.9695 106.158 72.4012 106.158C70.8329 106.158 69.5261 104.852 69.5261 103.22C69.5261 101.588 70.8329 100.217 72.4012 100.217C73.9695 100.217 75.2764 101.588 75.2764 103.22Z" fill="url(#paint23_linear)"/>
<path d="M73.1855 16.9748C74.7734 16.9748 76.0606 15.6302 76.0606 13.9715C76.0606 12.3129 74.7734 10.9683 73.1855 10.9683C71.5976 10.9683 70.3103 12.3129 70.3103 13.9715C70.3103 15.6302 71.5976 16.9748 73.1855 16.9748Z" fill="url(#paint24_linear)"/>
<path d="M99.846 16.9748C101.434 16.9748 102.721 15.6302 102.721 13.9715C102.721 12.3129 101.434 10.9683 99.846 10.9683C98.2581 10.9683 96.9708 12.3129 96.9708 13.9715C96.9708 15.6302 98.2581 16.9748 99.846 16.9748Z" fill="url(#paint25_linear)"/>
<path d="M100.565 106.223C102.153 106.223 103.44 104.878 103.44 103.22C103.44 101.561 102.153 100.217 100.565 100.217C98.9769 100.217 97.6896 101.561 97.6896 103.22C97.6896 104.878 98.9769 106.223 100.565 106.223Z" fill="url(#paint26_linear)"/>
<path d="M134.282 77.6924C135.87 77.6924 137.157 76.3478 137.157 74.6891C137.157 73.0305 135.87 71.6859 134.282 71.6859C132.694 71.6859 131.407 73.0305 131.407 74.6891C131.407 76.3478 132.694 77.6924 134.282 77.6924Z" fill="url(#paint27_linear)"/>
<path d="M32.8026 72.7957C33.9214 72.7957 34.8283 71.8603 34.8283 70.7065C34.8283 69.5526 33.9214 68.6172 32.8026 68.6172C31.6839 68.6172 30.777 69.5526 30.777 70.7065C30.777 71.8603 31.6839 72.7957 32.8026 72.7957Z" fill="url(#paint28_linear)"/>
<path d="M32.0187 45.1791C33.1374 45.1791 34.0443 44.2437 34.0443 43.0899C34.0443 41.936 33.1374 41.0007 32.0187 41.0007C30.8999 41.0007 29.993 41.936 29.993 43.0899C29.993 44.2437 30.8999 45.1791 32.0187 45.1791Z" fill="url(#paint29_linear)"/>
<path d="M86.8423 17.693C91.6124 17.693 95.4677 13.7104 95.4677 8.87912C95.4677 4.04783 91.6124 0 86.8423 0C82.0722 0 78.2169 3.98255 78.2169 8.81383C78.2169 13.6451 82.0722 17.693 86.8423 17.693ZM86.8423 5.2883C88.6719 5.2883 90.2402 6.8552 90.2402 8.87912C90.2402 10.903 88.7373 12.4699 86.8423 12.4699C84.9473 12.4699 83.4444 10.903 83.4444 8.87912C83.4444 6.8552 85.0127 5.2883 86.8423 5.2883Z" fill="url(#paint30_linear)"/>
<path d="M131.407 43.8079C129.97 43.8079 128.597 44.0691 127.356 44.5261C129.708 39.8254 130.362 36.561 130.558 32.9702C130.819 27.6819 128.663 22.4589 124.677 18.6722C121.867 15.9301 118.273 14.4938 114.483 14.4938C104.159 14.4938 101.349 21.1531 101.283 24.6787C101.283 26.115 102.46 27.3555 103.897 27.3555C105.335 27.3555 106.511 26.1803 106.511 24.7439C106.576 23.8952 107.099 19.7168 114.418 19.7168C115.659 19.7168 116.835 19.9779 117.946 20.3697C119.057 20.8267 120.037 21.4796 121.017 22.3936C123.893 25.1357 125.461 28.9224 125.265 32.6438C125.069 36.4304 124.285 39.6295 120.56 45.7666C118.861 48.5739 116.378 52.9482 115.202 55.1027H106.054C105.858 53.9275 105.4 52.7524 104.681 51.6425L102.917 49.031C104.747 50.0103 106.707 50.5326 108.733 50.5326C109.517 50.5326 110.236 50.4673 111.02 50.3367C114.679 49.6185 117.75 47.0723 119.253 43.5468C120.56 40.3477 120.691 36.9527 119.58 34.0801C118.469 31.338 116.313 29.1835 113.634 28.1389C111.216 27.1596 108.537 27.2902 106.446 28.4001C103.963 29.7058 102.329 32.3826 102.394 35.0594C102.46 38.2585 104.877 41.0006 107.883 41.327C109.321 41.5229 110.628 40.413 110.824 38.9767C110.954 37.5403 109.909 36.2346 108.471 36.0387C108.21 36.0387 107.687 35.4511 107.687 34.9288C107.687 34.2107 108.21 33.4272 108.929 33.1008C109.713 32.709 110.758 32.709 111.804 33.1008C113.111 33.6231 114.222 34.733 114.744 36.0387C115.398 37.6056 115.267 39.6295 114.483 41.5229C113.699 43.4162 112.065 44.7873 110.105 45.179C108.275 45.5707 106.315 45.0484 104.681 43.8732C101.545 41.5229 99.2578 37.7362 98.6044 33.7536C98.2776 31.8603 98.343 29.8364 98.4083 27.7472C98.4083 26.0497 98.4737 24.2869 98.343 22.5242C98.2776 21.806 98.147 20.0432 96.7747 18.8028C94.4223 16.6483 91.4165 18.2152 90.3057 18.8028L90.1096 18.8681L89.9136 18.9986C89.5869 19.1945 86.9731 21.0226 83.3138 18.8681C79.7852 16.7136 77.6289 17.8887 76.6487 18.7375C75.2765 19.9779 75.1458 21.6754 75.0804 22.4589C74.9498 24.2216 74.9498 25.9844 75.0151 27.6819C75.0151 29.7711 75.0804 31.795 74.7537 33.6884C74.1003 37.6709 71.8786 41.4576 68.6767 43.8079C67.0431 45.0484 65.0828 45.5054 63.2531 45.1137C61.2928 44.722 59.6592 43.3509 58.8751 41.4576C58.0909 39.5642 57.9603 37.5403 58.6137 35.9734C59.1365 34.6024 60.2473 33.4925 61.5542 33.0355C62.5344 32.6438 63.6452 32.6438 64.4293 33.0355C65.1481 33.3619 65.6709 34.2107 65.6709 34.8635C65.6709 35.4511 65.2135 35.9734 64.8867 35.9734C63.4492 36.104 62.4037 37.4098 62.5344 38.9114C62.665 40.3477 63.9719 41.3923 65.4748 41.2617C68.4807 40.9353 70.8984 38.1932 70.9638 34.9941C71.0291 32.3173 69.3955 29.5752 66.9124 28.3348C64.7561 27.2249 62.1423 27.1596 59.7246 28.0736C57.0454 29.1182 54.8891 31.2727 53.8436 34.0148C52.7327 36.8875 52.7981 40.3477 54.105 43.4815C55.6079 47.007 58.679 49.5533 62.3383 50.2714C65.0828 50.7937 67.8926 50.3367 70.441 48.9657L68.6767 51.6425C67.9579 52.6871 67.5005 53.8622 67.3045 55.1027H57.7642C56.588 52.7524 54.301 48.5087 52.6674 45.7666C48.9428 39.6295 48.1586 36.4304 47.9626 32.6438C47.7666 28.8571 49.3348 25.1357 52.21 22.3936C54.105 20.6308 56.2613 19.7168 58.7444 19.7168C62.4037 19.7168 64.364 20.7614 65.4748 21.9366C66.5204 23.1118 66.7164 24.3522 66.7164 24.7439C66.7164 26.1803 67.8926 27.2902 69.3302 27.2902H69.3955C70.8331 27.2902 72.0093 26.0497 72.0093 24.6134C71.9439 21.0878 69.1341 14.4285 58.8097 14.4285C54.9544 14.4285 51.4258 15.8648 48.616 18.6069C44.63 22.3936 42.4737 27.6166 42.7351 32.9049C42.9311 36.4957 43.5192 39.7601 45.9369 44.4608C44.6954 44.0038 43.3232 43.7427 41.8856 43.7427C35.0898 43.7427 29.5355 49.4227 29.5355 56.4085C29.5355 63.3942 35.0898 69.0743 41.8856 69.0743C44.3033 69.0743 46.525 68.3561 48.42 67.1156C48.3547 67.2462 48.2893 67.3768 48.224 67.5074C43.9113 74.5584 42.9964 78.6063 42.7351 83.1764C42.4737 88.4647 44.63 93.6877 48.616 97.4744C51.4912 100.216 55.0198 101.653 58.8097 101.653C63.9719 101.653 67.3045 100.021 69.2648 97.8661C71.2905 95.7769 72.0093 93.2307 72.0093 91.4679C72.0093 90.0316 70.8331 88.7911 69.3955 88.7911C67.9579 88.7911 66.7164 89.901 66.7164 91.4026C66.651 92.2514 66.1283 96.4298 58.7444 96.4298C57.5029 96.4298 56.3267 96.1686 55.2158 95.7769C54.105 95.3199 53.1248 94.667 52.1446 93.753C49.2695 91.0109 47.7012 87.2242 47.8973 83.5028C48.0933 79.7162 48.8774 76.5171 52.602 70.38C54.301 67.5727 56.6534 63.1984 57.8949 60.7827H67.6965C67.8926 61.305 68.154 61.7621 68.4807 62.2191L72.9894 69.0743C72.5974 68.6825 72.14 68.3561 71.7479 68.0297C68.8074 65.8099 65.4095 64.9611 62.2076 65.614C58.5484 66.3322 55.4772 68.9437 53.9743 72.5998C52.6674 75.7989 52.5367 79.1939 53.7129 82.0665C54.7584 84.8086 56.9148 86.9631 59.6592 88.0077C62.077 88.987 64.7561 88.8564 66.8471 87.7465C69.3302 86.4408 70.9638 83.764 70.8984 81.0872C70.8331 77.8881 68.4153 75.146 65.4095 74.8196C63.9719 74.689 62.665 75.7336 62.5344 77.1699C62.4037 78.6063 63.4492 79.912 64.8867 80.0426C65.1481 80.0426 65.6709 80.6302 65.6709 81.1525C65.6709 81.8707 65.1481 82.6541 64.4293 82.9805C63.6452 83.3723 62.5997 83.3723 61.5542 82.9805C60.2473 82.4582 59.1365 81.3484 58.6137 80.0426C57.9603 78.4757 58.0909 76.4518 58.8751 74.5584C59.7246 72.5998 61.3582 71.0982 63.2531 70.7718C65.0174 70.4453 66.9124 70.9676 68.6767 72.2734C71.8132 74.6237 74.1003 78.4104 74.7537 82.3277C75.0804 84.221 75.0151 86.2449 75.0151 88.3341C74.9498 90.0316 74.9498 91.7944 75.0804 93.5571C75.1458 94.2753 75.2765 96.0381 76.6487 97.2785C77.5635 98.062 78.5437 98.3884 79.4585 98.3884C81.0268 98.3884 82.399 97.6703 83.1178 97.2785C83.2485 97.2133 86.7117 95.5158 90.371 97.2785L90.4363 97.3438C91.7432 97.9967 94.553 99.3025 96.7747 97.2785C98.147 96.0381 98.2776 94.3406 98.343 93.5571C98.4737 91.7944 98.4737 90.0316 98.4083 88.3341C98.343 86.2449 98.343 84.221 98.6044 82.3277C99.2578 78.3451 101.48 74.6237 104.681 72.2734C106.446 70.9676 108.341 70.4453 110.105 70.7718C112 71.1635 113.634 72.5998 114.483 74.5584C115.267 76.4518 115.398 78.4757 114.744 80.0426C114.222 81.4136 113.111 82.5235 111.804 82.9805C110.758 83.3723 109.713 83.3723 108.929 82.9805C108.21 82.5888 107.687 81.8054 107.687 81.1525C107.687 80.5649 108.145 80.0426 108.471 80.0426C109.909 79.912 110.954 78.6063 110.824 77.1699C110.693 75.7336 109.386 74.689 107.883 74.8196C104.877 75.146 102.46 77.8881 102.394 81.0872C102.329 83.764 103.963 86.5061 106.446 87.7465C108.602 88.8564 111.216 88.9217 113.634 88.0077C116.313 86.9631 118.469 84.8086 119.58 82.0665C120.691 79.1939 120.56 75.7336 119.253 72.5998C117.75 68.9437 114.679 66.3322 111.02 65.614C107.818 64.9611 104.42 65.8099 101.48 68.0297C101.022 68.3561 100.63 68.6825 100.238 69.0743L104.681 62.2191C105.008 61.6968 105.335 61.1092 105.531 60.5869H115.136C116.378 62.8719 118.861 67.5074 120.56 70.38C124.285 76.5171 125.069 79.7814 125.265 83.5028C125.461 87.2895 123.893 91.0109 121.017 93.753C119.122 95.5158 116.966 96.4298 114.483 96.4298C110.824 96.4298 108.863 95.3852 107.753 94.21C106.642 93.0348 106.511 91.7944 106.511 91.4026C106.446 89.9663 105.269 88.8564 103.897 88.8564C102.46 88.8564 101.283 90.0969 101.283 91.5332C101.349 95.0588 104.159 101.718 114.483 101.718C118.338 101.718 121.867 100.282 124.677 97.5397C128.663 93.753 130.819 88.53 130.558 83.2417C130.362 78.6716 129.382 74.689 125.069 67.5727C125.003 67.4421 124.938 67.3115 124.807 67.1809C126.702 68.4214 128.989 69.1396 131.342 69.1396C138.138 69.1396 143.692 63.4595 143.692 56.4738C143.757 49.488 138.203 43.8079 131.407 43.8079ZM41.8202 63.9165C37.8996 63.9165 34.7631 60.5869 34.7631 56.539C34.7631 52.4912 37.9649 49.1615 41.8202 49.1615C45.7409 49.1615 48.8774 52.4912 48.8774 56.539C48.9428 60.5869 45.7409 63.9165 41.8202 63.9165ZM80.1773 27.8125C80.1773 26.3109 80.112 24.8745 80.2426 23.5035C80.308 23.5688 80.3733 23.5688 80.4387 23.6341C86.581 27.3555 91.6125 24.4175 92.7887 23.6341C92.8541 23.5688 92.9194 23.5688 92.9848 23.5035C93.0501 24.8745 93.0501 26.3109 93.0501 27.8125C93.0501 29.967 92.9848 32.1867 93.3115 34.4065L91.5472 31.6644C90.4363 29.967 88.6067 28.9876 86.6464 28.9876C84.6861 28.9876 82.8564 29.967 81.7456 31.6644L79.9813 34.4065C80.2426 32.1867 80.2426 29.967 80.1773 27.8125ZM93.3115 81.4789C92.9194 83.8293 92.9848 86.1796 92.9848 88.3994C92.9848 89.901 93.0501 91.2721 92.9194 92.7084C92.7887 92.6431 92.6581 92.5778 92.5274 92.5125L92.462 92.4473C86.385 89.5093 80.7654 92.382 80.504 92.5125C80.3733 92.5778 80.2426 92.6431 80.1119 92.7084C80.0466 91.3374 80.0466 89.901 80.0466 88.3994C80.112 86.1796 80.1119 83.8293 79.7852 81.4789C79.5892 80.4343 79.3278 79.3897 79.0011 78.3451L81.5495 82.2624C82.6604 83.9599 84.49 84.9392 86.4503 84.9392C88.4107 84.9392 90.2403 83.9599 91.3512 82.2624L93.8996 78.3451C93.7689 79.3897 93.5075 80.4343 93.3115 81.4789ZM87.1038 79.3897C86.9731 79.6509 86.7771 79.6509 86.6464 79.6509C86.5157 79.6509 86.3197 79.5856 86.189 79.3897L73.8389 60.6522C73.9696 60.6522 74.0349 60.5869 74.1656 60.5869H79.1971L83.4445 67.0504C84.1633 68.1602 85.3395 68.7478 86.6464 68.7478C87.9533 68.7478 89.1295 68.095 89.7829 67.0504L94.0303 60.5869H99.4538L87.1038 79.3897ZM83.3138 56.8002L86.581 51.773L89.9789 56.9961L86.581 62.2191L83.5099 57.5184C83.5099 57.2572 83.4445 56.9961 83.3138 56.8002ZM95.0104 55.2333C94.8797 54.9068 94.7491 54.5151 94.4877 54.1887L89.7829 47.007C89.0641 45.8972 87.8879 45.3096 86.6464 45.3096C85.3395 45.3096 84.1633 45.9624 83.4445 47.007L78.7397 54.1887C78.5437 54.5151 78.3477 54.8416 78.217 55.2333H72.6627C72.7281 55.0374 72.8587 54.8416 72.9894 54.711L86.1236 34.6024C86.2543 34.3412 86.4503 34.3412 86.581 34.3412C86.7117 34.3412 86.9078 34.4065 87.0384 34.6024L100.173 54.711C100.303 54.9068 100.369 55.1027 100.499 55.2333H95.0104ZM131.407 63.9165C127.487 63.9165 124.35 60.5869 124.35 56.539C124.35 52.4912 127.552 49.1615 131.407 49.1615C135.328 49.1615 138.464 52.4912 138.464 56.539C138.464 60.5869 135.262 63.9165 131.407 63.9165Z" fill="url(#paint31_linear)"/>
<path d="M131.407 60.2605C133.433 60.2605 135.132 58.563 135.132 56.4738C135.132 54.3846 133.433 52.6871 131.407 52.6871C129.382 52.6871 127.683 54.3846 127.683 56.4738C127.683 58.563 129.316 60.2605 131.407 60.2605ZM131.407 54.9722C132.257 54.9722 132.976 55.6251 132.976 56.4738C132.976 57.3226 132.257 57.9754 131.407 57.9754C130.558 57.9754 129.839 57.3226 129.839 56.4738C129.839 55.6904 130.558 54.9722 131.407 54.9722Z" fill="url(#paint32_linear)"/>
<path d="M140.425 72.7957C141.543 72.7957 142.45 71.8603 142.45 70.7065C142.45 69.5526 141.543 68.6172 140.425 68.6172C139.306 68.6172 138.399 69.5526 138.399 70.7065C138.399 71.8603 139.306 72.7957 140.425 72.7957Z" fill="url(#paint33_linear)"/>
<path d="M141.143 45.1791C142.262 45.1791 143.169 44.2437 143.169 43.0899C143.169 41.936 142.262 41.0007 141.143 41.0007C140.025 41.0007 139.118 41.936 139.118 43.0899C139.118 44.2437 140.025 45.1791 141.143 45.1791Z" fill="url(#paint34_linear)"/>
</g>
<defs>
<linearGradient id="paint0_linear" x1="12.8601" y1="116.01" x2="18.2586" y2="197.057" gradientUnits="userSpaceOnUse">
<stop stop-color="#FAD993"/>
<stop offset="0.0279916" stop-color="#FAD48B"/>
<stop offset="0.1124" stop-color="#FAC977"/>
<stop offset="0.1994" stop-color="#FAC26B"/>
<stop offset="0.2921" stop-color="#FABF67"/>
<stop offset="0.6685" stop-color="#ECAC56"/>
<stop offset="0.9944" stop-color="#C57D35"/>
</linearGradient>
<linearGradient id="paint1_linear" x1="48.1997" y1="113.656" x2="53.5981" y2="194.703" gradientUnits="userSpaceOnUse">
<stop stop-color="#FAD993"/>
<stop offset="0.0279916" stop-color="#FAD48B"/>
<stop offset="0.1124" stop-color="#FAC977"/>
<stop offset="0.1994" stop-color="#FAC26B"/>
<stop offset="0.2921" stop-color="#FABF67"/>
<stop offset="0.6685" stop-color="#ECAC56"/>
<stop offset="0.9944" stop-color="#C57D35"/>
</linearGradient>
<linearGradient id="paint2_linear" x1="79.3249" y1="111.583" x2="84.7234" y2="192.63" gradientUnits="userSpaceOnUse">
<stop stop-color="#FAD993"/>
<stop offset="0.0279916" stop-color="#FAD48B"/>
<stop offset="0.1124" stop-color="#FAC977"/>
<stop offset="0.1994" stop-color="#FAC26B"/>
<stop offset="0.2921" stop-color="#FABF67"/>
<stop offset="0.6685" stop-color="#ECAC56"/>
<stop offset="0.9944" stop-color="#C57D35"/>
</linearGradient>
<linearGradient id="paint3_linear" x1="109.386" y1="109.58" x2="114.784" y2="190.628" gradientUnits="userSpaceOnUse">
<stop stop-color="#FAD993"/>
<stop offset="0.0279916" stop-color="#FAD48B"/>
<stop offset="0.1124" stop-color="#FAC977"/>
<stop offset="0.1994" stop-color="#FAC26B"/>
<stop offset="0.2921" stop-color="#FABF67"/>
<stop offset="0.6685" stop-color="#ECAC56"/>
<stop offset="0.9944" stop-color="#C57D35"/>
</linearGradient>
<linearGradient id="paint4_linear" x1="146.641" y1="107.099" x2="152.039" y2="188.146" gradientUnits="userSpaceOnUse">
<stop stop-color="#FAD993"/>
<stop offset="0.0279916" stop-color="#FAD48B"/>
<stop offset="0.1124" stop-color="#FAC977"/>
<stop offset="0.1994" stop-color="#FAC26B"/>
<stop offset="0.2921" stop-color="#FABF67"/>
<stop offset="0.6685" stop-color="#ECAC56"/>
<stop offset="0.9944" stop-color="#C57D35"/>
</linearGradient>
<linearGradient id="paint5_linear" x1="2.43943" y1="116.704" x2="7.83791" y2="197.751" gradientUnits="userSpaceOnUse">
<stop stop-color="#FAD993"/>
<stop offset="0.0279916" stop-color="#FAD48B"/>
<stop offset="0.1124" stop-color="#FAC977"/>
<stop offset="0.1994" stop-color="#FAC26B"/>
<stop offset="0.2921" stop-color="#FABF67"/>
<stop offset="0.6685" stop-color="#ECAC56"/>
<stop offset="0.9944" stop-color="#C57D35"/>
</linearGradient>
<linearGradient id="paint6_linear" x1="17.3144" y1="115.713" x2="22.7129" y2="196.76" gradientUnits="userSpaceOnUse">
<stop stop-color="#FAD993"/>
<stop offset="0.0279916" stop-color="#FAD48B"/>
<stop offset="0.1124" stop-color="#FAC977"/>
<stop offset="0.1994" stop-color="#FAC26B"/>
<stop offset="0.2921" stop-color="#FABF67"/>
<stop offset="0.6685" stop-color="#ECAC56"/>
<stop offset="0.9944" stop-color="#C57D35"/>
</linearGradient>
<linearGradient id="paint7_linear" x1="29.0052" y1="114.934" x2="34.4037" y2="195.982" gradientUnits="userSpaceOnUse">
<stop stop-color="#FAD993"/>
<stop offset="0.0279916" stop-color="#FAD48B"/>
<stop offset="0.1124" stop-color="#FAC977"/>
<stop offset="0.1994" stop-color="#FAC26B"/>
<stop offset="0.2921" stop-color="#FABF67"/>
<stop offset="0.6685" stop-color="#ECAC56"/>
<stop offset="0.9944" stop-color="#C57D35"/>
</linearGradient>
<linearGradient id="paint8_linear" x1="40.7932" y1="114.149" x2="46.1917" y2="195.196" gradientUnits="userSpaceOnUse">
<stop stop-color="#FAD993"/>
<stop offset="0.0279916" stop-color="#FAD48B"/>
<stop offset="0.1124" stop-color="#FAC977"/>
<stop offset="0.1994" stop-color="#FAC26B"/>
<stop offset="0.2921" stop-color="#FABF67"/>
<stop offset="0.6685" stop-color="#ECAC56"/>
<stop offset="0.9944" stop-color="#C57D35"/>
</linearGradient>
<linearGradient id="paint9_linear" x1="53.3371" y1="113.314" x2="58.7356" y2="194.361" gradientUnits="userSpaceOnUse">
<stop stop-color="#FAD993"/>
<stop offset="0.0279916" stop-color="#FAD48B"/>
<stop offset="0.1124" stop-color="#FAC977"/>
<stop offset="0.1994" stop-color="#FAC26B"/>
<stop offset="0.2921" stop-color="#FABF67"/>
<stop offset="0.6685" stop-color="#ECAC56"/>
<stop offset="0.9944" stop-color="#C57D35"/>
</linearGradient>
<linearGradient id="paint10_linear" x1="72.4921" y1="112.038" x2="77.8907" y2="193.085" gradientUnits="userSpaceOnUse">
<stop stop-color="#FAD993"/>
<stop offset="0.0279916" stop-color="#FAD48B"/>
<stop offset="0.1124" stop-color="#FAC977"/>
<stop offset="0.1994" stop-color="#FAC26B"/>
<stop offset="0.2921" stop-color="#FABF67"/>
<stop offset="0.6685" stop-color="#ECAC56"/>
<stop offset="0.9944" stop-color="#C57D35"/>
</linearGradient>
<linearGradient id="paint11_linear" x1="84.0566" y1="111.267" x2="89.4551" y2="192.315" gradientUnits="userSpaceOnUse">
<stop stop-color="#FAD993"/>
<stop offset="0.0279916" stop-color="#FAD48B"/>
<stop offset="0.1124" stop-color="#FAC977"/>
<stop offset="0.1994" stop-color="#FAC26B"/>
<stop offset="0.2921" stop-color="#FABF67"/>
<stop offset="0.6685" stop-color="#ECAC56"/>
<stop offset="0.9944" stop-color="#C57D35"/>
</linearGradient>
<linearGradient id="paint12_linear" x1="97.1952" y1="110.392" x2="102.594" y2="191.44" gradientUnits="userSpaceOnUse">
<stop stop-color="#FAD993"/>
<stop offset="0.0279916" stop-color="#FAD48B"/>
<stop offset="0.1124" stop-color="#FAC977"/>
<stop offset="0.1994" stop-color="#FAC26B"/>
<stop offset="0.2921" stop-color="#FABF67"/>
<stop offset="0.6685" stop-color="#ECAC56"/>
<stop offset="0.9944" stop-color="#C57D35"/>
</linearGradient>
<linearGradient id="paint13_linear" x1="110.334" y1="109.517" x2="115.732" y2="190.564" gradientUnits="userSpaceOnUse">
<stop stop-color="#FAD993"/>
<stop offset="0.0279916" stop-color="#FAD48B"/>
<stop offset="0.1124" stop-color="#FAC977"/>
<stop offset="0.1994" stop-color="#FAC26B"/>
<stop offset="0.2921" stop-color="#FABF67"/>
<stop offset="0.6685" stop-color="#ECAC56"/>
<stop offset="0.9944" stop-color="#C57D35"/>
</linearGradient>
<linearGradient id="paint14_linear" x1="122.061" y1="108.736" x2="127.459" y2="189.783" gradientUnits="userSpaceOnUse">
<stop stop-color="#FAD993"/>
<stop offset="0.0279916" stop-color="#FAD48B"/>
<stop offset="0.1124" stop-color="#FAC977"/>
<stop offset="0.1994" stop-color="#FAC26B"/>
<stop offset="0.2921" stop-color="#FABF67"/>
<stop offset="0.6685" stop-color="#ECAC56"/>
<stop offset="0.9944" stop-color="#C57D35"/>
</linearGradient>
<linearGradient id="paint15_linear" x1="133.69" y1="107.961" x2="139.089" y2="189.009" gradientUnits="userSpaceOnUse">
<stop stop-color="#FAD993"/>
<stop offset="0.0279916" stop-color="#FAD48B"/>
<stop offset="0.1124" stop-color="#FAC977"/>
<stop offset="0.1994" stop-color="#FAC26B"/>
<stop offset="0.2921" stop-color="#FABF67"/>
<stop offset="0.6685" stop-color="#ECAC56"/>
<stop offset="0.9944" stop-color="#C57D35"/>
</linearGradient>
<linearGradient id="paint16_linear" x1="146" y1="107.141" x2="151.398" y2="188.189" gradientUnits="userSpaceOnUse">
<stop stop-color="#FAD993"/>
<stop offset="0.0279916" stop-color="#FAD48B"/>
<stop offset="0.1124" stop-color="#FAC977"/>
<stop offset="0.1994" stop-color="#FAC26B"/>
<stop offset="0.2921" stop-color="#FABF67"/>
<stop offset="0.6685" stop-color="#ECAC56"/>
<stop offset="0.9944" stop-color="#C57D35"/>
</linearGradient>
<linearGradient id="paint17_linear" x1="157.184" y1="106.396" x2="162.582" y2="187.444" gradientUnits="userSpaceOnUse">
<stop stop-color="#FAD993"/>
<stop offset="0.0279916" stop-color="#FAD48B"/>
<stop offset="0.1124" stop-color="#FAC977"/>
<stop offset="0.1994" stop-color="#FAC26B"/>
<stop offset="0.2921" stop-color="#FABF67"/>
<stop offset="0.6685" stop-color="#ECAC56"/>
<stop offset="0.9944" stop-color="#C57D35"/>
</linearGradient>
<linearGradient id="paint18_linear" x1="79.2968" y1="2.87188" x2="85.2352" y2="85" gradientUnits="userSpaceOnUse">
<stop stop-color="#FAD993"/>
<stop offset="0.0279916" stop-color="#FAD48B"/>
<stop offset="0.1124" stop-color="#FAC977"/>
<stop offset="0.1994" stop-color="#FAC26B"/>
<stop offset="0.2921" stop-color="#FABF67"/>
<stop offset="0.6685" stop-color="#ECAC56"/>
<stop offset="0.9944" stop-color="#C57D35"/>
</linearGradient>
<linearGradient id="paint19_linear" x1="38.1599" y1="5.84628" x2="44.0982" y2="87.9744" gradientUnits="userSpaceOnUse">
<stop stop-color="#FAD993"/>
<stop offset="0.0279916" stop-color="#FAD48B"/>
<stop offset="0.1124" stop-color="#FAC977"/>
<stop offset="0.1994" stop-color="#FAC26B"/>
<stop offset="0.2921" stop-color="#FABF67"/>
<stop offset="0.6685" stop-color="#ECAC56"/>
<stop offset="0.9944" stop-color="#C57D35"/>
</linearGradient>
<linearGradient id="paint20_linear" x1="36.0136" y1="6.00143" x2="41.952" y2="88.1296" gradientUnits="userSpaceOnUse">
<stop stop-color="#FAD993"/>
<stop offset="0.0279916" stop-color="#FAD48B"/>
<stop offset="0.1124" stop-color="#FAC977"/>
<stop offset="0.1994" stop-color="#FAC26B"/>
<stop offset="0.2921" stop-color="#FABF67"/>
<stop offset="0.6685" stop-color="#ECAC56"/>
<stop offset="0.9944" stop-color="#C57D35"/>
</linearGradient>
<linearGradient id="paint21_linear" x1="131.429" y1="-0.897649" x2="137.367" y2="81.2305" gradientUnits="userSpaceOnUse">
<stop stop-color="#FAD993"/>
<stop offset="0.0279916" stop-color="#FAD48B"/>
<stop offset="0.1124" stop-color="#FAC977"/>
<stop offset="0.1994" stop-color="#FAC26B"/>
<stop offset="0.2921" stop-color="#FABF67"/>
<stop offset="0.6685" stop-color="#ECAC56"/>
<stop offset="0.9944" stop-color="#C57D35"/>
</linearGradient>
<linearGradient id="paint22_linear" x1="34.1358" y1="6.13733" x2="40.0741" y2="88.2654" gradientUnits="userSpaceOnUse">
<stop stop-color="#FAD993"/>
<stop offset="0.0279916" stop-color="#FAD48B"/>
<stop offset="0.1124" stop-color="#FAC977"/>
<stop offset="0.1994" stop-color="#FAC26B"/>
<stop offset="0.2921" stop-color="#FABF67"/>
<stop offset="0.6685" stop-color="#ECAC56"/>
<stop offset="0.9944" stop-color="#C57D35"/>
</linearGradient>
<linearGradient id="paint23_linear" x1="65.2195" y1="3.88969" x2="71.1579" y2="86.0178" gradientUnits="userSpaceOnUse">
<stop stop-color="#FAD993"/>
<stop offset="0.0279916" stop-color="#FAD48B"/>
<stop offset="0.1124" stop-color="#FAC977"/>
<stop offset="0.1994" stop-color="#FAC26B"/>
<stop offset="0.2921" stop-color="#FABF67"/>
<stop offset="0.6685" stop-color="#ECAC56"/>
<stop offset="0.9944" stop-color="#C57D35"/>
</linearGradient>
<linearGradient id="paint24_linear" x1="72.3871" y1="3.37142" x2="78.3254" y2="85.4995" gradientUnits="userSpaceOnUse">
<stop stop-color="#FAD993"/>
<stop offset="0.0279916" stop-color="#FAD48B"/>
<stop offset="0.1124" stop-color="#FAC977"/>
<stop offset="0.1994" stop-color="#FAC26B"/>
<stop offset="0.2921" stop-color="#FABF67"/>
<stop offset="0.6685" stop-color="#ECAC56"/>
<stop offset="0.9944" stop-color="#C57D35"/>
</linearGradient>
<linearGradient id="paint25_linear" x1="98.9249" y1="1.45262" x2="104.863" y2="83.5807" gradientUnits="userSpaceOnUse">
<stop stop-color="#FAD993"/>
<stop offset="0.0279916" stop-color="#FAD48B"/>
<stop offset="0.1124" stop-color="#FAC977"/>
<stop offset="0.1994" stop-color="#FAC26B"/>
<stop offset="0.2921" stop-color="#FABF67"/>
<stop offset="0.6685" stop-color="#ECAC56"/>
<stop offset="0.9944" stop-color="#C57D35"/>
</linearGradient>
<linearGradient id="paint26_linear" x1="93.2382" y1="1.86387" x2="99.1766" y2="83.9919" gradientUnits="userSpaceOnUse">
<stop stop-color="#FAD993"/>
<stop offset="0.0279916" stop-color="#FAD48B"/>
<stop offset="0.1124" stop-color="#FAC977"/>
<stop offset="0.1994" stop-color="#FAC26B"/>
<stop offset="0.2921" stop-color="#FABF67"/>
<stop offset="0.6685" stop-color="#ECAC56"/>
<stop offset="0.9944" stop-color="#C57D35"/>
</linearGradient>
<linearGradient id="paint27_linear" x1="128.81" y1="-0.708145" x2="134.748" y2="81.4199" gradientUnits="userSpaceOnUse">
<stop stop-color="#FAD993"/>
<stop offset="0.0279916" stop-color="#FAD48B"/>
<stop offset="0.1124" stop-color="#FAC977"/>
<stop offset="0.1994" stop-color="#FAC26B"/>
<stop offset="0.2921" stop-color="#FABF67"/>
<stop offset="0.6685" stop-color="#ECAC56"/>
<stop offset="0.9944" stop-color="#C57D35"/>
</linearGradient>
<linearGradient id="paint28_linear" x1="28.1456" y1="6.57034" x2="34.0839" y2="88.6984" gradientUnits="userSpaceOnUse">
<stop stop-color="#FAD993"/>
<stop offset="0.0279916" stop-color="#FAD48B"/>
<stop offset="0.1124" stop-color="#FAC977"/>
<stop offset="0.1994" stop-color="#FAC26B"/>
<stop offset="0.2921" stop-color="#FABF67"/>
<stop offset="0.6685" stop-color="#ECAC56"/>
<stop offset="0.9944" stop-color="#C57D35"/>
</linearGradient>
<linearGradient id="paint29_linear" x1="29.392" y1="6.48028" x2="35.3304" y2="88.6084" gradientUnits="userSpaceOnUse">
<stop stop-color="#FAD993"/>
<stop offset="0.0279916" stop-color="#FAD48B"/>
<stop offset="0.1124" stop-color="#FAC977"/>
<stop offset="0.1994" stop-color="#FAC26B"/>
<stop offset="0.2921" stop-color="#FABF67"/>
<stop offset="0.6685" stop-color="#ECAC56"/>
<stop offset="0.9944" stop-color="#C57D35"/>
</linearGradient>
<linearGradient id="paint30_linear" x1="86.398" y1="2.35839" x2="92.3363" y2="84.4865" gradientUnits="userSpaceOnUse">
<stop stop-color="#FAD993"/>
<stop offset="0.0279916" stop-color="#FAD48B"/>
<stop offset="0.1124" stop-color="#FAC977"/>
<stop offset="0.1994" stop-color="#FAC26B"/>
<stop offset="0.2921" stop-color="#FABF67"/>
<stop offset="0.6685" stop-color="#ECAC56"/>
<stop offset="0.9944" stop-color="#C57D35"/>
</linearGradient>
<linearGradient id="paint31_linear" x1="82.7071" y1="2.62521" x2="88.6454" y2="84.7533" gradientUnits="userSpaceOnUse">
<stop stop-color="#FAD993"/>
<stop offset="0.0279916" stop-color="#FAD48B"/>
<stop offset="0.1124" stop-color="#FAC977"/>
<stop offset="0.1994" stop-color="#FAC26B"/>
<stop offset="0.2921" stop-color="#FABF67"/>
<stop offset="0.6685" stop-color="#ECAC56"/>
<stop offset="0.9944" stop-color="#C57D35"/>
</linearGradient>
<linearGradient id="paint32_linear" x1="127.251" y1="-0.595491" x2="133.189" y2="81.5326" gradientUnits="userSpaceOnUse">
<stop stop-color="#FAD993"/>
<stop offset="0.0279916" stop-color="#FAD48B"/>
<stop offset="0.1124" stop-color="#FAC977"/>
<stop offset="0.1994" stop-color="#FAC26B"/>
<stop offset="0.2921" stop-color="#FABF67"/>
<stop offset="0.6685" stop-color="#ECAC56"/>
<stop offset="0.9944" stop-color="#C57D35"/>
</linearGradient>
<linearGradient id="paint33_linear" x1="135.222" y1="-1.17192" x2="141.161" y2="80.9561" gradientUnits="userSpaceOnUse">
<stop stop-color="#FAD993"/>
<stop offset="0.0279916" stop-color="#FAD48B"/>
<stop offset="0.1124" stop-color="#FAC977"/>
<stop offset="0.1994" stop-color="#FAC26B"/>
<stop offset="0.2921" stop-color="#FABF67"/>
<stop offset="0.6685" stop-color="#ECAC56"/>
<stop offset="0.9944" stop-color="#C57D35"/>
</linearGradient>
<linearGradient id="paint34_linear" x1="137.951" y1="-1.36912" x2="143.889" y2="80.759" gradientUnits="userSpaceOnUse">
<stop stop-color="#FAD993"/>
<stop offset="0.0279916" stop-color="#FAD48B"/>
<stop offset="0.1124" stop-color="#FAC977"/>
<stop offset="0.1994" stop-color="#FAC26B"/>
<stop offset="0.2921" stop-color="#FABF67"/>
<stop offset="0.6685" stop-color="#ECAC56"/>
<stop offset="0.9944" stop-color="#C57D35"/>
</linearGradient>
<clipPath id="clip0">
<rect width="168" height="202" fill="white"/>
</clipPath>
</defs>
</svg>
