<svg width="660" height="533" viewBox="0 0 660 533" fill="none" xmlns="http://www.w3.org/2000/svg">
<g clip-path="url(#clip0)">
<path d="M115.664 501.951C114.092 502.225 112.725 502.772 111.289 503.456C111.084 503.524 110.674 503.387 110.538 503.182C110.401 503.045 110.469 502.567 110.606 502.43C111.563 501.472 112.793 500.925 113.34 499.557C113.409 499.352 113.409 499.147 113.477 498.942C113.272 498.942 113.067 498.874 112.93 498.874C112.588 498.942 112.178 499.01 111.905 499.147C109.444 500.583 107.051 502.156 105.342 504.482C105.001 504.96 104.317 505.234 103.702 505.576C102.403 506.396 100.967 506.944 99.9421 507.969C98.9167 509.064 97.823 510.089 96.6609 511.115C96.5242 511.184 96.5241 511.526 96.5925 511.662C96.6609 511.799 96.8659 511.868 97.1394 512.141C97.4812 511.936 97.823 511.662 98.2331 511.389C98.9167 510.91 99.6686 510.021 100.352 510.021C102.608 510.089 104.112 508.175 106.231 507.969C107.872 506.328 110.127 505.986 112.178 505.097C113.614 504.482 115.254 504.14 116.348 502.84C116.895 502.225 117.51 501.678 118.125 501.13C117.168 501.062 116.485 501.814 115.664 501.951Z" fill="#E6E6E6"/>
<path d="M78.3406 511.868C76.6316 512.825 74.991 513.851 73.3504 514.945C71.7782 515.971 70.3427 517.134 68.5654 517.818C66.583 518.638 65.0791 520.143 63.5069 521.511C63.2335 521.784 63.1651 522.4 63.1651 522.81C63.1651 523.015 63.712 523.152 64.1221 523.426C64.669 523.221 65.1475 523.015 65.6944 522.947C67.8818 522.537 69.5224 521.101 71.2314 519.938C73.2137 518.638 74.786 516.724 76.9734 515.698C78.0671 515.151 78.7507 514.056 79.2976 512.962C79.4343 512.688 79.2976 512.21 79.2292 511.868C79.0241 511.799 78.614 511.731 78.3406 511.868Z" fill="#E6E6E6"/>
<path d="M29.1916 519.117C28.3029 519.664 27.4826 520.348 26.4573 520.211C25.0901 519.938 23.928 520.485 22.766 521.032C20.5785 522.058 18.3227 523.015 16.0669 524.041C15.9302 524.109 15.7935 524.383 15.7935 524.52C15.8618 524.725 15.9985 525.067 16.1352 525.135C16.4087 525.272 16.6821 525.204 17.0239 525.272C17.0239 525.34 17.0923 525.477 17.0923 525.546C19.0746 524.93 21.1254 524.52 22.971 523.631C24.2015 523.084 25.2268 522.468 26.6623 522.605C27.2776 522.673 27.8928 522.4 28.508 522.195C29.3967 521.989 29.8752 520.758 31.0372 521.237C31.0372 521.237 31.5158 520.69 31.5158 520.348C31.5158 518.98 30.3537 518.365 29.1916 519.117Z" fill="#E6E6E6"/>
<path d="M211.98 525.546C210.203 523.973 207.947 523.152 206.102 521.647C205.76 521.374 205.35 520.964 204.939 520.964C204.393 520.895 203.846 521.169 203.299 521.237C203.367 521.647 203.367 522.126 203.572 522.468C205.076 524.52 205.555 524.999 207.742 526.161C208.631 526.64 209.451 527.119 210.203 527.871C210.75 528.418 211.57 528.692 211.98 528.965C212.527 529.034 212.732 529.102 212.869 529.034C213.279 528.897 213.689 528.623 214.099 528.418C213.963 528.145 213.826 527.803 213.621 527.529C213.074 526.845 212.595 526.093 211.98 525.546Z" fill="#E6E6E6"/>
<path d="M11.7602 514.193C10.3931 514.808 8.82086 514.33 7.52206 515.287C6.77012 515.903 5.6764 516.245 4.78775 516.245C3.21552 516.245 2.12179 517.065 1.09642 518.023C0.891351 518.228 0.61792 518.707 0.61792 518.775C0.959709 519.117 1.36986 519.527 1.71164 519.527C2.80537 519.527 3.89909 519.459 4.92446 519.049C7.72713 518.091 10.5298 516.997 13.2641 515.903C13.4692 515.834 13.6059 515.492 13.8793 515.082C13.1274 514.808 12.1704 513.988 11.7602 514.193Z" fill="#E6E6E6"/>
<path d="M153.535 511.731C151.689 511.252 151.142 509.406 149.639 508.722C149.16 506.875 147.588 506.875 146.152 506.807C145.947 506.807 145.605 507.012 145.537 507.149C145.469 507.354 145.605 507.764 145.742 507.901C146.084 508.175 146.494 508.38 146.836 508.653C148.887 510.5 151.416 511.868 153.056 514.193C153.603 514.945 154.287 515.356 155.107 515.287C155.381 515.287 155.586 515.356 155.791 515.356C156.064 515.287 156.406 515.287 156.543 515.082C156.679 514.877 156.611 514.467 156.406 514.33C155.449 513.441 154.629 512.005 153.535 511.731Z" fill="#E6E6E6"/>
<path d="M131.318 506.944C130.361 505.849 129.131 505.029 127.968 504.14C127.558 503.798 127.148 503.456 126.67 503.182C126.465 503.114 126.533 504.003 127.148 505.029C127.353 505.439 127.9 505.849 127.832 506.191C127.627 507.286 128.31 507.833 128.925 508.38C129.677 509.2 130.566 509.884 131.318 510.705C132.07 511.526 132.822 512.073 133.916 512.073C134.121 512.073 134.326 511.799 134.462 511.731C134.462 511.457 134.531 511.389 134.531 511.321C133.437 509.884 132.548 508.311 131.318 506.944Z" fill="#E6E6E6"/>
<path d="M184.5 519.048C183.816 518.501 182.996 518.091 182.244 517.681C181.697 517.817 181.356 517.954 181.014 518.023C181.151 518.365 181.151 518.775 181.356 519.048C182.791 521.305 185.32 521.921 187.508 523.015C187.713 523.083 188.123 522.947 188.26 522.81C188.397 522.605 188.328 522.194 188.123 522.058C186.893 521.032 185.731 520.006 184.5 519.048Z" fill="#E6E6E6"/>
<path d="M218.611 515.903C217.927 515.082 217.585 515.766 217.38 516.108C217.243 516.381 217.312 517.065 217.585 517.271C218.269 517.818 219.089 518.228 219.841 518.775C220.388 518.502 220.73 518.365 221.14 518.16C221.003 517.818 220.935 517.407 220.661 517.202C220.046 516.723 219.089 516.518 218.611 515.903Z" fill="#E6E6E6"/>
<path d="M155.995 505.986C155.859 505.986 155.653 506.328 155.448 506.533C155.653 506.807 155.722 507.149 155.927 507.286C156.884 507.764 157.909 508.175 158.935 508.585C159.071 508.653 159.413 508.517 159.413 508.38C159.482 508.106 159.55 507.764 159.413 507.627C158.525 506.602 157.226 506.328 155.995 505.986Z" fill="#E6E6E6"/>
<path d="M202.068 513.304C201.795 513.236 201.521 513.236 201.18 513.236C200.633 513.167 200.017 513.099 199.471 513.099C199.334 513.099 199.129 513.509 199.129 513.714C199.129 513.851 199.266 514.125 199.334 514.193C200.086 514.398 201.043 514.125 201.658 514.945C201.795 515.151 202.82 515.492 203.094 514.672C203.367 513.988 202.82 513.509 202.068 513.304Z" fill="#E6E6E6"/>
<path d="M104.384 517.954C104.658 518.023 104.863 518.228 105.136 518.228C105.41 518.228 105.683 518.023 105.957 517.954C105.683 517.818 105.478 517.749 105.068 517.544C104.931 517.681 104.658 517.818 104.384 517.954Z" fill="#E6E6E6"/>
<path d="M64.6693 507.354C64.3959 507.491 64.1908 507.764 63.9857 507.969C64.1225 508.106 64.3275 508.311 64.3959 508.311C64.7377 508.243 65.0795 508.106 65.6263 507.901C64.9428 507.491 64.7377 507.285 64.6693 507.354Z" fill="#E6E6E6"/>
<path d="M545.704 512.346C546.387 513.235 546.797 511.594 547.549 512.209C548.096 512.688 548.848 512.893 549.463 513.304C549.942 513.646 550.079 513.509 550.079 512.962C550.147 511.457 549.258 510.773 548.096 510.158C547.755 510.021 547.413 509.816 547.003 509.679C548.438 510.021 549.942 510.295 551.378 510.636C552.335 511.662 553.497 512.141 554.932 512.346C556.094 512.483 556.368 511.252 555.821 510.5C556.026 509.884 555.821 509.2 555.069 508.995C554.18 508.79 553.292 508.585 552.403 508.38H552.334C551.924 508.311 551.514 508.174 551.172 508.106C551.036 507.969 550.899 507.901 550.694 507.832C550.626 507.285 550.215 506.875 549.532 506.943C548.985 507.012 548.37 507.08 547.823 507.08C547.481 507.08 547.276 507.217 547.071 507.422C546.251 507.764 545.909 508.927 546.592 509.474C542.491 507.559 538.39 505.712 534.083 504.208C533.126 503.866 532.237 503.25 531.485 502.566C529.776 501.199 527.999 500.036 526.017 499.147C524.103 498.189 522.53 498.121 520.411 499.079C518.224 500.036 516.173 501.13 514.259 502.566C513.439 503.182 512.003 503.045 511.457 502.224C510.226 500.378 508.722 498.873 506.535 498.189C506.33 498.121 506.193 497.984 506.056 497.848C504.074 495.864 501.75 494.633 498.947 494.086C497.238 493.744 495.734 492.65 494.299 491.692C492.59 490.53 490.471 490.188 488.967 488.615C488.147 487.726 486.984 488.136 486.027 488.546C484.455 489.23 482.951 490.119 481.379 490.803C479.807 491.487 478.235 492.308 476.594 492.718C475.5 493.06 474.475 493.334 473.655 494.223C473.381 494.565 472.903 494.907 472.493 494.838C472.014 494.77 471.399 494.496 470.989 494.154C469.28 492.787 467.434 491.487 466.409 489.504C465.178 487.247 463.196 485.674 461.624 483.759C461.077 483.075 460.325 482.528 459.71 481.913C459.163 481.365 458.548 480.818 458.001 480.134C456.497 478.22 454.583 478.767 452.669 479.04C452.122 480.066 451.165 479.724 450.345 479.792C448.636 479.998 447.2 480.75 445.696 481.434C443.167 482.596 440.775 484.169 437.835 484.648C436.878 484.785 435.784 485.332 434.964 486.084C433.597 487.384 431.683 487.999 429.974 488.82C429.29 489.162 428.47 489.162 427.992 489.641C426.898 490.667 425.462 490.735 424.505 490.393C423.275 489.983 422.25 490.256 421.156 490.256C420.472 490.256 419.72 490.598 419.105 490.393C418.148 490.051 417.259 489.23 416.234 489.572C414.388 490.256 412.474 491.008 410.765 492.034C407.484 494.018 404.34 496.206 401.195 498.326C399.281 499.626 397.504 500.993 395.658 502.361C394.975 502.84 394.838 504.003 393.813 504.003C393.539 504.003 393.266 504.003 392.992 504.071C392.172 503.319 391.352 502.772 390.326 502.361C381.167 496.343 371.596 491.077 361.616 486.495C360.591 486.016 359.634 487.042 359.771 487.863C359.634 487.726 359.497 487.589 359.36 487.521C359.224 487.11 358.882 486.7 358.403 486.7C358.403 486.7 358.335 486.7 358.335 486.632C357.857 486.153 357.173 486.221 356.626 486.632C355.806 487.315 355.054 487.999 354.234 488.615C353.482 488.41 352.798 489.094 352.798 489.777C351.773 490.667 350.679 491.487 349.585 492.308C349.517 492.308 349.449 492.376 349.312 492.376C349.038 492.513 348.765 492.718 348.628 492.992C342.886 497.369 336.871 501.335 330.582 504.892C330.513 504.96 330.445 504.96 330.377 505.028C329.146 504.413 327.847 504.071 326.48 503.866C326.207 503.866 326.07 503.866 325.865 503.934C325.66 503.729 325.523 503.592 325.318 503.456C324.293 502.703 323.267 502.635 322.037 502.84C317.457 503.592 312.809 506.465 309.117 509.132C308.981 509.064 308.844 508.995 308.707 508.927C305.768 507.559 302.965 505.918 300.094 504.276C295.104 501.404 289.909 498.463 284.167 497.437C281.911 497.027 279.587 496.89 277.468 498.053C274.46 499.694 271.726 502.224 268.991 504.276C268.445 504.687 268.376 505.302 268.581 505.781C264.343 503.661 260.105 501.541 255.798 499.557C251.423 497.506 246.98 495.522 242.469 493.676C238.846 492.171 235.018 490.667 230.984 491.35C226.541 492.103 222.371 494.975 218.407 497.095C213.485 499.694 208.563 502.361 203.641 504.96C203.368 505.097 203.231 505.302 203.094 505.507C202.001 504.687 200.975 503.797 200.087 502.635C198.378 500.515 195.78 499.968 193.183 500.378C191.337 500.652 189.491 501.199 187.646 501.677C185.048 502.361 182.382 503.045 179.784 503.866C178.007 504.413 176.367 503.729 174.658 503.729C173.632 503.729 173.427 502.566 172.812 502.088C170.966 500.72 169.189 499.284 167.275 498.053C164.13 495.864 160.986 493.744 157.705 491.761C155.996 490.735 154.15 489.983 152.236 489.299C151.211 488.957 150.322 489.777 149.365 490.119C148.818 490.325 147.998 489.983 147.314 489.983C146.221 489.983 145.127 489.709 143.965 490.119C143.008 490.461 141.504 490.325 140.479 489.367C140 488.888 139.112 488.888 138.496 488.546C136.787 487.726 134.873 487.11 133.506 485.811C132.618 484.99 131.592 484.511 130.635 484.375C127.696 483.896 125.372 482.391 122.774 481.16C121.27 480.476 119.766 479.724 118.126 479.519C117.305 479.451 116.28 479.724 115.802 478.767C113.887 478.493 111.973 477.946 110.47 479.861C109.991 480.476 109.376 481.024 108.761 481.639C108.145 482.255 107.393 482.802 106.847 483.486C105.274 485.4 103.292 486.973 102.062 489.23C101.036 491.214 99.1906 492.513 97.4816 493.881C97.0715 494.223 96.5246 494.496 95.9777 494.565C95.6359 494.565 95.0891 494.223 94.8157 493.949C93.9954 493.06 93.0384 492.787 91.8763 492.445C90.2357 491.966 88.6635 491.214 87.0912 490.53C85.519 489.846 84.0151 488.957 82.4429 488.273C81.4859 487.863 80.3238 487.452 79.5035 488.341C77.9996 489.914 75.8805 490.256 74.1716 491.419C72.7361 492.376 71.2322 493.471 69.5233 493.812C66.789 494.36 64.3964 495.591 62.4141 497.574C62.2773 497.711 62.1406 497.916 61.9356 497.916C59.7481 498.6 58.2442 500.104 57.0138 501.951C56.4669 502.772 55.0314 502.977 54.2111 502.293C52.3655 500.857 50.2464 499.762 48.0589 498.805C45.9398 497.847 44.3676 497.916 42.4536 498.873C40.4712 499.831 38.6939 500.993 36.985 502.293C36.1647 502.908 35.3444 503.592 34.3874 503.934C29.534 505.576 24.954 507.764 20.3056 509.884C19.0752 510.431 18.1866 511.184 18.3233 512.688C18.3916 513.235 18.46 513.304 18.9385 513.03C19.5537 512.62 20.3056 512.415 20.8525 511.936C21.6044 511.32 22.0146 512.962 22.6982 512.073C25.0223 512.073 26.7996 510.568 28.782 509.679C30.1492 509.063 31.3113 508.516 32.8151 508.79C35.5494 509.337 37.8052 508.38 39.7876 506.601C41.2231 505.37 42.6586 504.071 44.436 503.25C44.9828 502.977 45.2562 502.84 45.8715 503.25C47.1019 504.003 48.4691 504.481 49.7679 505.097C49.9729 505.165 50.2464 505.439 50.178 505.644C50.178 505.849 49.9046 506.191 49.7679 506.191C48.1956 506.328 46.8968 507.149 46.2133 508.311C45.0512 510.295 42.9321 510.705 41.3598 511.936C39.5142 513.372 37.6685 514.808 35.8912 516.244C35.8229 516.244 36.0279 516.723 36.0963 516.723C36.7115 516.723 37.3951 516.655 38.0103 516.586C39.7876 516.45 41.1548 515.219 42.7954 514.74C44.9145 514.056 46.7601 512.825 48.6741 511.662C50.9299 510.295 53.1174 508.722 55.715 507.832C57.1505 507.354 58.9278 506.67 59.7481 505.507C61.7305 502.772 65.08 501.814 67.2675 499.489C67.6776 499.01 68.5663 498.942 69.3182 498.737C71.1639 498.258 73.0779 497.779 74.5817 496.548C76.0856 495.385 77.7946 494.633 79.4352 493.744C79.9137 493.471 80.734 493.265 80.8023 492.923C80.939 492.034 81.4859 492.034 82.0327 492.171C82.9214 492.376 83.8101 492.718 84.6303 492.992C84.6987 492.992 84.6987 493.471 84.6303 493.539C83.7417 494.086 82.9214 494.838 81.9644 495.043C78.6832 495.796 76.359 498.053 73.8982 499.968C72.1892 501.267 70.6854 502.977 69.0448 504.413C68.9081 504.55 68.8397 504.823 68.7713 505.028C68.9764 505.097 69.1131 505.165 69.3182 505.165C69.66 505.097 70.1385 505.097 70.3436 504.892C71.0271 504.345 71.8474 503.866 72.1892 503.114C72.6677 502.088 73.3513 502.088 74.24 502.019C75.7438 501.883 77.4528 501.746 78.6149 500.72C79.982 499.489 81.6226 498.873 83.2632 498.189C84.0835 497.848 85.0405 497.574 85.7241 496.958C87.3647 495.454 89.0736 494.907 91.2611 495.385C91.8079 495.522 92.4231 495.522 93.0384 495.591C93.2434 495.591 93.3801 495.727 93.5169 495.796C93.4485 495.933 93.3801 496.069 93.3118 496.206C90.3724 498.873 87.3647 501.472 84.4253 504.071C83.4683 504.96 82.3062 505.644 81.896 507.08C81.691 507.764 81.1441 508.38 80.734 509.063C81.4175 508.995 82.1695 508.722 82.853 508.79C84.562 509.064 85.9291 508.243 87.2963 507.559C88.4584 506.943 89.5521 506.191 90.5775 505.37C91.6712 504.481 92.6282 503.387 93.5852 502.361C94.1321 501.746 94.6106 500.993 95.2258 500.515C98.507 498.053 100.626 494.633 102.95 491.35C105.274 488.136 107.804 485.195 110.811 482.597C111.7 481.844 112.11 482.46 112.657 482.665C113.204 482.938 113.682 483.349 114.229 483.691C115.46 484.443 116.553 485.264 117.237 486.632C117.921 487.999 118.741 489.299 119.835 490.325C121.885 492.308 124.21 494.018 126.397 495.864C128.106 497.3 129.746 498.805 131.524 500.104C132.823 501.062 134.395 501.677 135.762 502.566C137.949 504.071 140.752 503.866 143.076 504.96C143.281 505.097 143.828 504.96 143.828 504.892C143.897 504.55 143.965 504.139 143.76 503.934C142.188 501.883 140.615 499.831 138.291 498.668C138.018 498.531 137.813 498.463 137.539 498.326C137.813 498.258 138.018 498.189 138.291 498.053C139.043 497.711 139.727 497.164 140.479 496.958C141.572 496.616 142.803 496.48 143.965 496.275C145.059 497.916 147.109 498.326 148.203 499.968C148.75 500.788 149.502 501.541 150.322 502.224C151.279 503.114 152.715 502.293 153.33 503.592C153.808 503.387 154.424 503.25 154.765 502.84C155.107 502.43 154.902 502.019 154.219 501.883C153.877 501.814 153.672 501.404 153.33 501.267C150.869 500.104 149.98 498.737 150.117 496.275C150.117 495.796 150.459 495.112 150.185 494.838C149.502 493.812 149.912 493.744 150.801 493.949C151.348 494.086 151.758 494.428 152.305 494.633C154.629 495.317 156.338 497.027 158.388 498.258C162.627 500.857 167.07 503.319 170.83 506.67C173.222 508.858 176.025 510.158 178.827 511.252C180.468 511.867 181.904 512.893 183.749 513.03C184.911 514.672 187.03 514.603 188.603 515.492C191.2 516.792 193.729 518.501 196.669 518.365C197.763 518.501 198.651 518.57 199.54 518.638C199.677 518.638 199.882 518.501 200.018 518.433C199.882 518.296 199.813 518.091 199.608 517.954C199.335 517.749 198.993 517.612 198.651 517.407C193.729 514.056 188.534 510.978 182.929 508.79C182.587 508.653 182.382 508.243 182.177 507.969C182.45 507.832 182.792 507.764 182.997 507.627C184.638 506.67 186.415 506.807 188.192 506.943C189.149 507.012 189.833 507.285 190.38 508.106C191.474 509.679 192.772 510.91 194.55 511.799C195.643 512.346 196.327 512.004 197.147 511.526C197.899 511.115 197.831 510.773 197.079 510.158C194.755 508.243 194.55 507.969 194.14 506.123C193.934 505.37 194.345 505.028 195.097 505.234C195.302 505.302 195.575 505.234 195.643 505.37C196.874 506.875 198.651 506.738 200.36 506.943C200.839 507.012 201.522 507.08 201.591 507.422C202.206 508.79 203.71 508.927 204.735 509.679C205.692 510.363 206.717 511.047 207.743 511.457C208.768 511.799 209.93 511.799 211.024 511.936C210.682 510.91 209.93 510.295 209.042 509.884C208.768 509.747 208.563 509.679 208.358 509.474C207.606 508.858 206.854 508.311 206.034 507.832C212.049 508.311 216.287 503.729 221.483 501.13C225.037 499.352 229.002 498.942 232.83 497.984C234.471 497.574 235.496 497.095 236.726 497.3C236.726 497.437 236.795 497.506 236.863 497.642C238.435 500.583 241.785 500.993 244.177 503.182C246.57 505.37 246.57 508.585 249.099 510.568C251.902 512.757 253.679 515.766 256.687 517.749C260.31 520.074 265.027 521.511 266.53 526.024C267.009 527.46 269.333 526.845 268.855 525.409C268.239 523.289 267.214 521.374 265.573 519.869C264.07 518.433 261.814 517.681 260.583 516.039C260.652 515.903 260.652 515.697 260.583 515.561C261.062 515.492 261.54 515.424 262.019 515.492C262.976 515.492 263.454 514.466 263.044 513.714C262.908 513.509 262.771 513.235 262.634 513.03H262.702C265.984 514.33 267.351 512.209 266.941 509.816C267.898 510.431 268.855 511.047 269.948 511.457C273.981 513.03 279.313 513.372 281.569 517.681C281.979 518.433 283.21 518.433 283.62 517.681C283.757 517.612 283.962 517.544 284.098 517.476C284.235 517.476 284.304 517.476 284.44 517.476C285.876 518.296 287.38 519.185 288.815 520.006C289.157 520.279 289.499 520.621 289.909 520.895C291.276 521.921 292.78 522.673 294.352 523.289C298.727 525.956 303.102 528.76 307.34 531.564C307.477 531.701 307.682 531.701 307.819 531.769C309.117 532.59 310.553 533 312.33 532.727C313.287 532.59 313.424 531.29 312.877 530.743C310.006 527.871 306.725 525.546 302.965 523.973C300.231 522.81 297.428 522.058 294.831 520.895C293.327 520.006 291.891 519.117 290.387 518.228C290.182 518.091 289.977 517.886 289.84 517.749C285.671 513.988 280.339 511.32 274.802 509.474C273.093 508.585 271.384 507.696 269.675 506.807C269.743 506.738 269.88 506.738 269.948 506.67C272.409 504.823 274.939 502.498 277.604 500.993C278.767 500.31 279.997 500.036 281.296 499.968C281.364 500.104 281.501 500.241 281.706 500.31C284.85 502.224 287.995 504.139 291.208 505.986C292.78 506.943 294.831 508.927 296.813 508.585C297.155 508.516 297.428 508.243 297.565 507.969C298.317 508.448 299.137 508.79 300.163 508.927C300.436 508.995 300.709 508.927 300.914 508.79C306.793 512.62 313.561 514.603 319.303 518.638C320.26 519.322 321.559 517.954 320.943 516.997C320.875 516.86 320.807 516.792 320.738 516.655C321.353 516.928 321.969 517.27 322.516 517.612C322.652 517.817 322.857 517.954 323.199 518.023C323.267 518.023 323.267 518.023 323.336 518.023C323.746 518.091 324.088 518.023 324.361 517.817C327.779 519.664 331.06 521.852 334.341 523.836C335.64 524.656 336.871 522.536 335.572 521.784C329.967 518.433 324.361 514.466 318.072 512.415C315.885 511.731 313.697 511.115 311.51 510.363C313.219 509.2 314.928 508.174 316.773 507.354C316.979 507.285 317.184 507.149 317.32 507.08C318.551 508.653 320.123 509.816 321.9 510.636C323.062 511.184 324.498 509.679 323.336 508.722C322.789 508.311 322.242 507.832 321.764 507.422C322.105 507.149 322.447 506.67 322.789 506.533C322.926 506.465 322.994 506.465 323.131 506.465C323.336 507.354 324.498 507.559 325.113 507.012C327.027 508.653 330.103 511.526 332.564 510.021C332.974 509.747 333.179 509.337 333.111 508.858C333.316 508.653 333.453 508.38 333.453 508.038C335.914 507.149 338.101 505.576 339.81 503.524C340.22 502.977 340.152 502.361 339.81 501.883C343.296 499.626 346.646 497.232 349.927 494.77C352.73 494.838 355.532 494.838 358.335 494.907C358.472 494.907 358.54 494.907 358.677 494.838C358.95 495.043 359.224 495.18 359.565 495.385C358.95 495.796 358.677 496.89 359.565 497.437C366.196 501.814 372.827 506.191 379.458 510.568C380.756 511.457 381.85 509.405 380.688 508.516C379.868 507.901 379.047 507.217 378.227 506.465C378.637 505.712 378.911 505.028 379.116 504.276C379.184 504.276 379.184 504.345 379.253 504.345C382.534 506.396 385.815 508.448 389.028 510.636L389.096 511.389C389.301 511.32 389.506 511.252 389.711 511.115C391.625 512.415 393.471 513.782 395.248 515.15C395.385 515.424 395.658 515.629 396 515.834C396.137 515.903 396.205 515.971 396.342 515.971C398.119 517.407 399.828 518.912 401.469 520.485C402.152 521.169 403.178 520.827 403.451 519.938C403.656 519.39 403.725 518.843 403.725 518.365C404.818 519.048 405.98 519.664 407.211 520.074C408.646 520.621 409.262 518.296 407.826 517.749C405.775 516.997 403.998 515.903 402.289 514.603C401.059 513.03 399.145 511.662 397.572 510.636C397.504 510.636 397.504 510.568 397.436 510.568C396.615 509.816 395.727 509.063 394.906 508.38C395.658 507.901 396.41 507.354 397.094 506.738C400.785 503.387 405.228 500.925 409.535 498.326C411.517 497.095 413.295 495.385 415.619 494.702C416.166 494.565 416.576 494.154 417.123 494.018C418.011 493.812 418.422 493.881 417.738 494.907C417.533 495.18 417.806 495.864 417.806 496.343C417.943 498.805 417.054 500.173 414.593 501.335C414.252 501.472 414.047 501.883 413.705 501.951C413.021 502.088 412.816 502.498 413.158 502.908C413.5 503.319 414.115 503.387 414.593 503.661C415.209 502.43 416.644 503.182 417.601 502.293C418.353 501.609 419.173 500.857 419.72 500.036C420.814 498.326 422.865 497.916 423.959 496.343C425.121 496.548 426.283 496.685 427.445 497.027C428.197 497.232 428.949 497.779 429.632 498.121C429.837 498.258 430.111 498.258 430.384 498.395C430.111 498.531 429.906 498.6 429.632 498.737C427.24 499.899 425.736 501.951 424.164 504.003C424.027 504.208 424.027 504.687 424.095 504.96C424.095 505.028 424.642 505.165 424.847 505.028C427.171 503.866 429.974 504.139 432.161 502.635C433.529 501.746 435.032 501.13 436.4 500.173C438.177 498.873 439.818 497.369 441.526 495.933C443.714 494.086 446.038 492.376 448.089 490.393C449.183 489.367 450.003 487.999 450.686 486.7C451.37 485.332 452.532 484.511 453.694 483.759C454.241 483.417 454.72 482.938 455.266 482.733C455.813 482.46 456.155 481.844 457.112 482.665C460.12 485.264 462.717 488.204 464.973 491.419C467.297 494.633 469.348 498.121 472.698 500.583C473.381 501.062 473.791 501.883 474.338 502.43C475.295 503.456 476.252 504.55 477.346 505.439C478.371 506.259 479.465 507.012 480.627 507.627C481.994 508.311 483.361 509.132 485.07 508.858C485.754 508.722 486.438 508.995 487.189 509.132C486.779 508.448 486.232 507.832 486.027 507.149C485.617 505.781 484.524 505.028 483.498 504.139C480.559 501.541 477.551 498.873 474.612 496.275C474.475 496.206 474.475 496.001 474.407 495.864C474.543 495.796 474.748 495.659 474.885 495.659C475.5 495.591 476.047 495.591 476.662 495.454C478.782 494.975 480.559 495.522 482.199 497.027C482.815 497.642 483.772 497.916 484.66 498.258C486.301 498.942 487.941 499.557 489.309 500.788C490.539 501.883 492.18 501.951 493.683 502.088C494.572 502.156 495.256 502.156 495.734 503.182C496.076 503.934 496.896 504.413 497.58 504.96C497.853 505.165 498.263 505.165 498.605 505.234C498.81 505.234 498.947 505.165 499.152 505.097C499.084 504.892 499.015 504.618 498.879 504.481C497.238 503.045 495.666 501.404 494.025 500.036C491.564 498.121 489.172 495.864 485.959 495.112C485.002 494.907 484.182 494.154 483.293 493.607C483.225 493.539 483.225 493.06 483.293 493.06C484.182 492.718 485.002 492.445 485.891 492.24C486.438 492.103 486.984 492.034 487.121 492.992C487.19 493.334 488.01 493.539 488.488 493.812C490.129 494.702 491.838 495.385 493.342 496.616C494.846 497.848 496.76 498.326 498.605 498.805C499.289 499.01 500.177 499.079 500.656 499.557C502.912 501.883 506.193 502.84 508.175 505.576C508.996 506.738 510.773 507.422 512.208 507.901C514.806 508.79 516.993 510.363 519.249 511.731C521.163 512.893 523.009 514.124 525.128 514.808C526.769 515.355 528.136 516.586 529.913 516.655C530.528 516.723 531.212 516.792 531.827 516.792C531.896 516.792 532.101 516.313 532.032 516.313C530.187 514.877 528.409 513.44 526.564 512.004C524.991 510.773 522.872 510.363 521.71 508.38C521.027 507.217 519.728 506.396 518.156 506.26C517.951 506.26 517.745 505.918 517.745 505.712C517.745 505.507 518.019 505.234 518.156 505.165C519.454 504.55 520.89 504.071 522.052 503.319C522.667 502.908 522.941 503.045 523.488 503.319C525.265 504.139 526.7 505.439 528.136 506.67C530.187 508.448 532.374 509.405 535.108 508.858C536.544 508.585 537.774 509.132 539.141 509.747C541.602 510.842 543.38 512.346 545.704 512.346ZM230.779 494.36C230.438 494.428 230.096 494.496 229.686 494.565C230.027 494.428 230.369 494.36 230.711 494.291C230.779 494.36 230.779 494.36 230.779 494.36ZM289.225 501.814C289.089 501.746 288.952 501.677 288.815 501.541C288.952 501.609 289.089 501.677 289.294 501.677C289.225 501.814 289.225 501.814 289.225 501.814ZM363.872 494.975C364.009 495.112 364.145 495.249 364.282 495.385C364.077 495.249 363.804 495.112 363.599 495.043C363.667 494.975 363.735 494.975 363.872 494.975Z" fill="#E6E6E6"/>
<path d="M468.732 508.106C467.775 507.08 466.271 506.533 464.972 505.712C464.426 505.371 463.742 505.097 463.332 504.618C461.623 502.225 459.23 500.72 456.769 499.284C456.496 499.079 456.086 499.079 455.744 499.01C455.539 498.942 455.334 499.01 455.197 499.079C455.266 499.284 455.266 499.489 455.334 499.694C455.881 500.994 457.18 501.609 458.068 502.567C458.205 502.703 458.273 503.182 458.137 503.319C458 503.524 457.59 503.661 457.385 503.592C456.018 502.908 454.582 502.361 453.01 502.088C452.19 501.951 451.438 501.199 450.481 501.472C451.096 502.019 451.711 502.567 452.258 503.182C453.352 504.481 454.992 504.823 456.428 505.439C458.478 506.328 460.666 506.67 462.375 508.311C464.494 508.516 465.998 510.431 468.254 510.363C468.937 510.363 469.689 511.252 470.373 511.731C470.715 512.004 471.125 512.278 471.466 512.483C471.74 512.278 471.945 512.141 472.013 512.004C472.082 511.868 472.082 511.526 471.945 511.457C470.851 510.295 469.826 509.2 468.732 508.106Z" fill="#E6E6E6"/>
<path d="M500.109 517.818C498.332 517.134 496.896 516.04 495.324 514.945C493.683 513.851 492.043 512.894 490.334 511.868C490.06 511.731 489.65 511.799 489.309 511.799C489.309 512.141 489.103 512.62 489.24 512.894C489.787 513.988 490.471 515.082 491.564 515.629C493.82 516.655 495.392 518.502 497.306 519.869C499.084 521.032 500.724 522.468 502.843 522.878C503.39 523.015 503.869 523.22 504.415 523.357C504.826 523.152 505.372 522.947 505.372 522.742C505.441 522.331 505.304 521.647 505.031 521.442C503.595 520.143 502.16 518.57 500.109 517.818Z" fill="#E6E6E6"/>
<path d="M552.676 524.041C550.42 523.015 548.233 522.058 545.977 521.032C544.815 520.485 543.653 519.938 542.285 520.211C541.192 520.416 540.371 519.732 539.551 519.117C538.389 518.365 537.295 518.98 537.227 520.348C537.227 520.622 537.637 521.237 537.706 521.237C538.868 520.758 539.414 521.989 540.235 522.195C540.85 522.331 541.465 522.673 542.08 522.605C543.448 522.468 544.541 523.084 545.772 523.631C547.617 524.52 549.668 524.93 551.65 525.546C551.65 525.477 551.719 525.34 551.719 525.272C551.992 525.272 552.334 525.272 552.607 525.135C552.813 525.067 552.949 524.725 552.949 524.52C552.949 524.383 552.812 524.109 552.676 524.041Z" fill="#E6E6E6"/>
<path d="M563.955 516.313C562.998 516.313 561.904 515.903 561.22 515.356C559.921 514.33 558.349 514.877 556.982 514.261C556.572 514.056 555.615 514.877 554.863 515.219C555.136 515.629 555.273 515.903 555.478 516.04C558.281 517.134 561.015 518.228 563.818 519.186C564.843 519.528 565.937 519.596 567.031 519.664C567.373 519.664 567.783 519.186 568.125 518.912C568.193 518.844 567.919 518.365 567.646 518.16C566.552 517.134 565.527 516.382 563.955 516.313Z" fill="#E6E6E6"/>
<path d="M422.591 506.807C421.156 506.944 419.583 506.875 419.105 508.722C417.601 509.406 417.054 511.252 415.208 511.731C414.115 512.005 413.294 513.441 412.337 514.33C412.201 514.467 412.132 514.945 412.201 515.082C412.269 515.219 412.679 515.287 412.953 515.356C413.158 515.356 413.363 515.356 413.636 515.287C414.525 515.356 415.14 514.945 415.687 514.193C417.328 511.868 419.788 510.5 421.908 508.653C422.249 508.38 422.728 508.175 423.001 507.901C423.138 507.764 423.275 507.354 423.206 507.149C423.138 507.012 422.796 506.807 422.591 506.807Z" fill="#E6E6E6"/>
<path d="M442.072 503.182C441.594 503.387 441.184 503.798 440.774 504.14C439.611 505.029 438.381 505.849 437.424 506.944C436.262 508.311 435.373 509.816 434.348 511.321C434.28 511.389 434.348 511.526 434.416 511.731C434.553 511.799 434.758 512.073 434.963 512.073C436.057 512.073 436.877 511.526 437.561 510.705C438.313 509.884 439.201 509.2 439.953 508.38C440.5 507.764 441.184 507.217 441.047 506.191C440.979 505.849 441.525 505.439 441.731 505.029C442.141 504.071 442.277 503.114 442.072 503.182Z" fill="#E6E6E6"/>
<path d="M413.294 506.533C413.089 506.328 412.884 505.918 412.747 505.986C411.517 506.328 410.218 506.533 409.33 507.627C409.193 507.764 409.261 508.175 409.33 508.38C409.33 508.448 409.671 508.585 409.808 508.585C410.833 508.175 411.79 507.764 412.816 507.286C412.953 507.217 413.089 506.875 413.294 506.533Z" fill="#E6E6E6"/>
<path d="M462.717 517.954C462.99 518.023 463.263 518.228 463.537 518.228C463.81 518.228 464.015 518.091 464.289 517.954C464.015 517.818 463.81 517.681 463.537 517.544C463.195 517.749 462.99 517.818 462.717 517.954Z" fill="#E6E6E6"/>
<path d="M504.073 507.354C504.005 507.285 503.8 507.491 503.048 507.901C503.663 508.106 503.936 508.243 504.278 508.311C504.415 508.311 504.552 508.106 504.688 507.969C504.552 507.764 504.346 507.491 504.073 507.354Z" fill="#E6E6E6"/>
<path d="M255.866 521.306C253.2 519.391 250.603 517.681 248.21 515.356C247.116 514.261 245.408 515.971 246.501 517.065C246.98 517.544 247.458 517.954 247.937 518.365C246.98 518.433 246.296 519.938 247.39 520.622C247.595 520.758 247.868 520.895 248.073 521.032C248.142 521.237 248.21 521.511 248.415 521.648C249.236 522.331 250.056 522.947 251.013 523.426C251.286 523.562 251.628 523.562 251.902 523.494C252.585 523.836 253.269 524.246 253.952 524.588C254.978 525.135 255.866 524.178 255.73 523.289C256.413 522.947 256.618 521.853 255.866 521.306Z" fill="#E6E6E6"/>
<path d="M290.113 523.289C289.908 523.152 289.566 523.084 289.293 523.152C288.951 522.947 288.541 522.742 288.199 522.537C287.652 522.263 287.105 521.921 286.559 521.647C285.191 520.895 283.961 522.947 285.328 523.699C286.08 524.11 286.832 524.52 287.584 524.93C288.268 525.341 289.088 525.888 289.908 525.614C290.387 525.477 290.865 524.999 290.797 524.452C290.728 523.973 290.592 523.562 290.113 523.289Z" fill="#E6E6E6"/>
<path d="M278.97 506.67C279.039 506.67 279.107 506.67 279.176 506.602C279.722 506.465 280.064 506.055 280.201 505.507C280.406 504.892 279.927 504.208 279.381 504.003C278.97 503.866 278.629 504.003 278.355 504.208C278.082 504.208 277.74 504.14 277.535 504.208C277.193 504.345 276.92 504.55 276.715 504.892C276.304 504.96 275.894 505.097 275.553 505.165C274.049 505.507 274.664 507.833 276.168 507.491C276.851 507.354 277.603 507.149 278.287 507.012C278.355 507.012 278.492 506.944 278.56 506.944C278.697 506.875 278.834 506.738 278.97 506.67Z" fill="#E6E6E6"/>
<path d="M338.305 510.979C337.895 510.431 337.006 510.568 336.596 510.979C336.528 511.047 336.46 511.115 336.391 511.184C336.323 511.184 336.323 511.115 336.255 511.115C334.956 510.295 333.725 512.346 335.024 513.167C336.391 514.056 337.758 514.945 339.126 515.834C340.356 516.655 341.381 514.945 340.561 513.919C339.877 513.03 339.057 512.004 338.305 510.979Z" fill="#E6E6E6"/>
<path d="M386.225 513.919C386.156 513.851 386.088 513.851 386.02 513.783C385.541 513.304 385.063 512.825 384.584 512.346C383.49 511.252 381.781 512.962 382.875 514.056C383.764 514.945 384.652 515.766 385.541 516.587C385.951 516.997 386.361 517.407 386.771 517.818C386.908 517.954 387.045 518.023 387.25 518.091C388.344 519.049 389.437 519.938 390.531 520.827C390.531 520.827 390.531 520.827 390.599 520.895C390.668 520.964 390.736 521.032 390.873 521.1C391.967 521.921 393.265 520.143 392.308 519.185C390.326 517.27 388.344 515.561 386.225 513.919Z" fill="#E6E6E6"/>
<path d="M654.802 354.98C654.529 355.117 654.187 355.254 653.913 355.459C653.23 356.006 652.478 356.485 651.863 357.169C650.291 358.947 649.47 361.204 647.966 363.051C647.693 363.392 647.283 363.803 647.283 364.213C647.214 364.76 647.488 365.307 647.556 365.855C647.966 365.786 648.445 365.786 648.787 365.581C650.837 364.076 651.316 363.598 652.478 361.409C652.956 360.52 653.435 359.699 654.187 358.947C654.734 358.4 655.007 357.579 655.281 357.169C655.349 356.622 655.417 356.417 655.349 356.28C655.281 355.801 655.007 355.391 654.802 354.98Z" fill="#E6E6E6"/>
<path d="M641.541 412.702C641.336 412.565 640.925 412.633 640.789 412.839C639.832 413.728 638.465 414.548 638.191 415.711C637.713 417.557 635.867 418.105 635.183 419.609C633.338 420.088 633.338 421.661 633.269 423.097C633.269 423.302 633.474 423.644 633.611 423.713C633.816 423.781 634.226 423.644 634.363 423.507C634.636 423.165 634.842 422.755 635.115 422.413C636.961 420.361 638.328 417.831 640.652 416.19C641.404 415.643 641.814 414.959 641.746 414.138C641.746 413.864 641.814 413.659 641.814 413.454C641.746 413.18 641.677 412.77 641.541 412.702Z" fill="#E6E6E6"/>
<path d="M629.579 442.52C629.51 442.725 630.399 442.657 631.424 442.041C631.835 441.836 632.245 441.289 632.586 441.357C633.68 441.562 634.227 440.879 634.774 440.263C635.594 439.511 636.278 438.622 637.098 437.869C637.918 437.117 638.465 436.365 638.465 435.271C638.465 435.065 638.192 434.86 638.123 434.723C637.85 434.723 637.781 434.655 637.713 434.655C636.209 435.681 634.705 436.57 633.338 437.733C632.245 438.69 631.424 439.921 630.536 441.084C630.194 441.562 629.852 442.041 629.579 442.52Z" fill="#E6E6E6"/>
<path d="M644.48 388.15C644.822 388.013 645.232 388.013 645.505 387.808C647.761 386.371 648.376 383.841 649.47 381.653C649.538 381.447 649.402 381.037 649.265 380.9C649.06 380.763 648.65 380.832 648.513 381.037C647.488 382.2 646.462 383.362 645.505 384.593C644.958 385.277 644.548 386.098 644.138 386.85C644.275 387.466 644.343 387.808 644.48 388.15Z" fill="#E6E6E6"/>
<path d="M643.591 348.483C643.113 349.099 642.908 350.056 642.293 350.535C641.472 351.219 642.156 351.561 642.498 351.766C642.771 351.903 643.455 351.834 643.66 351.561C644.207 350.877 644.617 350.056 645.164 349.304C644.89 348.757 644.753 348.415 644.548 348.004C644.207 348.141 643.728 348.21 643.591 348.483Z" fill="#E6E6E6"/>
<path d="M634.773 409.692C634.5 409.624 634.158 409.555 634.021 409.692C632.996 410.581 632.723 411.881 632.381 413.112C632.381 413.249 632.723 413.454 632.928 413.659C633.201 413.454 633.543 413.385 633.68 413.18C634.158 412.223 634.568 411.197 634.978 410.171C635.047 410.103 634.91 409.761 634.773 409.692Z" fill="#E6E6E6"/>
<path d="M641.131 365.991C640.379 365.786 639.9 366.333 639.695 367.017C639.627 367.291 639.627 367.564 639.627 367.906C639.559 368.453 639.49 369.069 639.49 369.616C639.49 369.753 639.9 369.958 640.106 369.958C640.242 369.958 640.516 369.821 640.584 369.753C640.789 369 640.516 368.043 641.336 367.427C641.541 367.291 641.883 366.265 641.131 365.991Z" fill="#E6E6E6"/>
<path d="M628.347 115.956C628.211 116.777 627.459 117.529 627.732 118.487C628.279 117.871 628.826 117.256 629.441 116.709C630.74 115.614 631.082 113.973 631.697 112.537C632.586 110.485 632.928 108.297 634.568 106.587C634.773 104.467 636.687 102.962 636.619 100.705C636.619 100.021 637.508 99.2691 637.986 98.5852C638.259 98.2433 638.533 97.8329 638.738 97.491C638.533 97.2174 638.396 97.0122 638.259 96.9438C638.123 96.8755 637.781 96.8755 637.713 97.0122C636.687 98.1749 635.662 99.2007 634.568 100.295C633.543 101.252 632.996 102.757 632.176 104.056C631.834 104.604 631.56 105.287 631.082 105.698C628.689 107.408 627.185 109.801 625.75 112.263C625.545 112.537 625.545 112.947 625.476 113.289C625.408 113.494 625.476 113.699 625.545 113.836C625.75 113.768 625.955 113.768 626.16 113.699C627.459 113.152 628.074 111.853 629.031 110.964C629.168 110.827 629.646 110.759 629.783 110.895C629.988 111.032 630.125 111.443 630.056 111.648C629.168 112.947 628.621 114.383 628.347 115.956Z" fill="#E6E6E6"/>
<path d="M649.265 65.9629C649.402 65.4158 649.607 64.9371 649.744 64.3899C649.539 63.9796 649.334 63.4325 649.129 63.4325C648.719 63.3641 648.035 63.5009 647.83 63.7744C646.463 65.3474 644.959 66.852 644.139 68.8353C643.455 70.6134 642.361 72.0496 641.268 73.6226C640.174 75.264 639.217 76.9053 638.191 78.6151C638.055 78.8886 638.123 79.299 638.123 79.6409C638.465 79.6409 638.943 79.8461 639.217 79.7093C640.311 79.1622 641.404 78.4783 641.951 77.3841C642.976 75.1272 644.822 73.5542 646.189 71.6393C647.42 69.7928 648.787 68.1514 649.265 65.9629Z" fill="#E6E6E6"/>
<path d="M645.506 29.4426C644.754 30.6052 645.369 31.6994 646.736 31.7678C647.009 31.7678 647.625 31.3575 647.625 31.2891C647.146 30.1265 648.377 29.5794 648.582 28.7587C648.718 28.1432 649.06 27.5276 648.992 26.9121C648.855 25.5443 649.47 24.4501 650.017 23.2191C650.906 21.3725 651.316 19.3208 651.931 17.3375C651.863 17.3375 651.726 17.2691 651.658 17.2691C651.658 16.9955 651.658 16.6536 651.521 16.38C651.453 16.1749 651.111 16.0381 650.906 16.0381C650.769 16.0381 650.496 16.1749 650.427 16.3116C649.402 18.5685 648.445 20.757 647.42 23.0139C646.873 24.1765 646.326 25.3392 646.599 26.707C646.804 27.7328 646.052 28.5535 645.506 29.4426Z" fill="#E6E6E6"/>
<path d="M642.361 13.5078C643.455 10.7038 644.548 7.96818 645.505 5.16418C645.847 4.13833 645.916 3.04409 645.984 1.94984C645.984 1.60789 645.505 1.19755 645.232 0.8556C645.164 0.78721 644.685 1.06077 644.48 1.33433C643.523 2.42858 642.771 3.45443 642.703 5.0274C642.703 5.98487 642.293 7.07911 641.746 7.76301C640.72 9.06243 641.267 10.6354 640.652 12.0032C640.447 12.4135 641.267 13.371 641.609 14.1233C642.019 13.8497 642.293 13.713 642.361 13.5078Z" fill="#E6E6E6"/>
<path d="M638.122 153.845C638.395 154.939 639.831 155.759 640.72 156.717C640.856 156.854 641.335 156.922 641.472 156.854C641.608 156.785 641.677 156.375 641.745 156.101C641.745 155.896 641.745 155.691 641.677 155.418C641.745 154.528 641.335 153.913 640.583 153.366C638.259 151.724 636.891 149.262 635.046 147.142C634.772 146.8 634.567 146.322 634.294 146.048C634.157 145.911 633.747 145.775 633.542 145.843C633.337 145.911 633.2 146.253 633.2 146.458C633.337 147.895 633.268 149.468 635.114 149.946C635.798 151.451 637.643 151.998 638.122 153.845Z" fill="#E6E6E6"/>
<path d="M633.338 131.618C634.705 132.78 636.209 133.669 637.713 134.695C637.781 134.764 637.918 134.695 638.123 134.627C638.192 134.49 638.465 134.285 638.465 134.08C638.465 132.985 637.918 132.165 637.098 131.481C636.278 130.729 635.594 129.839 634.774 129.087C634.159 128.54 633.612 127.856 632.586 127.993C632.245 128.061 631.835 127.514 631.424 127.309C630.399 126.762 629.51 126.625 629.579 126.83C629.784 127.309 630.194 127.719 630.536 128.13C631.424 129.429 632.245 130.729 633.338 131.618Z" fill="#E6E6E6"/>
<path d="M634.021 159.726C634.158 159.863 634.568 159.794 634.773 159.726C634.842 159.726 634.978 159.384 634.978 159.247C634.568 158.221 634.158 157.264 633.679 156.238C633.543 156.033 633.269 155.896 632.928 155.759C632.722 155.964 632.312 156.17 632.381 156.306C632.722 157.537 632.927 158.837 634.021 159.726Z" fill="#E6E6E6"/>
<path d="M644.343 106.313C644.412 106.04 644.617 105.766 644.617 105.493C644.617 105.219 644.48 105.014 644.343 104.74C644.207 105.014 644.07 105.219 643.933 105.493C644.07 105.834 644.207 106.04 644.343 106.313Z" fill="#E6E6E6"/>
<path d="M633.747 64.937C633.679 65.0054 633.884 65.2106 634.294 65.9629C634.499 65.3474 634.636 65.0738 634.704 64.7319C634.704 64.5951 634.499 64.4583 634.363 64.3215C634.158 64.4583 633.884 64.6635 633.747 64.937Z" fill="#E6E6E6"/>
<path d="M659.313 256.293C659.177 255.336 657.878 255.199 657.331 255.746C654.46 258.618 652.136 261.901 650.563 265.663C649.401 268.398 648.649 271.202 647.487 273.801C646.599 275.306 645.71 276.742 644.821 278.246C644.685 278.452 644.48 278.657 644.343 278.794C640.583 282.965 637.917 288.3 636.072 293.839C635.183 295.549 634.294 297.259 633.406 298.969C633.337 298.9 633.337 298.764 633.269 298.695C631.423 296.233 629.099 293.703 627.595 291.035C626.912 289.873 626.638 288.642 626.57 287.342C626.707 287.274 626.843 287.137 626.912 286.932C628.826 283.786 630.74 280.64 632.585 277.426C633.542 275.853 635.525 273.801 635.183 271.818C635.115 271.476 634.841 271.202 634.568 271.065C635.046 270.313 635.388 269.493 635.525 268.467C635.593 268.193 635.525 267.92 635.388 267.714C639.216 261.833 641.198 255.062 645.232 249.317C645.915 248.36 644.548 247.061 643.591 247.676C643.454 247.744 643.386 247.813 643.249 247.881C643.523 247.266 643.864 246.65 644.206 246.103C644.411 245.966 644.548 245.761 644.616 245.419C644.616 245.351 644.616 245.351 644.616 245.282C644.685 244.872 644.616 244.53 644.411 244.257C646.257 240.837 648.444 237.554 650.427 234.272C651.247 232.972 649.128 231.741 648.376 233.041C645.026 238.649 641.062 244.257 639.011 250.548C638.327 252.737 637.712 254.925 636.96 257.114C635.798 255.404 634.773 253.694 633.953 251.848C633.884 251.643 633.747 251.438 633.679 251.301C635.251 250.07 636.413 248.497 637.234 246.719C637.781 245.556 636.277 244.12 635.32 245.282C634.91 245.829 634.431 246.377 634.021 246.855C633.747 246.513 633.269 246.171 633.132 245.829C633.064 245.693 633.064 245.624 633.064 245.488C633.953 245.282 634.158 244.12 633.611 243.504C635.251 241.589 638.122 238.512 636.619 236.05C636.345 235.639 635.935 235.434 635.456 235.503C635.251 235.297 634.978 235.161 634.636 235.161C633.747 232.699 632.175 230.51 630.125 228.8C629.578 228.39 628.962 228.458 628.484 228.8C626.228 225.312 623.836 221.961 621.375 218.679C621.443 215.875 621.443 213.071 621.511 210.267C621.511 210.13 621.511 210.061 621.443 209.925C621.648 209.651 621.785 209.377 621.99 209.036C622.4 209.651 623.494 209.925 624.041 209.036C628.416 202.402 632.79 195.768 637.165 189.134C638.054 187.835 636.003 186.74 635.115 187.903C634.499 188.724 633.816 189.544 633.064 190.365C632.312 189.955 631.628 189.681 630.876 189.476C630.876 189.408 630.945 189.408 630.945 189.339C632.996 186.056 635.046 182.774 637.234 179.559L637.986 179.491C637.917 179.286 637.849 179.081 637.712 178.875C639.011 176.961 640.378 175.114 641.745 173.336C642.019 173.199 642.224 172.926 642.429 172.584C642.497 172.447 642.566 172.378 642.566 172.242C644.001 170.463 645.505 168.754 647.077 167.112C647.761 166.428 647.419 165.403 646.53 165.129C645.984 164.924 645.437 164.855 644.958 164.855C645.642 163.761 646.257 162.599 646.667 161.368C647.214 159.931 644.89 159.316 644.343 160.752C643.591 162.804 642.497 164.582 641.198 166.292C639.626 167.523 638.259 169.438 637.234 171.011C637.234 171.079 637.165 171.079 637.165 171.147C636.413 171.968 635.662 172.857 634.978 173.678C634.499 172.925 633.953 172.173 633.269 171.489C629.919 167.796 627.459 163.351 624.861 159.042C623.631 157.059 621.922 155.281 621.238 152.956C621.101 152.408 620.691 151.998 620.554 151.451C620.349 150.562 620.418 150.152 621.443 150.835C621.717 151.041 622.4 150.767 622.879 150.767C625.339 150.63 626.707 151.519 627.869 153.981C628.005 154.323 628.416 154.529 628.484 154.87C628.621 155.554 629.031 155.76 629.441 155.418C629.851 155.076 629.919 154.46 630.193 153.981C628.962 153.366 629.714 151.93 628.826 150.972C628.142 150.22 627.39 149.399 626.57 148.852C624.861 147.758 624.451 145.706 622.879 144.612C623.084 143.449 623.22 142.287 623.562 141.124C623.767 140.372 624.314 139.619 624.656 138.936C624.793 138.73 624.793 138.457 624.929 138.183C625.066 138.457 625.134 138.662 625.271 138.936C626.433 141.329 628.484 142.834 630.535 144.407C630.74 144.544 631.218 144.544 631.492 144.475C631.56 144.475 631.697 143.928 631.56 143.723C630.398 141.398 630.671 138.594 629.168 136.405C628.279 135.037 627.664 133.533 626.707 132.165C625.408 130.387 623.904 128.745 622.468 127.036C620.623 124.847 618.914 122.522 616.932 120.47C615.906 119.376 614.539 118.555 613.24 117.871C611.873 117.187 611.053 116.025 610.301 114.862C609.959 114.315 609.481 113.836 609.275 113.289C609.002 112.742 608.387 112.4 609.207 111.443C611.805 108.434 614.744 105.835 617.957 103.578C621.17 101.253 624.656 99.2008 627.117 95.8497C627.595 95.1658 628.416 94.7555 628.962 94.2083C629.988 93.2509 631.082 92.2934 631.97 91.1992C632.79 90.1733 633.542 89.0791 634.158 87.9164C634.841 86.5486 635.661 85.1808 635.388 83.4711C635.251 82.7872 635.525 82.1033 635.662 81.351C634.978 81.7613 634.363 82.3084 633.679 82.5136C632.312 82.9239 631.56 84.0182 630.671 85.044C628.074 87.9848 625.408 90.994 622.81 93.9348C622.742 94.0716 622.537 94.0715 622.4 94.1399C622.332 94.0032 622.195 93.798 622.195 93.6612C622.127 93.0457 622.127 92.4986 621.99 91.8831C621.511 89.763 622.058 87.9848 623.562 86.3435C624.177 85.7279 624.451 84.7705 624.793 83.8814C625.476 82.24 626.091 80.5987 627.322 79.2309C628.416 77.9998 628.484 76.3585 628.621 74.8539C628.689 73.9648 628.689 73.2809 629.714 72.8022C630.466 72.4602 630.945 71.6396 631.492 70.9557C631.697 70.6821 631.697 70.2717 631.765 69.9298C631.765 69.7246 631.697 69.5878 631.628 69.3827C631.423 69.4511 631.15 69.5195 631.013 69.6562C629.578 71.2976 627.937 72.8706 626.57 74.5119C624.656 76.974 622.4 79.3677 621.648 82.582C621.443 83.5395 620.691 84.3601 620.144 85.2492C620.076 85.3176 619.597 85.3176 619.597 85.2492C619.256 84.3601 618.982 83.5395 618.777 82.6504C618.64 82.1033 618.572 81.5561 619.529 81.4194C619.871 81.351 620.076 80.5303 620.349 80.0516C621.238 78.4102 621.922 76.7004 623.152 75.1958C624.383 73.6913 624.861 71.7763 625.34 69.9298C625.545 69.2459 625.613 68.3568 626.091 67.8781C628.416 65.6212 629.373 62.3385 632.107 60.3552C633.269 59.5345 633.953 57.7563 634.431 56.3201C635.32 53.7213 636.892 51.5328 638.259 49.2759C639.421 47.361 640.652 45.5145 641.335 43.3944C641.882 41.753 643.112 40.3852 643.181 38.6071C643.249 37.9916 643.318 37.3077 643.318 36.6921C643.318 36.6238 642.839 36.4186 642.839 36.487C641.404 38.3335 639.968 40.1117 638.533 41.9582C637.302 43.5312 636.892 45.6513 634.91 46.8139C633.748 47.4978 632.927 48.7972 632.79 50.3702C632.79 50.507 632.449 50.7805 632.244 50.7805C632.039 50.7805 631.765 50.507 631.697 50.3702C631.082 49.0708 630.603 47.6346 629.851 46.4719C629.441 45.8564 629.578 45.5829 629.851 45.0357C630.671 43.2576 631.97 41.8214 633.201 40.3852C634.978 38.3335 635.935 36.145 635.388 33.4094C635.115 31.9732 635.662 30.7422 636.277 29.3744C637.165 27.3911 638.738 25.6813 638.669 23.2877C639.558 22.6038 637.917 22.1934 638.533 21.4411C639.011 20.894 639.216 20.1417 639.626 19.5262C639.968 19.0475 639.831 18.9107 639.284 18.9107C637.781 18.8423 637.097 19.7314 636.482 20.894C634.363 25.5445 632.175 30.1267 630.535 34.9824C630.193 35.9398 629.578 36.8289 628.894 37.5812C627.527 39.291 626.365 41.0691 625.476 43.0524C624.519 44.9674 624.451 46.5403 625.408 48.6604C626.365 50.8489 627.459 52.9006 628.894 54.8156C629.509 55.6362 629.373 57.0724 628.552 57.6196C626.707 58.8506 625.203 60.3552 624.519 62.5436C624.451 62.7488 624.314 62.8856 624.177 63.0224C622.195 65.0057 620.965 67.331 620.418 70.135C620.076 71.8447 618.982 73.3493 618.025 74.7855C616.863 76.4953 616.521 78.6154 614.949 80.1199C614.061 80.9406 614.471 82.1033 614.881 83.0607C615.564 84.6337 616.453 86.1383 617.137 87.7113C617.82 89.2842 618.64 90.8572 619.051 92.4986C619.392 93.5928 619.666 94.6187 620.554 95.4394C620.896 95.7129 621.238 96.1917 621.17 96.602C621.101 97.0807 620.828 97.6962 620.486 98.1066C619.119 99.8163 617.82 101.663 615.838 102.689C613.582 103.92 612.01 105.903 610.096 107.476C609.412 108.023 608.865 108.775 608.25 109.391C607.703 109.938 607.156 110.554 606.473 111.101C604.559 112.605 605.106 114.52 605.379 116.435C606.404 116.982 606.063 117.94 606.131 118.76C606.336 120.47 607.088 121.906 607.772 123.411C608.934 125.941 610.506 128.335 610.984 131.276C611.121 132.233 611.668 133.328 612.42 134.148C613.719 135.516 614.334 137.431 615.154 139.141C615.496 139.825 615.496 140.645 615.975 141.124C617 142.218 617.068 143.654 616.726 144.612C616.316 145.843 616.59 146.869 616.59 147.963C616.59 148.647 616.932 149.399 616.726 150.015C616.385 150.972 615.564 151.861 615.906 152.887C616.59 154.734 617.342 156.649 618.367 158.358C620.349 161.641 622.537 164.787 624.656 167.933C625.955 169.848 627.322 171.626 628.689 173.473C629.168 174.157 630.33 174.293 630.33 175.319C630.33 175.593 630.33 175.866 630.398 176.14C629.646 176.961 629.099 177.781 628.689 178.807C622.742 187.971 617.41 197.546 612.83 207.531C612.352 208.557 613.377 209.514 614.197 209.378C614.06 209.514 613.924 209.651 613.855 209.788C613.445 209.925 613.035 210.267 613.035 210.745C613.035 210.745 613.035 210.814 612.967 210.814C612.488 211.292 612.557 211.976 612.967 212.523C613.65 213.344 614.334 214.096 614.949 214.917C614.744 215.669 615.428 216.353 616.111 216.353C617 217.379 617.82 218.473 618.64 219.568C618.64 219.636 618.709 219.704 618.709 219.841C618.846 220.115 619.051 220.388 619.324 220.525C623.699 226.27 627.664 232.288 631.218 238.58C631.287 238.649 631.287 238.717 631.355 238.785C630.74 240.016 630.398 241.316 630.193 242.684C630.193 242.957 630.193 243.094 630.261 243.299C630.056 243.504 629.919 243.641 629.783 243.846C629.031 244.872 628.962 245.898 629.168 247.129C629.919 251.711 632.79 256.362 635.456 260.055C635.388 260.191 635.32 260.328 635.251 260.465C633.884 263.406 632.244 266.21 630.603 269.082C627.732 274.075 624.793 279.272 623.767 285.017C623.357 287.274 623.22 289.599 624.382 291.719C626.023 294.729 628.552 297.464 630.603 300.2C631.013 300.747 631.628 300.815 632.107 300.61C629.988 304.85 627.869 309.09 625.886 313.399C623.836 317.776 621.853 322.221 620.008 326.735C618.504 330.36 617 334.19 617.683 338.225C618.435 342.67 621.306 346.842 623.425 350.809C626.023 355.733 628.689 360.657 631.287 365.581C631.423 365.854 631.628 365.991 631.833 366.128C631.013 367.222 630.125 368.248 628.962 369.137C626.843 370.847 626.297 373.446 626.707 376.044C626.98 377.891 627.527 379.738 628.005 381.584C628.689 384.183 629.373 386.85 630.193 389.449C630.74 391.227 630.056 392.868 630.056 394.578C630.056 395.604 628.894 395.809 628.416 396.425C627.048 398.271 625.613 400.049 624.382 401.964C622.195 405.11 620.076 408.256 618.094 411.539C617.068 413.249 616.316 415.095 615.633 417.01C615.291 418.036 616.111 418.925 616.453 419.883C616.658 420.43 616.316 421.25 616.316 421.934C616.316 423.029 616.043 424.123 616.453 425.285C616.795 426.243 616.658 427.748 615.701 428.773C615.223 429.252 615.223 430.141 614.881 430.757C614.06 432.466 613.445 434.381 612.146 435.749C611.326 436.638 610.848 437.664 610.711 438.622C610.232 441.562 608.729 443.888 607.498 446.486C606.815 447.991 606.063 449.496 605.858 451.137C605.789 451.753 605.926 452.368 605.652 452.915C604.695 452.984 604.08 453.667 604.149 454.83C604.217 455.446 604.49 456.198 604.901 456.882C605.037 457.566 605.447 458.25 606.199 458.865C606.336 458.934 606.473 459.07 606.61 459.207C607.43 460.165 608.318 461.054 608.865 461.737C611.189 464.473 613.719 467.004 616.18 469.602C616.385 469.808 616.521 470.013 616.726 470.149C615.975 469.602 614.539 470.218 614.812 471.449C615.223 473.706 615.906 475.826 616.863 477.878C617.342 478.903 619.256 478.425 619.119 477.262C619.119 477.194 619.119 477.194 619.119 477.125C619.734 476.715 620.008 475.894 619.392 475.279C619.187 475.074 619.051 474.868 618.914 474.663C618.846 473.979 618.777 473.295 618.709 472.68C618.64 471.996 617.957 471.517 617.342 471.517C617.273 471.244 617.205 471.039 617.205 470.765C617.205 470.56 617.137 470.423 617.068 470.286C618.025 471.312 618.982 472.406 619.939 473.501C620.281 473.911 622.879 476.852 623.562 478.22C623.289 478.561 623.22 479.109 623.494 479.519C623.836 480.066 624.177 480.34 624.861 480.34C625.408 480.34 625.886 479.929 626.023 479.451C626.502 477.672 624.793 475.894 623.836 474.595C622.195 472.338 620.349 470.218 618.504 468.235C616.521 466.114 614.539 464.131 612.557 461.943C611.395 460.643 610.232 459.344 609.207 457.976C609.07 457.771 608.865 457.566 608.729 457.361C608.729 457.019 609.002 456.745 609.207 456.403C609.481 455.856 609.891 455.377 610.232 454.83C610.984 453.599 611.805 452.505 613.172 451.821C614.539 451.137 615.838 450.316 616.863 449.222C618.846 447.17 620.554 444.845 622.4 442.657C623.836 440.947 625.339 439.305 626.638 437.527C627.595 436.228 628.211 434.655 629.099 433.287C630.603 431.099 630.398 428.295 631.492 425.969C631.628 425.764 631.492 425.217 631.423 425.217C631.082 425.149 630.671 425.08 630.466 425.285C628.416 426.858 626.365 428.431 625.203 430.757C625.066 431.03 624.998 431.235 624.861 431.509C624.793 431.235 624.724 431.03 624.588 430.757C624.246 430.004 623.699 429.321 623.494 428.568C623.152 427.474 623.015 426.243 622.81 425.08C624.451 423.986 624.861 421.934 626.502 420.84C627.322 420.293 628.074 419.541 628.757 418.72C629.646 417.763 628.826 416.326 630.125 415.711C629.919 415.232 629.783 414.617 629.373 414.275C628.962 413.933 628.552 414.138 628.416 414.822C628.347 415.164 627.937 415.369 627.8 415.711C626.638 418.173 625.271 419.062 622.81 418.925C622.332 418.925 621.648 418.583 621.375 418.857C620.349 419.541 620.281 419.13 620.486 418.241C620.623 417.694 620.965 417.284 621.17 416.737C621.853 414.411 623.562 412.702 624.793 410.65C627.39 406.41 629.851 401.964 633.201 398.203C635.388 395.809 636.687 393.005 637.781 390.201C638.396 388.56 639.421 387.124 639.558 385.277C641.198 384.115 641.13 381.994 642.019 380.421C643.318 377.823 645.026 375.292 644.89 372.351C645.026 371.257 645.095 370.368 645.163 369.479C645.163 369.342 645.026 369.137 644.958 369C644.821 369.137 644.616 369.206 644.48 369.411C644.275 369.684 644.138 370.026 643.933 370.368C640.583 375.292 637.507 380.49 635.32 386.098C635.183 386.44 634.773 386.645 634.499 386.85C634.363 386.577 634.294 386.235 634.158 386.03C633.201 384.388 633.337 382.61 633.474 380.832C633.542 379.874 633.816 379.19 634.636 378.643C636.208 377.549 637.439 376.25 638.327 374.472C638.874 373.377 638.533 372.693 638.054 371.873C637.644 371.12 637.302 371.189 636.687 371.941C634.773 374.266 634.499 374.472 632.654 374.882C631.902 375.087 631.56 374.677 631.765 373.924C631.833 373.719 631.765 373.446 631.902 373.377C633.406 372.146 633.269 370.368 633.474 368.658C633.542 368.18 633.611 367.496 633.953 367.427C635.32 366.812 635.456 365.307 636.208 364.281C636.892 363.324 637.576 362.298 637.986 361.272C638.327 360.246 638.327 359.084 638.464 357.99C637.439 358.331 636.824 359.084 636.413 359.973C636.277 360.246 636.208 360.452 636.003 360.657C635.388 361.409 634.841 362.161 634.363 362.982C634.841 356.964 630.261 352.723 627.664 347.526C625.886 343.97 625.476 340.003 624.519 336.173C624.109 334.532 623.631 333.506 623.836 332.275C623.972 332.275 624.041 332.206 624.177 332.138C627.117 330.565 627.527 327.214 629.714 324.82C631.902 322.427 635.115 322.427 637.097 319.896C639.284 317.092 642.292 315.314 644.275 312.305C646.599 308.68 648.034 303.961 652.546 302.457C653.981 301.978 653.366 299.653 651.931 300.131C649.812 300.747 647.898 301.773 646.394 303.414C644.958 304.919 644.206 307.176 642.566 308.407C642.429 308.338 642.224 308.338 642.087 308.407C642.019 307.928 641.95 307.449 642.019 306.97C642.019 306.013 640.993 305.534 640.241 305.945C640.036 306.081 639.763 306.218 639.558 306.355V306.286C640.857 303.004 638.738 301.636 636.345 302.046C636.96 301.089 637.576 300.131 637.986 299.037C639.558 295.002 639.9 289.668 644.206 287.411C644.958 287 644.958 285.769 644.206 285.359C644.138 285.222 644.069 285.017 644.001 284.88C644.001 284.744 644.001 284.675 644.001 284.538C644.821 283.102 645.71 281.598 646.53 280.161C646.804 279.819 647.146 279.477 647.419 279.067C648.444 277.699 649.196 276.195 649.812 274.622C652.477 270.245 655.28 265.868 658.083 261.628C658.22 261.491 658.22 261.286 658.288 261.149C659.177 259.576 659.587 258.071 659.313 256.293ZM621.306 205.206C621.443 205.069 621.58 204.932 621.717 204.795C621.58 205.001 621.443 205.274 621.375 205.479C621.375 205.411 621.375 205.342 621.306 205.206ZM628.211 279.888C628.142 280.025 628.074 280.161 627.937 280.298C628.005 280.161 628.074 280.025 628.074 279.819C628.211 279.819 628.211 279.888 628.211 279.888ZM620.76 338.362C620.828 338.703 620.896 339.045 620.965 339.456C620.828 339.114 620.76 338.772 620.691 338.43C620.691 338.361 620.76 338.362 620.76 338.362Z" fill="#E6E6E6"/>
<path d="M647.009 321.674C647.146 321.469 647.283 321.196 647.42 320.99C647.625 320.922 647.898 320.854 648.035 320.648C648.718 319.828 649.334 319.007 649.812 318.05C649.949 317.776 649.949 317.434 649.881 317.161C650.222 316.477 650.633 315.793 650.974 315.109C651.521 314.083 650.564 313.194 649.675 313.331C649.197 312.784 648.172 312.51 647.556 313.331C645.642 315.998 643.933 318.597 641.609 320.99C640.515 322.085 642.224 323.794 643.318 322.7C643.797 322.221 644.207 321.743 644.617 321.264C644.822 322.153 646.326 322.768 647.009 321.674Z" fill="#E6E6E6"/>
<path d="M648.035 282.487C647.283 283.854 649.333 285.085 650.085 283.718C650.495 282.965 650.906 282.213 651.316 281.461C651.726 280.777 652.273 279.956 651.999 279.135C651.863 278.657 651.384 278.178 650.837 278.246C650.359 278.315 649.88 278.451 649.675 278.93C649.538 279.135 649.47 279.477 649.538 279.751C649.333 280.093 649.128 280.503 648.923 280.845C648.65 281.392 648.308 281.939 648.035 282.487Z" fill="#E6E6E6"/>
<path d="M630.672 291.582C630.808 291.924 631.013 292.198 631.355 292.403C631.424 292.813 631.56 293.224 631.629 293.566C631.97 295.07 634.295 294.455 633.953 292.95C633.816 292.266 633.611 291.514 633.474 290.83C633.474 290.762 633.406 290.625 633.406 290.557C633.338 290.42 633.269 290.283 633.133 290.146C633.133 290.078 633.133 290.009 633.064 289.941C632.927 289.394 632.517 289.052 631.97 288.915C631.355 288.71 630.672 289.189 630.466 289.736C630.33 290.146 630.466 290.488 630.672 290.762C630.672 291.035 630.603 291.377 630.672 291.582Z" fill="#E6E6E6"/>
<path d="M639.627 233.998C640.515 232.63 641.404 231.262 642.293 229.894C643.113 228.663 641.404 227.637 640.379 228.458C639.353 229.279 638.396 230.031 637.371 230.852C636.824 231.262 636.961 232.151 637.371 232.561C637.439 232.63 637.508 232.698 637.576 232.767C637.576 232.835 637.508 232.835 637.508 232.903C636.687 234.066 638.807 235.297 639.627 233.998Z" fill="#E6E6E6"/>
<path d="M645.573 176.755C643.728 178.67 641.95 180.722 640.31 182.842C640.242 182.91 640.242 182.979 640.173 183.047C639.695 183.526 639.216 184.005 638.738 184.483C637.644 185.577 639.353 187.287 640.447 186.193C641.335 185.304 642.156 184.415 642.976 183.526C643.386 183.115 643.796 182.705 644.206 182.295C644.343 182.158 644.411 182.021 644.48 181.816C645.437 180.722 646.325 179.628 647.214 178.533C647.214 178.533 647.214 178.533 647.282 178.465C647.351 178.396 647.419 178.328 647.487 178.191C648.308 177.165 646.462 175.798 645.573 176.755Z" fill="#E6E6E6"/>
<path d="M613.308 470.286C610.847 470.833 604.969 470.697 604.627 474.048C604.353 476.578 604.9 479.314 604.764 481.844C604.695 483.007 604.558 484.101 604.422 485.264C604.08 485.469 603.807 485.742 603.738 486.289C603.601 488.136 603.396 489.983 603.26 491.829C603.123 493.197 605.31 493.47 605.652 492.171C606.404 488.957 606.883 485.674 607.156 482.323C607.908 485.058 608.523 487.794 609.002 490.598C609.275 491.966 611.394 491.624 611.394 490.256C611.394 487.042 611.531 483.759 611.326 480.545C611.189 478.835 610.779 477.604 609.412 476.578C608.933 476.236 608.455 476.373 608.113 476.646C607.908 475.894 607.635 475.21 607.43 474.458C607.498 474.321 607.635 474.116 607.84 473.979C608.25 473.637 609.07 473.364 609.959 473.159C610.164 473.774 610.916 474.321 611.736 473.979C612.761 473.501 613.513 473.09 614.402 472.406C615.291 471.722 614.744 470.013 613.308 470.286Z" fill="#E6E6E6"/>
<path d="M595.331 490.393C594.511 489.778 593.622 490.667 593.554 491.419C593.485 491.966 593.417 492.581 593.417 493.129C591.024 492.513 588.905 490.461 586.855 489.094C585.556 488.205 584.394 490.256 585.624 491.145C588.427 493.129 590.888 495.454 594.442 495.727C595.126 495.796 595.604 495.112 595.673 494.496C595.673 494.291 595.741 494.086 595.741 493.881C596.151 494.291 596.493 494.77 596.835 495.249C597.723 496.548 599.774 495.317 598.886 494.018C597.86 492.581 596.766 491.419 595.331 490.393Z" fill="#E6E6E6"/>
<path d="M589.999 503.934C588.085 502.498 586.102 501.541 583.846 500.789C581.522 499.489 579.198 498.121 576.942 496.617C575.643 495.728 574.413 497.848 575.712 498.668C577.831 500.105 580.018 501.404 582.274 502.703C582.411 502.84 582.548 502.909 582.753 502.977C582.821 502.977 582.821 502.977 582.889 503.045C584.803 504.071 586.786 505.097 588.768 505.986C590.204 506.67 591.229 504.892 589.999 503.934Z" fill="#E6E6E6"/>
<path d="M642.019 457.976C639.148 458.865 636.414 459.959 633.816 461.327C633.68 460.78 633.064 460.233 632.313 460.37C632.039 460.438 631.766 460.506 631.561 460.575C631.287 460.028 630.604 459.617 629.852 459.959C628.484 460.506 625.819 461.054 625.203 462.49C624.998 462.969 624.998 463.584 625.408 463.926C625.477 463.994 625.613 464.063 625.682 464.131C624.52 464.815 623.426 465.431 622.264 466.115C620.897 466.867 622.127 468.987 623.494 468.166C624.862 467.346 626.229 466.593 627.664 465.773C627.733 466.593 628.553 467.277 629.442 466.73C633.611 463.926 637.986 461.737 642.771 460.233C644.138 459.823 643.523 457.497 642.019 457.976Z" fill="#E6E6E6"/>
<path d="M653.435 483.486C647.488 483.828 641.404 483.759 635.457 484.443C632.449 484.785 629.715 486.358 630.467 489.777C630.808 491.282 633.064 490.667 632.791 489.162C632.654 488.683 632.859 488.273 633.269 487.931C633.406 488.068 633.543 488.205 633.748 488.41C634.431 489.094 635.457 488.752 635.73 487.863C636.277 487.999 636.619 488.341 636.824 488.888C637.371 489.709 638.806 489.709 639.011 488.615C639.627 485.811 643.181 488.752 644.753 487.315C645.027 487.042 645.232 486.7 645.232 486.358C647.966 486.221 650.632 486.084 653.366 485.948C655.007 485.811 655.007 483.417 653.435 483.486Z" fill="#E6E6E6"/>
</g>
<path d="M556.718 65.8765L556.718 0.855591L558.429 0.855591L558.429 65.8765L556.718 65.8765Z" fill="#E6E6E6"/>
<path d="M556.718 394.403L556.718 329.382L558.429 329.382L558.429 394.403L556.718 394.403Z" fill="#E6E6E6"/>
<path d="M568.695 394.403L568.695 329.382L570.406 329.382L570.406 394.403L568.695 394.403Z" fill="#E6E6E6"/>
<path d="M568.695 65.8765L568.695 0.855591L570.406 0.855591L570.406 65.8765L568.695 65.8765Z" fill="#E6E6E6"/>
<path d="M2.32898 435.469H139.215V437.18H2.32898V435.469Z" fill="#E6E6E6"/>
<path d="M378.766 435.469H515.652V437.18H378.766V435.469Z" fill="#E6E6E6"/>
<path d="M2.32898 447.446H139.215V449.157H2.32898V447.446Z" fill="#E6E6E6"/>
<path d="M378.766 447.446H515.652V449.157H378.766V447.446Z" fill="#E6E6E6"/>
<path d="M150.998 449.158H152.504L158.809 435.606H157.332L153.247 444.461L149.238 435.606H147.704L152.523 445.948L150.998 449.158Z" fill="#969696"/>
<path d="M160.056 449.158C162.597 449.807 163.114 447.925 163.5 445.506C163.999 442.316 164.14 439.53 164.31 436.933H170.144V449.158H171.528V435.606H162.973C162.823 439.022 162.625 441.902 162.154 444.857C161.722 447.614 161.439 448.056 160.056 447.925V449.158Z" fill="#969696"/>
<path d="M176.303 449.158H177.912V447.548H176.303V449.158Z" fill="#969696"/>
<path d="M188.351 449.158H193.584C193.847 449.158 194.195 449.139 194.534 449.092C196.623 448.809 197.837 447.097 197.837 445.017C197.837 442.937 196.623 441.224 194.534 440.942C194.195 440.895 193.838 440.876 193.584 440.876H189.734V436.933H196.717V435.606H188.351V449.158ZM189.734 447.831V442.203H193.546C193.772 442.203 194.101 442.222 194.383 442.278C195.776 442.551 196.416 443.756 196.416 445.017C196.416 446.278 195.776 447.482 194.383 447.755C194.101 447.812 193.772 447.831 193.546 447.831H189.734Z" fill="#969696"/>
<path d="M203.879 449.158H205.385L211.69 435.606H210.213L206.129 444.461L202.12 435.606H200.586L205.404 445.948L203.879 449.158Z" fill="#969696"/>
<path d="M213.705 449.158H215.389L219.219 443.464L223.059 449.158H224.734L220.048 442.297L224.621 435.606H222.937L219.219 441.139L215.502 435.606H213.827L218.401 442.297L213.705 449.158Z" fill="#969696"/>
<path d="M232.489 449.158H233.872V436.933H238.606V435.606H227.755V436.933H232.489V449.158Z" fill="#969696"/>
<path d="M250.419 449.158H251.859L247.191 435.606H245.356L240.688 449.158H242.128L243.267 445.873H249.28L250.419 449.158ZM243.709 444.574L246.26 437.159L248.829 444.574H243.709Z" fill="#969696"/>
<path d="M255.441 449.158H256.824V444.01H260.673C260.927 444.01 261.285 443.991 261.624 443.934C263.732 443.615 264.927 441.921 264.927 439.812C264.927 437.695 263.741 436.01 261.624 435.681C261.285 435.625 260.937 435.606 260.673 435.606H255.441V449.158ZM256.824 442.692V436.933H260.635C260.861 436.933 261.191 436.952 261.473 437.008C262.866 437.309 263.506 438.551 263.506 439.812C263.506 441.074 262.866 442.316 261.473 442.608C261.191 442.673 260.861 442.692 260.635 442.692H256.824Z" fill="#969696"/>
<path d="M268.682 449.158H270.009V438.693L274.827 449.158H275.721L280.549 438.693V449.148H281.867V435.606H280.577L275.279 447.002L269.953 435.606H268.682V449.158Z" fill="#969696"/>
<path d="M296.639 449.158V435.606H295.246L287.783 446.711V435.606H286.39V449.158H287.783L295.246 438.043V449.158H296.639Z" fill="#969696"/>
<path d="M301.157 449.158H302.541V443.04H310.032V449.158H311.406V435.606H310.032V441.713H302.541V435.606H301.157V449.158Z" fill="#969696"/>
<path d="M321.411 449.44C324.554 449.44 326.577 447.699 327.321 444.988L325.909 444.621C325.335 446.758 323.839 448.113 321.411 448.113C318.23 448.113 316.611 445.77 316.63 442.382C316.658 438.994 318.23 436.65 321.411 436.65C323.839 436.65 325.335 438.006 325.909 440.142L327.321 439.775C326.577 437.065 324.554 435.323 321.411 435.323C317.364 435.323 315.171 438.213 315.171 442.382C315.171 446.551 317.364 449.44 321.411 449.44Z" fill="#969696"/>
<path d="M331.279 449.158H332.663V442.382L339.326 449.158H341.133L334.3 442.146L340.615 435.606H338.846L332.663 442.005V435.606H331.279V449.158Z" fill="#969696"/>
<path d="M353.127 449.158H354.567L349.899 435.606H348.064L343.396 449.158H344.836L345.975 445.873H351.988L353.127 449.158ZM346.417 444.574L348.967 437.159L351.536 444.574H346.417Z" fill="#969696"/>
<path d="M362.148 435.606C361.884 435.606 361.546 435.625 361.197 435.681C359.08 436.01 357.894 437.695 357.894 439.812C357.894 441.591 358.732 443.059 360.256 443.671L357.584 449.158H359.174L361.668 444.01H366.006V449.158H367.38V435.606H362.148ZM366.006 442.692H362.186C361.96 442.692 361.64 442.673 361.348 442.608C359.965 442.316 359.325 441.074 359.325 439.812C359.325 438.551 359.965 437.309 361.348 437.008C361.64 436.952 361.96 436.933 362.186 436.933H366.006V442.692Z" fill="#969696"/>
<path d="M570.406 317.403L570.406 316.019L563.63 316.019L570.406 309.356L570.406 307.55L563.395 314.382L556.854 308.067L556.854 309.836L563.254 316.019L556.854 316.019L556.854 317.403L570.406 317.403Z" fill="#969696"/>
<path d="M570.406 302.058L570.406 300.553L556.854 294.247L556.854 295.725L565.71 299.809L556.854 303.818L556.854 305.352L567.197 300.534L570.406 302.058Z" fill="#969696"/>
<path d="M570.406 293.001C571.056 290.46 569.173 289.942 566.755 289.556C563.564 289.057 560.779 288.916 558.181 288.747L558.181 282.912L570.406 282.912L570.406 281.529L556.854 281.529L556.854 290.083C560.271 290.234 563.15 290.431 566.105 290.902C568.863 291.335 569.305 291.617 569.173 293.001L570.406 293.001Z" fill="#969696"/>
<path d="M570.406 277.026L570.406 271.794C570.406 271.53 570.387 271.182 570.331 270.834C570.002 268.726 568.317 267.54 566.2 267.54C564.091 267.54 562.398 268.726 562.078 270.834C562.021 271.182 562.002 271.53 562.002 271.794L562.002 275.643L556.854 275.643L556.854 277.026L570.406 277.026ZM569.079 275.643L563.32 275.643L563.32 271.831C563.32 271.605 563.339 271.276 563.404 270.984C563.696 269.601 564.938 268.961 566.2 268.961C567.461 268.961 568.703 269.601 569.004 270.984C569.06 271.276 569.079 271.605 569.079 271.831L569.079 275.643Z" fill="#969696"/>
<path d="M572.665 264.222L572.665 262.839L570.406 262.839L570.406 253.155L572.665 253.155L572.665 251.781L569.079 251.781L569.079 252.75L556.854 252.75L556.845 261.107C559.819 261.267 561.927 261.342 564.421 261.606C566.717 261.85 569.079 262.114 569.079 264.222L572.665 264.222ZM569.079 261.578C568.289 260.702 566.999 260.476 564.835 260.26C562.473 260.025 560.459 259.931 558.172 259.818L558.181 254.134L569.079 254.134L569.079 261.578Z" fill="#969696"/>
<path d="M570.406 248.961L570.406 247.183L563.696 241.461L570.406 241.461L570.406 240.077L563.696 240.077L570.406 234.346L570.406 232.577L563.395 238.581L556.854 233.094L556.854 234.835L563.188 240.077L556.854 240.077L556.854 241.461L563.188 241.461L556.854 246.703L556.854 248.444L563.395 242.957L570.406 248.961Z" fill="#969696"/>
<path d="M570.406 218.938L556.854 218.938L556.854 220.331L567.959 227.794L556.854 227.794L556.854 229.187L570.406 229.187L570.406 227.794L559.292 220.331L570.406 220.331L570.406 218.938Z" fill="#969696"/>
<path d="M570.406 214.419L570.406 213.036L564.289 213.036L564.289 205.545L570.406 205.545L570.406 204.171L556.854 204.171L556.854 205.545L562.962 205.545L562.962 213.036L556.854 213.036L556.854 214.419L570.406 214.419Z" fill="#969696"/>
<path d="M570.689 194.166C570.689 191.023 568.947 188.999 566.237 188.256L565.87 189.667C568.006 190.242 569.362 191.738 569.362 194.166C569.362 197.347 567.018 198.965 563.63 198.947C560.242 198.918 557.899 197.347 557.899 194.166C557.899 191.738 559.254 190.242 561.391 189.667L561.024 188.256C558.313 188.999 556.572 191.023 556.572 194.166C556.572 198.213 559.461 200.405 563.63 200.405C567.799 200.405 570.689 198.213 570.689 194.166Z" fill="#969696"/>
<path d="M570.406 184.297L570.406 182.914L563.63 182.914L570.406 176.251L570.406 174.444L563.395 181.276L556.854 174.962L556.854 176.731L563.254 182.914L556.854 182.914L556.854 184.297L570.406 184.297Z" fill="#969696"/>
<path d="M570.406 160.991L556.854 160.991L556.854 162.384L567.959 169.847L556.854 169.847L556.854 171.24L570.406 171.24L570.406 169.847L559.292 162.384L570.406 162.384L570.406 160.991Z" fill="#969696"/>
<path d="M555.65 151.24C555.65 149.894 554.568 148.812 553.222 148.812L553.222 149.96C553.928 149.96 554.502 150.525 554.502 151.24C554.502 151.946 553.928 152.52 553.222 152.52L553.222 153.668C554.568 153.668 555.65 152.586 555.65 151.24ZM570.406 156.472L570.406 155.08L559.292 147.617L570.406 147.617L570.406 146.224L556.854 146.224L556.854 147.617L567.959 155.08L556.854 155.08L556.854 156.472L570.406 156.472Z" fill="#969696"/>
<path d="M570.406 132.451L570.406 131.067L558.181 131.067L558.181 126.334L556.854 126.334L556.854 137.185L558.181 137.185L558.181 132.451L570.406 132.451Z" fill="#969696"/>
<path d="M570.406 122.942L570.406 121.559L565.258 121.559L565.258 117.71C565.258 117.456 565.24 117.098 565.183 116.759C564.863 114.651 563.169 113.456 561.061 113.456C558.944 113.456 557.259 114.642 556.93 116.759C556.873 117.098 556.854 117.446 556.854 117.71L556.854 122.942L570.406 122.942ZM563.941 121.559L558.181 121.559L558.181 117.748C558.181 117.522 558.2 117.192 558.257 116.91C558.558 115.517 559.8 114.877 561.061 114.877C562.322 114.877 563.564 115.517 563.856 116.91C563.922 117.192 563.941 117.522 563.941 117.748L563.941 121.559Z" fill="#969696"/>
<path d="M570.406 101.279L570.406 99.8389L556.854 104.507L556.854 106.342L570.406 111.01L570.406 109.57L567.122 108.431L567.122 102.417L570.406 101.279ZM565.823 107.989L558.407 105.438L565.823 102.869L565.823 107.989Z" fill="#969696"/>
<path d="M570.406 96.2573L570.406 94.8739L563.63 94.8739L570.406 88.211L570.406 86.4041L563.395 93.2364L556.854 86.9217L556.854 88.6909L563.254 94.8739L556.854 94.8739L556.854 96.2573L570.406 96.2573Z" fill="#969696"/>
<path d="M570.406 79.5953L570.406 78.2119L558.181 78.2119L558.181 73.4782L556.854 73.4782L556.854 84.329L558.181 84.329L558.181 79.5953L570.406 79.5953Z" fill="#969696"/>
<defs>
<clipPath id="clip0">
<rect width="658.764" height="532.144" fill="white" transform="translate(0.61792 0.855469)"/>
</clipPath>
</defs>
</svg>
