<svg width="851" height="450" viewBox="0 0 851 450" fill="none" xmlns="http://www.w3.org/2000/svg">
<g clip-path="url(#clip0)">
<path d="M577.653 424.358C576.599 423.304 575.018 422.777 573.789 421.899C573.262 421.548 572.56 421.196 572.033 420.669C570.276 418.211 567.818 416.63 565.359 415.225C565.007 415.049 564.656 415.049 564.305 414.874C564.129 414.874 563.954 414.874 563.778 414.874C563.778 415.049 563.778 415.225 563.954 415.576C564.481 416.981 565.886 417.508 566.764 418.562C566.939 418.737 566.939 419.089 566.764 419.264C566.588 419.44 566.237 419.616 566.061 419.616C564.656 418.913 563.251 418.386 561.495 418.035C560.617 417.859 559.914 417.157 558.86 417.332C559.563 417.859 560.09 418.386 560.617 419.089C561.67 420.494 563.427 420.845 564.832 421.372C566.939 422.25 569.223 422.601 570.979 424.358C573.086 424.533 574.667 426.465 577.126 426.465C577.829 426.465 578.531 427.343 579.234 427.87C579.585 428.046 579.936 428.397 580.287 428.573C580.639 428.397 580.814 428.222 580.814 428.046C580.814 427.87 580.814 427.519 580.814 427.519C579.76 426.641 578.707 425.412 577.653 424.358Z" fill="#E6E6E6"/>
<path d="M609.969 434.369C608.213 433.666 606.632 432.437 605.052 431.383C603.471 430.329 601.715 429.275 599.958 428.222C599.607 428.046 599.256 428.222 598.904 428.222C598.904 428.573 598.729 429.1 598.904 429.275C599.431 430.329 600.134 431.559 601.363 432.086C603.647 433.139 605.227 435.071 607.335 436.476C609.091 437.706 610.847 439.111 613.131 439.638C613.658 439.813 614.184 439.989 614.711 440.165C615.063 439.989 615.765 439.813 615.765 439.638C615.765 439.111 615.765 438.584 615.414 438.233C613.658 436.828 612.077 435.071 609.969 434.369Z" fill="#E6E6E6"/>
<path d="M657.39 437.706C656.16 437.179 654.931 436.652 653.526 436.828C652.472 437.003 651.594 436.301 650.716 435.774C649.486 434.896 648.433 435.598 648.257 437.003C648.257 437.354 648.608 437.881 648.784 437.881C650.013 437.354 650.54 438.584 651.418 438.935C652.121 439.111 652.648 439.462 653.35 439.286C654.755 439.111 655.809 439.813 657.214 440.34C659.146 441.218 661.254 441.745 663.361 442.272C663.361 442.097 663.361 442.097 663.361 441.921C663.713 441.921 664.064 441.921 664.24 441.745C664.415 441.57 664.591 441.394 664.591 441.043C664.591 440.867 664.415 440.692 664.415 440.516C661.956 439.813 659.673 438.76 657.39 437.706Z" fill="#E6E6E6"/>
<path d="M468.059 438.408C466.127 439.989 463.844 440.867 461.912 442.448C461.209 442.975 460.682 443.853 460.155 444.555C459.98 444.907 459.804 445.082 459.629 445.434C459.98 445.609 460.507 445.961 460.858 446.136C461.034 446.136 461.209 446.136 461.736 446.136C462.263 445.785 462.966 445.609 463.668 444.907C464.371 444.204 465.249 443.677 466.303 443.15C468.586 441.921 469.113 441.394 470.518 439.287C470.693 438.935 470.693 438.408 470.869 438.057C470.342 437.881 469.64 437.706 469.113 437.706C468.937 437.706 468.41 438.057 468.059 438.408Z" fill="#E6E6E6"/>
<path d="M676.007 432.788C674.953 432.788 673.899 432.437 673.197 431.734C671.967 430.681 670.211 431.207 668.806 430.505C668.279 430.329 667.401 431.207 666.523 431.559C666.874 431.91 666.874 432.261 667.225 432.437C670.035 433.491 673.021 434.72 675.831 435.774C676.885 436.125 678.114 436.125 679.168 436.301C679.519 436.301 680.046 435.774 680.222 435.598C680.222 435.598 680.046 435.071 679.695 434.896C678.641 433.666 677.588 432.788 676.007 432.788Z" fill="#E6E6E6"/>
<path d="M530.057 422.953C528.652 423.128 526.895 423.128 526.544 424.885C524.963 425.587 524.437 427.519 522.505 428.046C521.451 428.397 520.573 429.802 519.519 430.68C519.343 430.856 519.343 431.207 519.343 431.559C519.519 431.734 519.87 431.734 520.046 431.734C520.221 431.734 520.397 431.734 520.748 431.734C521.626 431.734 522.329 431.383 522.856 430.505C524.612 428.046 527.071 426.641 529.179 424.709C529.53 424.358 530.057 424.182 530.408 424.006C530.584 423.831 530.759 423.48 530.584 423.304C530.584 423.128 530.232 422.953 530.057 422.953Z" fill="#E6E6E6"/>
<path d="M548.674 420.318C547.445 421.196 546.215 422.075 545.161 423.304C543.932 424.709 543.054 426.29 542 427.87C542 427.87 542 428.046 542 428.397C542.176 428.397 542.351 428.749 542.527 428.749C543.581 428.749 544.459 428.222 545.161 427.344C545.864 426.465 546.918 425.763 547.62 424.885C548.147 424.182 548.85 423.655 548.674 422.602C548.674 422.25 549.201 421.723 549.377 421.372C549.903 420.318 550.079 419.44 549.903 419.44C549.552 419.44 549.201 419.967 548.674 420.318Z" fill="#E6E6E6"/>
<path d="M490.364 435.598C489.135 436.652 487.905 437.706 486.676 438.76C486.5 438.935 486.5 439.287 486.5 439.638C486.676 439.813 487.027 439.989 487.203 439.813C489.486 438.584 492.12 438.057 493.526 435.774C493.701 435.423 493.701 435.071 493.877 434.72C493.526 434.545 493.174 434.545 492.647 434.369C491.945 434.72 491.067 435.071 490.364 435.598Z" fill="#E6E6E6"/>
<path d="M455.062 432.437C454.535 432.964 453.657 433.315 452.954 433.842C452.779 434.017 452.603 434.544 452.428 434.896C452.779 435.071 453.13 435.247 453.833 435.422C454.711 434.896 455.413 434.544 456.116 433.842C456.291 433.666 456.467 432.964 456.291 432.612C456.116 432.261 455.765 431.559 455.062 432.437Z" fill="#E6E6E6"/>
<path d="M520.397 422.777C520.221 422.601 519.87 422.25 519.87 422.25C518.641 422.601 517.236 422.777 516.358 424.006C516.182 424.182 516.358 424.533 516.358 424.884C516.358 425.06 516.709 425.06 516.884 425.06C517.938 424.709 518.992 424.182 520.046 423.655C520.046 423.479 520.221 423.128 520.397 422.777Z" fill="#E6E6E6"/>
<path d="M475.26 430.154C475.26 429.978 475.084 429.451 474.908 429.451C474.382 429.451 473.679 429.451 473.152 429.627C472.801 429.627 472.625 429.627 472.274 429.802C471.571 429.978 471.045 430.505 471.22 431.208C471.396 432.086 472.45 431.734 472.625 431.383C473.328 430.505 474.206 430.856 475.084 430.505C475.084 430.505 475.26 430.329 475.26 430.154Z" fill="#E6E6E6"/>
<path d="M571.33 434.544C571.682 434.72 571.857 434.896 572.208 434.896C572.384 434.896 572.735 434.72 572.911 434.72C572.735 434.544 572.384 434.369 572.208 434.193C571.857 434.193 571.682 434.369 571.33 434.544Z" fill="#E6E6E6"/>
<path d="M614.185 423.48C614.185 423.48 613.833 423.655 613.131 424.007C613.658 424.182 614.009 424.358 614.36 424.358C614.536 424.358 614.712 424.182 614.887 424.007C614.536 424.007 614.36 423.655 614.185 423.48Z" fill="#E6E6E6"/>
<path d="M213.041 418.035C211.461 418.211 210.056 418.913 208.475 419.616C208.299 419.616 207.772 419.616 207.772 419.265C207.597 419.089 207.772 418.562 207.772 418.562C208.651 417.684 210.056 416.981 210.583 415.576C210.583 415.401 210.583 415.225 210.758 414.874C210.583 414.874 210.407 414.698 210.231 414.874C209.88 414.874 209.529 415.049 209.178 415.225C206.543 416.63 204.26 418.211 202.504 420.67C202.152 421.196 201.45 421.548 200.747 421.899C199.518 422.777 197.937 423.304 196.883 424.358C195.829 425.412 194.6 426.641 193.546 427.695C193.371 427.87 193.371 428.046 193.546 428.222C193.546 428.397 193.898 428.397 194.073 428.749C194.424 428.573 194.776 428.222 195.127 428.046C195.829 427.519 196.532 426.641 197.235 426.641C199.518 426.641 201.098 424.709 203.382 424.533C205.138 422.777 207.421 422.426 209.529 421.548C210.934 420.845 212.69 420.67 213.744 419.265C214.271 418.562 214.973 418.035 215.5 417.508C214.622 417.157 213.92 417.859 213.041 418.035Z" fill="#E6E6E6"/>
<path d="M174.578 428.222C172.822 429.275 171.065 430.154 169.485 431.383C167.904 432.437 166.323 433.666 164.567 434.369C162.459 435.247 161.054 436.828 159.298 438.233C158.947 438.408 158.947 439.111 158.947 439.638C158.947 439.813 159.474 439.989 160.001 440.165C160.527 439.989 161.054 439.813 161.581 439.638C163.864 439.111 165.445 437.706 167.377 436.476C169.485 435.071 171.065 433.139 173.349 432.086C174.578 431.559 175.281 430.505 175.807 429.275C175.983 428.924 175.807 428.573 175.807 428.222C175.281 428.222 174.754 428.046 174.578 428.222Z" fill="#E6E6E6"/>
<path d="M123.82 435.774C122.942 436.301 122.064 437.003 121.01 436.828C119.605 436.652 118.376 437.179 117.146 437.706C114.863 438.76 112.58 439.813 110.297 440.867C110.121 440.867 109.946 441.218 110.121 441.394C110.121 441.57 110.297 441.921 110.472 442.096C110.648 442.272 110.999 442.096 111.351 442.272C111.351 442.448 111.351 442.448 111.351 442.623C113.458 441.921 115.566 441.57 117.498 440.691C118.727 440.165 119.781 439.462 121.362 439.638C121.889 439.638 122.591 439.462 123.294 439.286C124.172 439.111 124.699 437.706 125.928 438.233C125.928 438.233 126.455 437.706 126.455 437.354C126.104 435.598 125.05 434.896 123.82 435.774Z" fill="#E6E6E6"/>
<path d="M101.34 431.734C100.637 432.261 99.4076 432.788 98.5295 432.788C96.9488 432.788 95.7194 433.666 94.6656 434.544C94.4899 434.72 94.1387 435.247 94.1387 435.247C94.4899 435.598 94.8412 436.125 95.1925 435.949C96.2463 435.949 97.4757 435.774 98.5295 435.423C101.515 434.369 104.325 433.315 107.135 432.086C107.311 432.086 107.487 431.734 107.838 431.207C106.96 430.856 106.082 429.978 105.555 430.154C104.325 431.383 102.745 430.68 101.34 431.734Z" fill="#E6E6E6"/>
<path d="M252.207 428.046C250.275 427.519 249.749 425.587 248.168 424.885C247.641 422.953 246.06 422.953 244.655 422.953C244.48 422.953 244.128 423.128 243.953 423.304C243.953 423.48 243.953 423.831 244.128 424.006C244.48 424.358 245.006 424.533 245.358 424.709C247.465 426.641 250.1 428.046 251.68 430.505C252.207 431.383 252.91 431.734 253.788 431.734C254.139 431.734 254.315 431.734 254.491 431.734C254.842 431.734 255.193 431.734 255.193 431.559C255.369 431.383 255.193 430.856 255.017 430.68C254.139 429.802 253.261 428.397 252.207 428.046Z" fill="#E6E6E6"/>
<path d="M229.199 423.128C228.146 422.075 226.916 421.196 225.687 420.143C225.336 419.791 224.809 419.44 224.282 419.264C224.106 419.089 224.106 420.143 224.809 421.196C224.984 421.548 225.511 422.075 225.511 422.426C225.336 423.48 226.038 424.006 226.565 424.709C227.268 425.587 228.321 426.29 229.024 427.168C229.726 428.046 230.605 428.573 231.658 428.573C231.834 428.573 232.01 428.397 232.185 428.222C232.185 428.046 232.185 427.87 232.185 427.695C231.307 426.114 230.429 424.533 229.199 423.128Z" fill="#E6E6E6"/>
<path d="M254.666 422.075C254.491 422.075 254.315 422.426 254.139 422.602C254.315 422.953 254.491 423.304 254.666 423.304C255.72 423.831 256.774 424.182 257.828 424.709C258.003 424.709 258.354 424.709 258.354 424.534C258.354 424.358 258.53 423.831 258.354 423.655C257.301 422.777 255.896 422.426 254.666 422.075Z" fill="#E6E6E6"/>
<path d="M201.45 434.544C201.625 434.72 201.977 434.896 202.152 434.72C202.504 434.72 202.679 434.544 203.03 434.369C202.855 434.193 202.504 434.193 202.152 434.018C201.977 434.193 201.625 434.369 201.45 434.544Z" fill="#E6E6E6"/>
<path d="M160.352 423.48C160.176 423.655 159.825 423.831 159.649 424.182C159.825 424.358 160.001 424.534 160.176 424.534C160.528 424.534 160.879 424.358 161.406 424.182C160.703 423.655 160.352 423.48 160.352 423.48Z" fill="#E6E6E6"/>
<path d="M424.502 431.91C422.043 434.193 419.409 436.125 416.599 438.057C415.721 438.584 416.072 439.813 416.599 440.165C416.423 441.043 417.477 442.097 418.355 441.57C419.058 441.218 419.76 440.867 420.463 440.516C420.814 440.516 420.99 440.516 421.341 440.34C422.395 439.813 423.273 439.287 423.975 438.584C424.151 438.408 424.327 438.233 424.327 437.881C424.502 437.706 424.853 437.53 425.029 437.355C426.083 436.652 425.556 435.071 424.502 435.071C425.029 434.72 425.556 434.193 425.907 433.666C427.488 432.437 425.732 430.681 424.502 431.91Z" fill="#E6E6E6"/>
<path d="M384.985 438.408C384.458 438.759 383.931 439.111 383.229 439.286C382.877 439.462 382.526 439.813 382.175 439.989C381.824 439.989 381.648 439.989 381.297 440.165C380.77 440.34 380.594 440.867 380.594 441.394C380.594 441.921 380.946 442.448 381.472 442.623C382.351 442.975 383.053 442.272 383.931 441.921C384.634 441.57 385.512 441.043 386.214 440.691C387.619 439.638 386.39 437.53 384.985 438.408Z" fill="#E6E6E6"/>
<path d="M395.698 423.831C397.279 424.182 397.982 421.723 396.401 421.372C396.05 421.196 395.523 421.196 395.172 421.021C394.996 420.669 394.645 420.494 394.293 420.318C394.118 420.318 393.767 420.318 393.415 420.318C393.064 420.143 392.713 419.967 392.361 420.143C391.835 420.318 391.308 421.021 391.483 421.723C391.659 422.25 392.01 422.601 392.537 422.777H392.713C392.888 422.953 392.888 422.953 393.064 423.128C393.24 423.128 393.24 423.128 393.415 423.304C394.293 423.48 394.996 423.655 395.698 423.831Z" fill="#E6E6E6"/>
<path d="M333.525 427.519C333.349 427.519 333.349 427.519 333.174 427.344C332.647 426.992 331.769 426.817 331.417 427.344C330.539 428.397 329.837 429.451 328.958 430.505C328.08 431.559 329.134 433.315 330.539 432.437C331.944 431.559 333.349 430.681 334.754 429.627C336.159 428.749 334.93 426.641 333.525 427.519Z" fill="#E6E6E6"/>
<path d="M283.821 428.749C283.294 429.276 282.767 429.802 282.416 430.154C282.416 430.154 282.24 430.154 282.24 430.329C280.133 432.086 278.025 433.842 275.918 435.774C274.864 436.652 276.269 438.584 277.498 437.706L277.674 437.53C278.903 436.652 279.957 435.774 281.011 434.72C281.187 434.72 281.362 434.544 281.538 434.369C281.889 434.018 282.416 433.491 282.767 433.139C283.645 432.261 284.699 431.383 285.577 430.505C286.631 429.276 284.875 427.519 283.821 428.749Z" fill="#E6E6E6"/>
<path d="M7.02529 272.963C8.25471 275.246 8.78161 275.773 10.8892 277.178C11.2405 277.354 11.7674 277.354 12.1186 277.53C12.2942 277.003 12.4699 276.3 12.4699 275.773C12.4699 275.422 12.1186 274.895 11.7673 274.544C10.1867 272.612 9.30851 270.329 7.72782 268.397C7.20092 267.694 6.32276 267.167 5.62024 266.64C5.26897 266.465 5.09334 266.289 4.74208 266.114C4.56645 266.465 4.21518 266.992 4.03955 267.343C4.03955 267.519 4.03955 267.694 4.03955 268.221C4.39081 268.748 4.56645 269.451 5.26897 270.153C5.9715 271.207 6.4984 272.085 7.02529 272.963Z" fill="#E6E6E6"/>
<path d="M21.954 328.814C21.6028 327.76 20.1977 326.882 19.3195 325.828C19.1439 325.653 18.7926 325.653 18.4414 325.653C18.2657 325.828 18.2657 326.18 18.2657 326.355C18.2657 326.531 18.2657 326.706 18.2657 327.058C18.2657 327.936 18.617 328.638 19.4952 329.165C21.954 330.922 23.3591 333.38 25.291 335.488C25.6423 335.839 25.8179 336.366 25.9936 336.717C26.1692 336.893 26.5204 337.069 26.6961 336.893C26.8717 336.893 27.0473 336.542 27.0473 336.191C26.8717 334.785 26.8717 333.029 25.1154 332.678C24.2372 331.448 22.4809 330.746 21.954 328.814Z" fill="#E6E6E6"/>
<path d="M26.8717 351.822C25.4667 350.592 23.886 349.714 22.3053 348.66C22.3053 348.66 22.1297 348.66 21.7784 348.66C21.7784 348.836 21.4271 349.012 21.4271 349.187C21.4271 350.241 21.954 351.119 22.8322 351.822C23.7103 352.524 24.4129 353.578 25.291 354.281C25.9936 354.808 26.5204 355.51 27.5742 355.334C27.9255 355.334 28.4524 355.861 28.8037 356.037C29.8575 356.564 30.7356 356.74 30.7356 356.564C30.56 356.037 30.2087 355.686 29.8575 355.159C28.8037 354.105 27.9255 352.7 26.8717 351.822Z" fill="#E6E6E6"/>
<path d="M10.5379 293.161C10.3623 293.336 10.1867 293.688 10.3623 293.863C11.5917 296.147 12.1186 298.781 14.4018 300.186C14.7531 300.362 15.1044 300.362 15.4556 300.537C15.6313 300.186 15.6313 299.835 15.8069 299.308C15.4556 298.605 14.9287 297.727 14.4018 297.025C13.348 295.795 12.2942 294.566 11.2405 293.336C11.0648 292.985 10.7136 292.985 10.5379 293.161Z" fill="#E6E6E6"/>
<path d="M15.2801 259.088C15.1044 259.439 14.9288 259.791 14.7532 260.493C15.2801 261.371 15.6313 262.074 16.3339 262.776C16.5095 262.952 17.212 263.128 17.5633 262.952C17.9145 262.776 18.6171 262.425 17.7389 261.723C17.212 261.196 16.8608 260.318 16.3339 259.615C16.1582 259.264 15.6313 259.264 15.2801 259.088Z" fill="#E6E6E6"/>
<path d="M25.4666 322.843C25.291 322.843 25.291 323.194 25.291 323.37C25.6423 324.423 26.1692 325.477 26.6961 326.531C26.8717 326.707 27.223 326.882 27.3986 327.058C27.5742 326.882 27.9255 326.531 27.9255 326.531C27.5742 325.301 27.3986 323.896 26.1692 323.018C25.9935 322.667 25.6423 322.667 25.4666 322.843Z" fill="#E6E6E6"/>
<path d="M19.4952 281.569C19.4952 281.745 19.8464 281.92 20.0221 281.745C20.1977 281.745 20.7246 281.569 20.7246 281.393C20.7246 280.867 20.7246 280.164 20.5489 279.637C20.5489 279.286 20.5489 279.11 20.3733 278.759C20.1977 278.056 19.6708 277.53 18.9683 277.705C18.0901 277.881 18.4414 278.935 18.7926 279.11C19.4952 279.813 19.1439 280.691 19.4952 281.569Z" fill="#E6E6E6"/>
<path d="M23.886 114.543C24.7641 115.421 25.4667 116.826 26.8717 117.353C27.0474 117.353 27.223 117.353 27.5743 117.529C27.5743 117.353 27.7499 117.178 27.5743 117.002C27.5743 116.651 27.3986 116.3 27.223 115.948C25.8179 113.314 24.2372 111.031 21.7784 109.274C21.2515 108.923 20.9002 108.22 20.549 107.518C19.6708 106.289 19.1439 104.708 18.0901 103.654C17.0363 102.6 15.8069 101.371 14.7531 100.317C14.5775 100.141 14.4019 100.141 14.2262 100.317C14.0506 100.317 14.0506 100.668 13.6993 100.844C13.875 101.195 14.2262 101.546 14.4019 101.898C14.9288 102.425 15.8069 103.303 15.8069 104.005C15.8069 106.289 17.7389 107.869 17.9145 110.152C19.6708 111.909 20.0221 114.192 20.9002 116.3C21.6028 117.705 21.7784 119.461 23.1835 120.515L24.4129 119.812C24.2372 118.231 23.5347 116.826 22.8322 115.246C22.8322 115.07 22.8322 114.543 23.1835 114.543C23.1835 114.368 23.7104 114.368 23.886 114.543Z" fill="#E6E6E6"/>
<path d="M2.98584 27.7811C2.98584 28.308 3.16147 29.0105 3.3371 29.7131C3.51273 30.5912 4.91779 31.1181 4.39089 32.3475C4.39089 32.3475 4.91779 32.8744 5.26905 32.8744C6.6741 32.8744 7.37663 31.8206 6.49847 30.4156C5.97158 29.5374 5.26905 28.6593 5.44468 27.6055C5.62031 26.2004 5.09342 24.971 4.56652 23.7416C3.51273 21.4584 2.63457 19.1751 1.58078 16.8919C1.58078 16.7163 1.22952 16.5407 1.05389 16.7163C0.878254 16.7163 0.52699 16.7163 0.351358 16.8919C0.175727 17.0676 0.351358 17.4188 0.175727 17.7701C9.46969e-05 17.7701 9.46969e-05 17.7701 -0.175537 17.7701C0.52699 19.8777 0.878254 21.9853 1.75641 23.9172C2.63457 25.3223 3.16147 26.3761 2.98584 27.7811Z" fill="#E6E6E6"/>
<path d="M9.83536 14.0818C9.83536 14.2574 10.1866 14.4331 10.7135 14.7843C11.0648 13.9062 11.9429 13.028 11.7673 12.5011C11.0648 11.0961 11.5917 9.33975 10.5379 8.11033C9.83536 7.23217 9.4841 6.17838 9.4841 5.30022C9.4841 3.71953 8.60594 2.49011 7.72778 1.43632C7.37652 1.08506 7.02525 0.909424 6.84962 0.909424C6.49836 1.26069 6.14709 1.61195 6.14709 1.96321C6.14709 3.01701 6.32273 4.24643 6.67399 5.30022C7.55215 8.28596 8.60594 11.0961 9.83536 14.0818Z" fill="#E6E6E6"/>
<path d="M18.09 66.2444C17.9144 66.42 17.7388 66.5956 17.7388 66.7713C17.7388 67.1225 17.9144 67.4738 18.09 68.0007C18.4413 67.2982 18.6169 66.9469 18.6169 66.9469C18.6169 66.7713 18.2657 66.5956 18.09 66.2444Z" fill="#E6E6E6"/>
<path d="M43.5567 384.841C43.7324 384.665 43.908 384.489 44.0836 384.314C46.5425 381.679 49.1769 379.045 51.6358 376.235C52.1627 375.532 53.0408 374.654 53.919 373.6C54.0946 373.425 54.0946 373.425 54.2703 373.249C54.9728 372.722 55.4997 372.02 55.6753 371.317C56.0266 370.614 56.3778 369.912 56.3778 369.209C56.3778 368.156 55.8509 367.277 54.7972 367.277C54.4459 366.751 54.6215 366.048 54.6215 365.346C54.4459 363.589 53.7434 362.009 52.8652 360.603C51.6358 357.969 50.0551 355.51 49.5282 352.524C49.3526 351.471 48.8257 350.417 47.9475 349.539C46.5425 348.134 46.0156 346.202 45.1374 344.445C44.7861 343.743 44.7861 342.865 44.2593 342.338C43.2055 341.284 43.2055 339.703 43.3811 338.65C43.7324 337.42 43.5567 336.366 43.5567 335.137C43.5567 334.434 43.2055 333.556 43.3811 333.029C43.7324 331.975 44.6105 331.097 44.2593 330.044C43.5567 328.112 42.8542 326.18 41.8004 324.423C39.6928 321.086 37.5852 317.749 35.302 314.588C33.897 312.656 32.4919 310.724 31.0869 308.968C30.56 308.265 29.3305 308.09 29.3305 307.036C29.3305 305.279 28.628 303.523 29.1549 301.767C30.0331 299.132 30.7356 296.322 31.4381 293.688C31.965 291.756 32.4919 289.824 32.8432 287.892C33.1944 285.257 32.6675 282.447 30.56 280.691C29.3305 279.813 28.4524 278.759 27.5742 277.53C27.7499 277.354 27.9255 277.354 28.1011 277.003C30.7356 271.909 33.5457 266.816 36.1802 261.723C38.2878 257.683 41.2735 253.292 42.1517 248.726C42.8542 244.511 41.2735 240.647 39.6928 236.783C37.7609 232.217 35.6533 227.65 33.5457 223.084C31.4381 218.693 29.3305 214.302 27.0473 209.911C27.5742 210.087 28.2768 210.087 28.628 209.56C30.7356 206.75 33.3701 203.94 35.1264 200.779C36.3558 198.671 36.1802 196.212 35.6533 193.929C34.5995 187.957 31.6138 182.688 28.628 177.419C26.8717 174.434 25.291 171.624 23.886 168.638C23.886 168.462 23.7103 168.287 23.7103 168.287C26.5204 164.423 29.5062 159.681 30.2087 154.939C30.3843 153.709 30.3843 152.655 29.5062 151.602C29.3305 151.426 29.1549 151.25 28.9793 151.075C28.9793 150.899 29.1549 150.723 29.1549 150.372C28.9793 148.967 28.628 147.562 27.9255 146.333L28.1011 146.157C31.7894 139.659 35.8289 133.512 40.3953 127.54C40.571 127.364 40.9222 127.189 41.0979 126.838C41.0979 126.838 41.0979 126.662 41.2735 126.662C42.1517 125.608 43.0298 124.379 43.908 123.325C44.6105 123.325 45.313 122.622 45.1374 121.744C45.8399 120.866 46.7181 121.042 47.4206 120.164C47.7719 119.812 47.7719 119.11 47.5963 118.407C47.7719 117.002 47.5963 115.773 46.1912 114.543C45.4887 114.016 44.9618 113.489 44.4349 112.787C43.7324 112.084 43.2055 111.382 42.5029 110.855C40.571 109.274 38.9903 107.167 36.5314 105.937C34.4239 104.884 33.1944 102.952 31.7894 101.195C31.4381 100.844 31.0869 100.141 31.0869 99.6146C31.0869 99.2633 31.4381 98.7364 31.7894 98.3852C32.6675 97.507 33.0188 96.4532 33.3701 95.3994C33.897 93.6431 34.5995 92.0624 35.302 90.4817C36.0046 88.901 36.8827 87.3204 37.5852 85.7397C37.9365 84.6859 38.4634 83.4564 37.5852 82.7539C36.0046 81.1732 35.6533 79.0657 34.4239 77.3093C33.3701 75.9043 32.3163 74.3236 31.965 72.5673C31.4381 69.7572 30.2087 67.2983 28.1011 65.1907C27.9255 65.0151 27.7499 64.8395 27.7499 64.6638C27.5742 63.9613 27.223 63.4344 26.8717 62.9075C27.0473 62.3806 27.223 61.8537 27.3986 61.3268C27.3986 61.1512 27.0473 60.9756 26.8717 60.7999C26.5204 60.9756 26.1692 61.1512 26.1692 61.3268C26.1692 61.5025 26.1692 61.5025 25.9935 61.6781C25.291 60.9756 24.4129 60.273 23.5347 59.7462C22.6565 59.2193 22.4809 57.6386 23.1834 56.7604C24.7641 54.8285 25.8179 52.7209 26.8717 50.4377C27.9255 48.3301 27.7499 46.5738 26.8717 44.6418C25.8179 42.5342 24.7641 40.7779 23.3591 39.0216C22.6565 38.1434 21.954 37.2653 21.7784 36.3871C20.0221 31.4694 17.7388 26.7274 15.6313 21.8097C15.1044 20.5803 14.4018 19.7021 12.8212 19.7021C12.2943 19.5265 12.2943 19.7021 12.6455 20.229C12.9968 20.9315 13.348 21.634 13.6993 22.1609C14.4018 22.8635 12.6455 23.3904 13.5237 24.0929C13.5237 26.5517 15.1044 28.3081 15.9825 30.4156C16.6851 31.8207 17.2119 33.0501 16.8607 34.6308C16.3338 37.2653 17.3876 39.5485 19.3195 41.6561C20.549 43.2368 21.954 44.6418 22.8322 46.3981C23.1834 46.925 23.1834 47.2763 22.8322 47.9788C22.1296 49.2082 21.6027 50.6133 20.9002 52.0183C20.7246 52.194 20.549 52.5452 20.3733 52.5452C20.1977 52.5452 19.8464 52.194 19.8464 52.0183C19.6708 50.4377 18.7926 49.0326 17.7388 48.3301C15.8069 47.1007 15.28 44.9931 14.0506 43.2368C12.2943 41.4804 10.7136 39.5485 9.30852 37.6165L8.78162 37.7922C8.78162 38.4947 8.95725 39.1972 8.95725 39.7241C9.13288 41.6561 10.3623 43.0611 10.8892 44.6418C11.5917 46.7494 12.8212 48.6813 14.0506 50.7889C15.4556 53.0721 17.0363 55.3554 18.0901 57.9898C18.617 59.5705 19.3195 61.3268 20.549 62.205C23.3591 64.3126 24.4129 67.6496 26.8717 69.9328C27.3986 70.4597 27.3986 71.3379 27.5742 72.0404C28.1011 73.9723 28.628 75.9043 29.8574 77.485C31.0869 79.0657 31.7894 80.822 32.6675 82.4027C33.0188 82.9296 33.1944 83.8077 33.5457 83.8077C34.4239 83.9833 34.4239 84.5102 34.2482 85.0371C34.0726 85.9153 33.7213 86.7935 33.3701 87.6716H32.8432C32.3163 86.7935 31.6138 85.9153 31.2625 84.8615C30.56 81.5245 28.1011 79.0657 26.1692 76.4312C24.7641 74.6749 23.0078 73.0942 21.6027 71.3378C21.4271 71.1622 21.2515 71.1622 21.0758 70.9866C21.0758 71.1622 20.9002 71.3379 20.9002 71.5135C20.9002 71.8647 20.9002 72.3916 21.0758 72.5673C21.6027 73.2698 22.1296 74.148 22.8322 74.4992C23.886 75.0261 23.886 75.7286 23.886 76.6068C24.0616 78.1875 24.2372 79.9438 25.291 81.1732C26.5204 82.5783 27.223 84.3346 27.9255 85.9153C28.2768 86.7935 28.628 87.8472 29.1549 88.3741C30.7356 89.9548 31.2625 91.8868 30.7356 93.9944C30.56 94.5213 30.56 95.2238 30.56 95.7507C30.56 95.9263 30.3843 96.1019 30.3843 96.2776C30.2087 96.2776 30.0331 96.1019 30.0331 96.1019C27.3986 93.1162 24.5885 89.9548 21.954 86.9691C21.0758 85.9153 20.3733 84.8615 18.7926 84.3346C18.0901 84.159 17.3876 83.6321 16.6851 83.1052C16.6851 83.4564 16.8607 83.8077 16.8607 84.3346C15.9825 83.4565 15.1044 82.4027 14.2262 81.5245L14.0506 81.3489C14.0506 80.9976 14.0506 80.6463 14.0506 80.2951C12.9968 78.5388 12.1186 76.7824 10.8892 75.2017C9.83541 74.4992 8.60599 72.9185 7.90346 71.1622C7.0253 69.0546 5.44462 67.6496 4.03956 65.8933C3.86393 65.542 3.1614 65.542 2.63451 65.542C2.45888 65.542 2.28324 66.0689 2.10761 66.5958C2.28324 67.1227 2.45888 67.6496 2.63451 68.1765C3.1614 70.4597 4.56646 72.0404 5.79588 73.9723C7.20093 76.0799 9.13288 77.6606 10.1867 79.9438C10.7136 80.9976 11.7674 81.7001 12.8212 82.227C12.1186 82.5783 11.7674 83.2808 12.2943 83.9833L12.4699 84.159C13.348 85.3884 14.2262 86.4422 15.28 87.496C15.28 87.6716 15.4556 87.8472 15.6313 88.0229C15.9825 88.3741 16.5094 88.901 16.8607 89.2523C17.2119 89.6036 17.5632 89.9548 17.9145 90.4817C17.9145 90.6574 18.0901 90.6574 18.0901 90.833C18.7926 92.0624 19.4952 93.1162 20.3733 94.17C21.2515 95.2238 22.4809 96.2776 23.5347 97.3314C24.2372 97.8583 24.9397 98.3852 25.4666 99.0877C27.9255 102.425 31.6138 104.708 34.9508 106.991C38.2878 109.45 41.2735 112.084 43.908 115.07C44.7861 115.948 44.0836 116.475 43.908 117.002C43.7324 117.529 43.2055 118.056 42.8542 118.583L39.3416 125.608C36.7071 128.945 34.2482 132.458 31.965 136.146C31.4381 135.795 30.9112 135.619 30.2087 136.146C28.1011 137.902 26.5204 140.186 25.4666 142.644C25.1154 142.644 24.9397 142.82 24.5885 142.996C24.0616 142.996 23.7103 143.171 23.3591 143.523C21.7784 146.157 24.7641 149.143 26.5204 151.25C25.9935 151.953 26.1692 153.007 27.0473 153.358C27.0473 153.534 27.0473 153.534 27.0473 153.709C26.8717 154.06 26.3448 154.412 26.1692 154.763C25.6423 154.236 25.291 153.709 24.7641 153.182C23.886 151.953 22.3053 153.534 22.8322 154.763C23.7103 156.695 24.9397 158.276 26.5204 159.505C26.3448 159.681 26.3448 159.856 26.1692 160.032C25.291 161.964 24.2372 163.72 23.0078 165.477C22.3053 163.193 21.6027 160.91 20.9002 158.803C18.7926 152.304 14.7531 146.508 11.2405 140.712C10.3623 139.307 8.25473 140.537 9.13288 141.942C11.2405 145.279 13.348 148.791 15.28 152.304C15.1044 152.655 14.9287 153.007 15.1044 153.358V153.534C15.1044 153.885 15.28 154.06 15.6313 154.236C15.9825 154.763 16.3338 155.465 16.6851 156.168C16.5094 156.168 16.5094 155.992 16.3338 155.992C15.28 155.29 13.8749 156.695 14.5775 157.749C18.617 163.72 20.7246 170.745 24.7641 176.717C24.5885 176.893 24.5885 177.244 24.5885 177.595C24.7641 178.649 25.1154 179.527 25.6423 180.23C25.291 180.405 25.1154 180.581 24.9397 180.932C24.5885 183.04 26.5204 185.147 27.5742 186.728C29.5062 190.065 31.4381 193.226 33.3701 196.563C33.5457 196.739 33.5457 196.915 33.7213 196.915C33.7213 198.144 33.3701 199.549 32.6675 200.779C31.0869 203.589 28.628 206.047 26.6961 208.682C26.6961 208.858 26.5204 208.858 26.5204 209.033C25.6423 207.277 24.7641 205.521 23.7103 203.764C21.7784 198.144 18.9683 192.524 15.1044 188.309C14.9287 188.133 14.7531 187.957 14.5775 187.782C13.6993 186.201 12.8212 184.796 11.7674 183.215C10.5379 180.581 9.65978 177.595 8.60599 174.785C7.0253 170.921 4.56646 167.584 1.58072 164.598C1.05382 164.071 -0.351233 164.247 -0.526865 165.125C-0.878128 167.057 -0.351233 168.462 0.351294 169.867C0.351294 170.043 0.351294 170.219 0.526926 170.394C3.51267 174.785 6.32278 179.351 9.13288 183.742C9.83541 185.323 10.5379 186.904 11.5917 188.309C11.943 188.66 12.1186 189.011 12.4699 189.362C13.348 190.768 14.2262 192.348 15.1044 193.929C15.1044 194.105 15.1044 194.105 15.1044 194.28C15.1044 194.456 14.9287 194.631 14.9287 194.807C14.0506 195.158 14.0506 196.563 14.9287 196.915C19.4952 199.198 19.8464 204.818 21.4271 208.858C21.954 209.911 22.4809 210.965 23.1834 212.019C20.7246 211.492 18.4414 213.073 19.8464 216.41C19.6708 216.234 19.3195 216.058 19.1439 216.058C18.2657 215.707 17.2119 216.234 17.2119 217.112C17.2119 217.639 17.2119 218.166 17.2119 218.517C17.0363 218.517 16.8607 218.517 16.6851 218.517C15.1044 217.288 14.2262 214.829 12.6455 213.424C11.0648 211.668 9.13288 210.614 6.84967 210.087C5.26898 209.56 4.74209 212.019 6.14714 212.546C10.8892 214.127 12.2943 218.869 14.7531 222.732C16.6851 225.894 19.8464 227.65 22.1296 230.636C24.2372 233.27 27.5742 233.27 29.8574 235.729C32.1407 238.188 32.4919 241.525 35.4777 243.281C35.6533 243.281 35.6533 243.457 35.8289 243.457C36.0046 244.686 35.4777 245.916 35.1264 247.497C34.0726 251.36 33.7213 255.576 31.965 259.264C29.3305 264.708 24.5885 268.924 25.1154 275.246C24.5885 274.368 24.0616 273.666 23.3591 272.963C23.1834 272.788 23.0078 272.436 23.0078 272.261C22.4809 271.382 21.954 270.504 20.9002 270.153C21.0758 271.383 21.0758 272.436 21.4271 273.49C21.7784 274.544 22.4809 275.598 23.1834 276.651C24.0616 277.705 24.0616 279.286 25.4666 279.813C25.8179 279.988 25.8179 280.691 25.9935 281.042C26.1692 282.799 25.9935 284.555 27.5742 285.96C27.7499 286.136 27.5742 286.311 27.7499 286.487C27.9255 287.189 27.5742 287.716 26.8717 287.541C24.9397 287.014 24.5885 286.838 22.6565 284.555C21.954 283.677 21.6027 283.677 21.2515 284.379C20.7246 285.257 20.3733 285.96 21.0758 287.014C21.954 288.946 23.1834 290.175 24.9397 291.405C25.8179 291.931 25.9935 292.634 26.1692 293.688C26.3448 295.62 26.5204 297.376 25.4666 299.132C25.291 299.484 25.291 299.659 25.1154 300.01C24.7641 299.659 24.4129 299.484 24.2372 299.132C21.954 293.336 18.7926 288.068 15.28 282.974C15.1044 282.623 14.9287 282.272 14.7531 282.096C14.5775 281.92 14.4018 281.92 14.2262 281.745C14.2262 281.92 14.0506 282.096 14.0506 282.272C14.0506 283.15 14.2262 284.028 14.4018 285.257C14.2262 288.243 15.9825 290.878 17.3876 293.512C18.2657 295.093 18.2657 297.376 19.8464 298.605C20.0221 300.362 21.0758 301.942 21.7784 303.699C22.8322 306.684 24.2372 309.495 26.5204 311.953C30.0331 315.817 32.4919 320.384 35.1264 324.775C36.3558 326.882 38.1121 328.638 38.8147 331.097C38.9903 331.624 39.3416 332.151 39.5172 332.678C39.6928 333.556 39.6928 334.083 38.639 333.205C38.2878 333.029 37.5852 333.205 37.234 333.381C34.7751 333.556 33.3701 332.678 32.1407 330.044C31.965 329.692 31.6138 329.517 31.4381 329.165C31.2625 328.463 30.9112 328.287 30.3843 328.638C30.0331 328.99 29.8574 329.692 29.6818 330.219C30.9112 330.746 30.2087 332.327 31.0869 333.381C31.7894 334.259 32.4919 334.961 33.3701 335.488C35.1264 336.542 35.4777 338.825 37.234 339.879C37.0583 341.108 36.8827 342.338 36.5314 343.392C36.3558 344.27 35.8289 344.972 35.302 345.675C35.1264 345.85 35.1264 346.202 35.1264 346.377C34.9508 346.202 34.9508 345.85 34.7751 345.675C33.5457 343.216 31.4381 341.635 29.3305 340.055C29.1549 339.879 28.628 339.879 28.2768 340.055C28.1011 340.055 28.1011 340.581 28.2768 340.933C29.5062 343.392 29.1549 346.202 30.7356 348.485C31.6138 349.89 32.3163 351.471 33.3701 352.876C34.7751 354.808 36.1802 356.388 37.7609 358.145C39.6928 360.428 41.4491 362.711 43.3811 364.994C44.4349 366.048 45.8399 366.926 47.245 367.629C48.65 368.331 49.5282 369.561 50.2307 370.79C50.582 371.317 51.1089 371.844 51.2845 372.371C51.4602 372.722 51.8114 373.073 51.8114 373.425C51.6358 373.6 51.4602 373.951 51.2845 374.127C50.2307 375.532 49.0013 376.937 47.7719 378.167C45.8399 380.45 43.7324 382.382 41.6248 384.665C39.6928 386.773 37.7609 388.88 36.0046 391.339C34.9508 392.744 33.1944 394.5 33.7213 396.432C33.897 396.959 34.4239 397.311 34.9508 397.311C35.6533 397.311 36.0046 397.135 36.3558 396.432C36.5314 396.081 36.5314 395.554 36.3558 395.027C37.0583 393.622 39.6928 390.637 40.0441 390.11C40.9222 388.88 41.976 387.826 43.0298 386.773C43.0298 386.948 42.8542 387.124 42.8542 387.299C42.8542 387.475 42.6786 387.826 42.6786 388.002C41.976 388.002 41.4491 388.529 41.2735 389.231C41.2735 389.934 41.0979 390.637 41.0979 391.339C40.9222 391.515 40.7466 391.69 40.571 392.042C39.8685 392.744 40.2197 393.622 40.7466 393.974C40.7466 393.974 40.7466 393.974 40.7466 394.149C40.571 395.379 42.5029 395.905 43.0298 394.852C44.0836 392.744 44.7861 390.461 45.1374 388.178C45.8399 385.016 44.2592 384.314 43.5567 384.841Z" fill="#E6E6E6"/>
<path d="M12.1186 223.259C11.5917 222.381 10.3623 222.732 10.011 223.259C9.13287 223.084 8.07908 224.137 8.60597 225.016C8.95724 225.718 9.3085 226.421 9.65977 227.123C9.65977 227.474 9.65977 227.65 9.8354 228.001C10.3623 229.055 10.8892 229.933 11.5917 230.636C11.7673 230.811 11.943 230.987 12.2942 230.987C12.4699 231.163 12.6455 231.514 12.8211 231.69C13.5237 232.743 15.1044 232.216 15.1044 231.163C15.4556 231.69 15.9825 232.216 16.5094 232.568C17.5632 233.797 19.3195 232.041 18.2657 230.811C15.8069 228.704 14.0506 225.894 12.1186 223.259Z" fill="#E6E6E6"/>
<path d="M9.4842 192.699C10.1867 194.104 12.4699 192.875 11.5918 191.47C11.2405 190.943 10.8893 190.416 10.7136 189.714C10.538 189.362 10.1867 189.011 10.0111 188.66C10.0111 188.309 10.0111 188.133 9.83546 187.782C9.65983 187.255 9.13294 187.079 8.60604 187.079C8.07915 187.079 7.55225 187.43 7.37662 187.957C7.02535 188.835 7.72788 189.538 8.07915 190.416C8.78167 191.294 9.13294 191.997 9.4842 192.699Z" fill="#E6E6E6"/>
<path d="M29.8574 198.846C29.6818 198.32 28.9792 197.793 28.2767 197.968C27.7498 198.144 27.3986 198.495 27.2229 199.022V199.198C27.0473 199.373 27.0473 199.373 26.8717 199.549C26.8717 199.725 26.8717 199.725 26.696 199.9C26.5204 200.603 26.3448 201.305 26.1691 202.183C25.8179 203.764 28.2767 204.467 28.628 202.886C28.8036 202.535 28.8036 202.008 28.9792 201.657C29.3305 201.481 29.5061 201.13 29.6818 200.778C29.6818 200.603 29.6818 200.252 29.6818 199.9C29.8574 199.725 30.033 199.373 29.8574 198.846Z" fill="#E6E6E6"/>
<path d="M22.6565 138.078C21.6027 137.2 20.5489 136.497 19.4952 135.619C18.4414 134.741 16.685 135.795 17.5632 137.2C18.4414 138.605 19.3195 140.01 20.3733 141.415C21.2515 142.82 23.359 141.59 22.4809 140.185C22.4809 140.185 22.4809 140.185 22.4809 140.01L22.6565 139.834C23.1834 139.483 23.1834 138.605 22.6565 138.078Z" fill="#E6E6E6"/>
<path d="M56.7291 400.823C56.5535 399.594 56.3778 398.54 56.3778 397.311C56.2022 394.676 56.7291 391.866 56.5535 389.232C56.2022 385.719 50.2307 385.894 47.5963 385.368C46.1912 385.016 45.4887 386.773 46.7181 387.651C47.5963 388.353 48.4744 388.88 49.5282 389.232C50.4064 389.583 51.1089 389.056 51.2845 388.353C52.1627 388.529 53.0408 388.88 53.5677 389.232C53.7434 389.407 53.919 389.583 53.919 389.758C53.7434 390.461 53.3921 391.163 53.2165 392.042C52.8652 391.69 52.3383 391.515 51.8114 392.042C50.4064 393.095 49.8795 394.325 49.8795 396.081C49.7038 399.418 49.8795 402.755 49.7038 406.092C49.7038 407.497 51.8114 407.848 52.1627 406.443C52.6896 403.633 53.3921 400.648 54.0946 397.837C54.2703 401.174 54.7972 404.687 55.6753 408.024C56.0266 409.429 58.3098 409.078 58.1342 407.673C57.9585 405.741 57.7829 403.809 57.6073 401.877C57.4316 401.35 57.0804 400.999 56.7291 400.823Z" fill="#E6E6E6"/>
<path d="M74.8192 404.687C72.7116 406.092 70.604 408.2 68.1452 408.902C68.1452 408.375 67.9695 407.673 67.9695 407.146C67.9695 406.268 66.9157 405.39 66.0376 406.092C64.6325 407.146 63.4031 408.375 62.3493 409.956C61.4711 411.361 63.5787 412.59 64.4569 411.185C64.8082 410.659 65.1594 410.132 65.5107 409.78C65.5107 409.956 65.5107 410.132 65.5107 410.483C65.5107 411.185 66.0376 411.712 66.7401 411.712C70.4284 411.361 72.8872 409.078 75.873 406.97C77.4536 405.916 76.2242 403.809 74.8192 404.687Z" fill="#E6E6E6"/>
<path d="M85.0058 412.415C82.7226 413.996 80.2637 415.401 77.8049 416.806C75.5216 417.508 73.4141 418.562 71.4821 419.967C70.2527 420.845 71.3065 422.777 72.7115 422.075C74.8191 421.197 76.7511 420.143 78.683 419.089C78.683 419.089 78.683 419.089 78.8587 419.089C79.0343 419.089 79.2099 418.913 79.3855 418.738C81.6688 417.508 83.952 416.103 86.2352 414.523C87.6402 413.82 86.4108 411.537 85.0058 412.415Z" fill="#E6E6E6"/>
<path d="M849.356 425.763C848.653 425.236 847.775 424.884 847.424 424.533C843.911 422.25 840.047 419.967 835.832 419.264C834.602 419.089 833.549 419.089 832.495 419.967C832.319 420.142 832.144 420.318 831.968 420.494C831.792 420.494 831.617 420.318 831.265 420.318C829.86 420.494 828.455 420.845 827.226 421.547L827.05 421.372C820.552 417.684 814.405 413.644 808.433 409.078C808.258 408.902 808.082 408.551 807.731 408.375C807.731 408.375 807.555 408.375 807.555 408.199C806.501 407.321 805.272 406.443 804.218 405.565C804.218 404.862 803.516 404.16 802.637 404.336C801.759 403.633 801.057 402.931 800.179 402.228C799.652 401.701 798.949 401.701 798.422 402.228C797.895 402.228 797.544 402.579 797.368 403.106C797.193 403.282 797.017 403.282 797.017 403.457C797.193 402.579 796.139 401.525 795.085 402.052C784.723 406.794 774.888 412.239 765.403 418.386C764.35 418.737 763.472 419.44 762.593 420.142C762.242 420.142 762.067 420.142 761.715 420.142C760.661 420.142 760.486 418.913 759.783 418.386C757.851 416.981 756.095 415.576 754.163 414.171C750.826 411.888 747.665 409.78 744.328 407.673C742.571 406.619 740.639 405.916 738.707 405.214C737.654 404.862 736.776 405.741 735.722 406.092C735.195 406.268 734.317 405.916 733.614 405.916C732.385 405.916 731.331 405.565 730.102 406.092C729.048 406.443 727.643 406.268 726.413 405.214C725.886 404.687 725.008 404.687 724.306 404.336C722.549 403.457 720.617 402.931 719.212 401.525C718.334 400.647 717.28 400.12 716.227 399.945C713.241 399.418 710.782 397.837 708.148 396.608C706.567 395.905 704.986 395.203 703.405 394.851C702.527 394.676 701.474 395.027 700.947 393.973C699.015 393.798 696.907 393.095 695.502 395.027C694.975 395.73 694.448 396.256 693.746 396.783C693.043 397.486 692.341 398.013 691.814 398.715C690.233 400.647 688.125 402.228 686.896 404.687C685.842 406.794 683.91 408.024 682.154 409.429C681.803 409.78 681.1 410.131 680.573 410.131C680.222 410.131 679.695 409.78 679.344 409.429C678.466 408.551 677.412 408.199 676.358 407.848C674.602 407.321 673.021 406.619 671.44 405.916C669.86 405.214 668.279 404.336 666.698 403.633C665.645 403.282 664.415 402.755 663.713 403.633C662.132 405.214 660.024 405.565 658.268 406.794C656.863 407.848 655.282 408.902 653.526 409.253C650.716 409.78 648.257 411.01 646.149 413.117C645.974 413.293 645.798 413.468 645.623 413.468C643.515 414.171 642.11 415.4 640.881 417.157C639.475 416.103 638.07 415.225 636.49 414.522C634.558 413.644 632.801 413.468 630.694 414.522C628.411 415.576 626.303 416.63 624.371 418.21C623.493 418.913 622.088 418.737 621.385 417.859C620.156 415.927 618.575 414.347 616.292 413.644C616.116 413.644 615.941 413.468 615.765 413.293C613.658 411.185 611.374 409.956 608.389 409.429C606.632 409.078 605.052 408.024 603.647 406.97C601.89 405.741 599.607 405.389 598.202 403.809C597.324 402.931 596.094 403.282 595.216 403.809C593.636 404.511 592.055 405.389 590.474 406.092C588.894 406.794 587.313 407.673 585.557 408.024C584.327 408.375 583.449 408.551 582.571 409.605C582.22 409.956 581.693 410.307 581.341 410.307C580.814 410.307 580.288 409.956 579.761 409.605C578.004 408.199 576.072 406.794 575.019 404.862C573.789 402.579 571.682 400.823 570.101 398.891C569.574 398.188 568.696 397.662 568.169 396.959C567.642 396.432 566.94 395.73 566.413 395.203C564.832 393.271 562.9 393.798 560.968 394.149C560.441 395.203 559.387 394.851 558.509 395.027C556.753 395.203 555.172 395.905 553.767 396.783C551.133 398.013 548.674 399.594 545.688 400.12C544.634 400.296 543.581 400.823 542.702 401.701C541.297 403.106 539.365 403.633 537.609 404.511C536.907 404.862 536.028 404.862 535.501 405.389C534.448 406.443 532.867 406.443 531.813 406.268C530.584 405.916 529.53 406.092 528.301 406.092C527.598 406.092 526.72 406.443 526.193 406.268C525.139 405.916 524.261 405.038 523.207 405.389C521.275 406.092 519.343 406.794 517.587 407.848C514.25 409.956 510.913 412.063 507.752 414.347C505.82 415.752 503.888 417.157 502.131 418.562C501.429 419.089 501.253 420.318 500.199 420.318C498.443 420.318 496.687 421.021 494.93 420.494C492.296 419.616 489.486 418.913 486.851 418.21C484.92 417.684 482.988 417.157 481.056 416.805C478.421 416.454 475.611 416.981 473.855 419.089C472.977 420.318 471.923 421.196 470.693 422.074C470.518 421.899 470.518 421.723 470.166 421.547C465.073 418.913 459.98 416.103 454.886 413.468C450.847 411.361 446.456 408.375 441.89 407.497C437.675 406.794 433.811 408.375 429.947 409.956C425.38 411.888 420.814 413.995 416.247 416.103C411.857 418.21 407.466 420.318 403.075 422.601C403.251 422.074 403.251 421.372 402.724 421.021C399.914 418.913 397.104 416.279 393.942 414.522C391.835 413.293 389.376 413.468 387.093 413.995C381.121 415.049 375.852 418.035 370.583 421.021C367.597 422.777 364.787 424.358 361.802 425.763C361.626 425.763 361.45 425.938 361.45 425.938C357.586 423.128 352.844 420.142 348.102 419.44C346.873 419.264 345.819 419.264 344.765 420.142C344.59 420.318 344.414 420.494 344.238 420.669C344.063 420.669 343.887 420.494 343.536 420.494C342.131 420.669 340.726 421.021 339.496 421.723L339.321 421.547C332.822 417.859 326.675 413.82 320.704 409.253C320.528 409.078 320.352 408.726 320.001 408.551C320.001 408.551 319.826 408.551 319.826 408.375C318.772 407.497 317.542 406.619 316.489 405.741C316.489 405.038 315.786 404.336 314.908 404.511C314.03 403.809 313.327 403.106 312.449 402.404C311.922 401.877 311.22 401.877 310.693 402.404C310.166 402.404 309.815 402.755 309.639 403.282C309.463 403.457 309.288 403.457 309.288 403.633C309.463 402.755 308.41 401.701 307.356 402.228C296.993 406.97 287.158 412.415 277.674 418.562C276.62 418.913 275.742 419.616 274.864 420.318C274.513 420.318 274.337 420.318 273.986 420.318C272.932 420.318 272.756 419.089 272.054 418.562C270.122 417.157 268.365 415.752 266.434 414.347C263.097 412.063 259.935 409.956 256.598 407.848C254.842 406.794 252.91 406.092 250.978 405.389C249.924 405.038 249.046 405.916 247.992 406.268C247.465 406.443 246.587 406.092 245.885 406.092C244.655 406.092 243.601 405.741 242.372 406.268C241.318 406.619 239.913 406.443 238.684 405.389C238.157 404.862 237.279 404.862 236.576 404.511C234.82 403.633 232.888 403.106 231.483 401.701C230.605 400.823 229.551 400.296 228.497 400.12C225.511 399.594 223.052 398.013 220.418 396.783C218.837 396.081 217.257 395.378 215.676 395.027C214.798 394.851 213.744 395.203 213.217 394.149C211.285 393.973 209.178 393.271 207.773 395.203C207.246 395.905 206.719 396.432 206.016 396.959C205.314 397.662 204.611 398.188 204.084 398.891C202.504 400.823 200.396 402.404 199.167 404.862C198.113 406.97 196.181 408.199 194.424 409.605C194.073 409.956 193.371 410.307 192.844 410.307C192.493 410.307 191.966 409.956 191.614 409.605C190.736 408.726 189.682 408.375 188.629 408.024C186.872 407.497 185.292 406.794 183.711 406.092C182.13 405.389 180.55 404.511 178.969 403.809C177.915 403.457 176.686 402.931 175.983 403.809C174.402 405.389 172.295 405.741 170.539 406.97C169.133 408.024 167.553 409.078 165.797 409.429C162.986 409.956 160.528 411.185 158.42 413.293C158.244 413.468 158.069 413.644 157.893 413.644C155.61 414.347 154.029 415.927 152.8 417.859C152.273 418.737 150.692 418.913 149.814 418.21C147.882 416.63 145.774 415.576 143.491 414.522C141.384 413.468 139.627 413.644 137.695 414.522C135.588 415.576 133.832 416.63 132.075 418.035C131.197 418.737 130.319 419.44 129.441 419.616C125.05 421.196 120.835 423.128 116.62 425.06C117.322 424.533 116.971 423.304 116.093 422.953C115.917 422.777 115.566 422.601 115.39 422.601C114.863 422.601 114.161 422.426 113.634 422.426C112.931 422.426 112.58 422.777 112.404 423.304C112.229 423.304 112.053 423.479 111.878 423.655C111.526 423.831 110.999 423.831 110.648 424.006C109.77 424.182 108.716 424.358 107.838 424.709C106.96 424.885 106.784 425.587 106.96 426.29C106.433 426.992 106.784 428.397 107.838 428.222C109.243 428.046 110.472 427.519 111.526 426.465C113.107 426.114 114.512 425.763 116.093 425.411C115.741 425.587 115.39 425.763 115.039 425.938C113.809 426.465 112.931 427.168 112.931 428.748C112.931 429.275 113.107 429.451 113.634 429.1C114.336 428.748 115.039 428.397 115.566 428.046C116.268 427.343 116.795 429.1 117.498 428.222C119.957 428.222 121.713 426.641 123.82 425.763C125.226 425.06 126.455 424.533 128.036 424.884C130.846 425.411 133.129 424.358 135.237 422.601C136.817 421.372 138.222 419.967 139.979 419.089C140.506 418.737 140.857 418.737 141.559 419.089C142.789 419.791 144.194 420.318 145.599 421.021C145.774 421.196 146.126 421.372 146.126 421.547C146.126 421.723 145.774 422.074 145.599 422.074C144.018 422.25 142.613 423.128 141.911 424.182C140.681 426.114 138.574 426.641 136.817 427.87C134.885 429.275 132.953 430.856 131.197 432.261L131.373 432.788C132.075 432.788 132.778 432.612 133.305 432.612C135.237 432.437 136.642 431.207 138.222 430.68C140.33 429.978 142.262 428.748 144.369 427.519C146.653 426.114 148.936 424.533 151.57 423.479C153.151 422.953 154.907 422.25 155.785 421.021C157.893 418.21 161.23 417.157 163.513 414.698C164.04 414.171 164.918 414.171 165.621 413.995C167.553 413.468 169.485 412.942 171.065 411.712C172.646 410.483 174.402 409.78 175.983 408.902C176.51 408.551 177.388 408.375 177.388 408.024C177.564 407.146 178.091 407.146 178.618 407.321C179.496 407.497 180.374 407.848 181.252 408.199V408.726C180.374 409.253 179.496 409.956 178.442 410.307C175.105 411.01 172.646 413.468 170.012 415.4C168.255 416.805 166.675 418.562 164.918 419.967C164.743 420.142 164.743 420.318 164.567 420.494C164.743 420.494 164.918 420.669 165.094 420.669C165.445 420.669 165.972 420.669 166.148 420.494C166.85 419.967 167.728 419.44 168.08 418.737C168.607 417.684 169.309 417.684 170.187 417.684C171.768 417.508 173.524 417.332 174.754 416.279C176.159 415.049 177.915 414.347 179.496 413.644C180.374 413.293 181.428 412.942 181.955 412.415C183.535 410.834 185.467 410.307 187.575 410.834C188.102 411.01 188.804 411.01 189.331 411.01C189.507 411.01 189.682 411.185 189.858 411.185C189.858 411.361 189.682 411.536 189.682 411.536C186.697 414.171 183.535 416.981 180.55 419.616C179.496 420.494 178.442 421.196 177.915 422.777C177.739 423.479 177.213 424.182 176.686 424.884C177.388 424.709 178.091 424.533 178.793 424.709C180.55 425.06 181.955 424.182 183.36 423.479C184.589 422.777 185.643 422.074 186.697 421.196C187.75 420.318 188.804 419.089 189.858 418.035C190.385 417.332 190.912 416.63 191.614 416.103C194.951 413.644 197.235 409.956 199.518 406.619C201.977 403.282 204.611 400.296 207.597 397.662C208.475 396.783 209.002 397.486 209.529 397.662C210.056 397.837 210.583 398.364 211.109 398.715C212.339 399.594 213.568 400.296 214.271 401.701C214.973 403.106 215.852 404.511 216.905 405.565C219.013 407.673 221.472 409.429 223.755 411.185C225.511 412.59 227.268 414.171 229.024 415.576C230.429 416.63 232.01 417.157 233.415 418.21C235.698 419.791 238.508 419.616 240.967 420.669C241.143 420.845 241.669 420.669 241.845 420.669C242.021 420.318 242.021 419.791 241.845 419.616C240.264 417.508 238.684 415.4 236.225 414.171C236.049 413.995 235.698 413.995 235.522 413.82C235.698 413.82 236.049 413.644 236.225 413.644C236.927 413.293 237.63 412.766 238.508 412.415C239.738 412.063 240.967 411.888 242.021 411.712C243.075 413.293 245.182 413.82 246.412 415.576C246.938 416.454 247.817 417.157 248.519 417.859C249.573 418.737 250.978 418.035 251.68 419.264C252.207 419.089 252.91 418.913 253.261 418.562C253.612 418.21 253.437 417.684 252.734 417.508C252.383 417.508 252.207 416.981 251.856 416.805C249.397 415.576 248.343 414.171 248.519 411.712C248.519 411.185 248.87 410.483 248.695 410.307C247.992 409.253 248.343 409.253 249.222 409.429C249.749 409.605 250.275 409.956 250.802 410.131C253.261 410.834 255.017 412.59 257.125 413.82C261.516 416.454 266.082 419.089 269.946 422.426C270.649 423.128 271.351 423.655 272.229 424.182C271.351 424.884 270.473 425.587 269.595 426.465C269.595 426.465 269.419 426.465 269.419 426.641C267.839 427.695 265.907 429.1 264.502 430.68C262.745 431.91 260.813 433.139 258.881 433.842C257.476 434.369 258.003 436.827 259.584 436.301C260.813 435.774 262.043 435.247 263.272 434.544C263.272 435.071 263.448 435.598 263.623 436.125C263.975 437.003 265.028 437.354 265.731 436.652C267.487 435.071 269.244 433.49 271 431.91C271.176 431.91 271.176 431.734 271.351 431.734C271.702 431.559 272.054 431.383 272.054 431.032C273.986 429.627 275.742 428.222 277.674 426.816C277.85 426.816 278.025 426.992 278.376 426.992V426.29C281.714 424.006 285.05 421.899 288.387 419.791H288.563C288.739 420.669 289.09 421.372 289.441 422.074C288.563 422.777 287.861 423.479 286.982 424.182C285.753 425.06 286.807 427.168 288.212 426.29C295.062 421.723 301.911 417.332 308.761 412.766C309.639 412.239 309.463 411.01 308.761 410.658C309.112 410.483 309.288 410.307 309.639 410.131C309.815 410.131 309.815 410.131 309.99 410.131C312.8 410.131 315.786 409.956 318.596 409.956C321.933 412.59 325.446 415.049 329.134 417.332C328.783 417.859 328.607 418.386 329.134 419.089C330.89 421.196 333.174 422.777 335.632 423.831C335.632 424.182 335.808 424.358 335.984 424.709C335.984 425.236 336.159 425.587 336.511 425.938C339.145 427.519 342.131 424.533 344.238 422.777C344.941 423.304 345.995 423.128 346.346 422.25C346.522 422.25 346.522 422.25 346.697 422.25C347.049 422.426 347.4 422.953 347.751 423.128C347.224 423.655 346.697 424.006 346.17 424.533C344.941 425.411 346.522 426.992 347.751 426.465C349.683 425.587 351.264 424.358 352.493 422.777C352.669 422.953 352.844 422.953 353.02 423.128C354.952 424.006 356.708 425.06 358.465 426.29C356.181 426.992 353.898 427.695 351.791 428.397C345.292 430.505 339.496 434.544 333.701 438.057C332.295 438.935 333.525 441.043 334.93 440.164C338.267 438.057 341.78 435.949 345.292 434.017C345.643 434.193 345.995 434.369 346.346 434.193H346.522C346.873 434.193 347.049 434.017 347.224 433.666C347.751 433.315 348.454 432.964 349.156 432.612C349.156 432.788 348.98 432.788 348.98 432.964C348.278 434.017 349.683 435.422 350.737 434.72C356.708 430.68 363.734 428.573 369.705 424.533C369.881 424.709 370.232 424.709 370.583 424.709C371.637 424.533 372.515 424.182 373.218 423.655C373.393 424.006 373.569 424.182 373.92 424.358C376.028 424.709 378.135 422.777 379.716 421.723C383.053 419.791 386.214 417.859 389.551 415.927C389.727 415.752 389.903 415.752 389.903 415.576C391.132 415.576 392.537 415.927 393.767 416.63C396.577 418.21 399.036 420.669 401.67 422.601C401.846 422.601 401.846 422.777 402.021 422.777C400.265 423.655 398.509 424.533 396.752 425.587C391.132 427.519 385.512 430.329 381.297 434.193C381.121 434.369 380.945 434.544 380.77 434.72C379.189 435.598 377.784 436.476 376.203 437.53C373.569 438.759 370.583 439.638 367.773 440.691C363.909 442.272 360.572 444.731 357.586 447.717C357.06 448.244 357.235 449.649 358.113 449.824C360.045 450.175 361.45 449.649 362.855 448.946C363.031 448.946 363.207 448.946 363.382 448.77C367.773 445.785 372.34 442.975 376.73 440.164C378.311 439.462 379.892 438.759 381.297 437.706C381.648 437.354 381.999 437.179 382.35 436.827C383.931 435.949 385.336 435.071 386.917 434.193C387.093 434.193 387.093 434.193 387.268 434.193C387.444 434.193 387.619 434.369 387.795 434.369C388.146 435.247 389.551 435.247 389.903 434.369C392.186 429.802 397.806 429.451 401.846 427.87C402.899 427.343 403.953 426.816 405.007 426.114C404.48 428.573 406.061 430.856 409.398 429.451C409.222 429.627 409.047 429.978 409.047 430.153C408.695 431.032 409.222 432.085 410.1 432.085C410.627 432.085 411.154 432.085 411.505 432.085C411.505 432.261 411.505 432.437 411.505 432.612C410.276 434.193 407.817 435.071 406.412 436.652C404.656 438.233 403.602 440.164 403.075 442.448C402.548 444.028 405.007 444.555 405.534 443.15C407.115 438.408 411.857 437.003 415.721 434.72C418.882 432.788 420.638 429.627 423.624 427.343C426.258 425.236 426.258 421.899 428.717 419.616C431.176 417.332 434.513 416.981 436.269 413.995C436.269 413.82 436.445 413.82 436.445 413.644C437.675 413.468 438.904 413.995 440.485 414.347C444.349 415.4 448.564 415.752 452.252 417.508C457.697 420.142 461.912 424.885 468.234 424.358C467.356 424.885 466.654 425.411 465.951 426.114C465.776 426.29 465.424 426.465 465.249 426.465C464.371 426.992 463.492 427.519 463.141 428.573C464.371 428.397 465.424 428.397 466.478 428.046C467.532 427.695 468.586 426.992 469.639 426.29C470.693 425.411 472.274 425.411 472.801 424.006C472.977 423.655 473.679 423.655 474.03 423.479C475.787 423.304 477.543 423.479 478.948 421.899C479.124 421.723 479.299 421.899 479.475 421.723C480.177 421.548 480.704 421.899 480.529 422.601C480.002 424.533 479.826 424.884 477.543 426.816C476.665 427.519 476.665 427.87 477.367 428.222C478.245 428.748 478.948 429.1 480.002 428.397C481.934 427.519 483.163 426.29 484.393 424.533C484.919 423.655 485.622 423.479 486.676 423.304C488.608 423.128 490.364 422.953 492.12 424.006C492.472 424.182 492.647 424.182 492.999 424.358C492.647 424.709 492.472 425.06 492.12 425.236C486.325 427.519 481.056 430.68 475.962 434.193C475.611 434.369 475.26 434.544 475.084 434.72C474.908 434.896 474.908 435.071 474.733 435.247C474.908 435.247 475.084 435.422 475.26 435.422C476.138 435.422 477.016 435.247 478.245 435.071C481.231 435.247 483.866 433.49 486.5 432.085C488.081 431.207 490.364 431.207 491.593 429.627C493.35 429.451 494.93 428.397 496.687 427.695C499.673 426.641 502.483 425.236 504.942 422.953C508.805 419.44 513.372 416.981 517.763 414.347C519.87 413.117 521.627 411.361 524.085 410.658C524.612 410.483 525.139 410.131 525.666 409.956C526.544 409.78 527.071 409.78 526.193 410.834C526.017 411.185 526.193 411.888 526.369 412.239C526.544 414.698 525.666 416.103 523.032 417.332C522.68 417.508 522.505 417.859 522.153 418.035C521.451 418.21 521.275 418.562 521.627 419.089C521.978 419.44 522.68 419.616 523.207 419.791C523.734 418.562 525.315 419.264 526.369 418.386C527.247 417.684 527.949 416.981 528.476 416.103C529.53 414.347 531.813 413.995 532.867 412.239C534.096 412.415 535.326 412.59 536.38 412.942C537.258 413.117 537.96 413.644 538.663 414.171C538.838 414.347 539.19 414.347 539.365 414.347C539.19 414.522 538.838 414.522 538.663 414.698C536.204 415.927 534.623 418.035 533.043 420.142C532.867 420.318 532.867 420.845 533.043 421.196C533.043 421.372 533.569 421.372 533.921 421.196C536.38 419.967 539.19 420.318 541.473 418.737C542.878 417.859 544.459 417.157 545.864 416.103C547.796 414.698 549.376 413.293 551.133 411.712C553.416 409.78 555.699 408.024 557.982 406.092C559.036 405.038 559.914 403.633 560.617 402.228C561.319 400.823 562.549 399.945 563.778 399.242C564.305 398.891 564.832 398.364 565.359 398.188C565.886 398.013 566.237 397.31 567.291 398.188C570.452 400.823 573.087 403.984 575.37 407.146C577.829 410.483 579.936 413.995 583.273 416.63C583.976 417.157 584.327 417.859 585.03 418.562C586.083 419.616 586.962 420.669 588.191 421.723C589.245 422.601 590.474 423.304 591.528 424.006C592.933 424.709 594.338 425.587 596.094 425.236C596.797 425.06 597.499 425.411 598.202 425.411C597.851 424.709 597.148 424.182 596.973 423.304C596.621 421.899 595.392 421.196 594.338 420.142C591.352 417.508 588.191 414.698 585.205 412.063C585.03 411.888 585.03 411.712 585.03 411.712C585.205 411.712 585.381 411.536 585.557 411.536C586.083 411.536 586.786 411.536 587.313 411.361C589.42 410.834 591.352 411.361 592.933 412.942C593.636 413.468 594.514 413.82 595.392 414.171C597.148 414.873 598.729 415.576 600.134 416.805C601.363 417.859 603.12 418.035 604.7 418.21C605.579 418.386 606.281 418.386 606.808 419.264C607.159 419.967 608.037 420.494 608.74 421.021C609.091 421.196 609.442 421.196 609.794 421.196C609.969 421.196 610.145 421.196 610.321 421.021C610.321 420.845 610.145 420.494 609.969 420.494C608.213 419.089 606.632 417.332 604.876 415.927C602.417 413.995 599.958 411.712 596.446 410.834C595.392 410.658 594.514 409.78 593.636 409.253C593.46 409.253 593.636 408.726 593.636 408.726C594.514 408.375 595.392 408.024 596.27 407.848C596.797 407.673 597.324 407.673 597.5 408.551C597.5 408.902 598.378 409.078 598.905 409.429C600.661 410.307 602.417 411.01 603.822 412.239C605.403 413.468 607.335 413.995 609.267 414.522C609.969 414.698 610.848 414.873 611.374 415.225C613.658 417.684 617.17 418.562 619.102 421.547C619.98 422.777 621.737 423.479 623.317 424.006C625.952 424.884 628.235 426.465 630.518 428.046C632.45 429.275 634.382 430.505 636.665 431.207C638.422 431.734 639.827 432.964 641.583 433.139C642.286 433.139 642.988 433.315 643.515 433.315C643.515 433.315 643.866 432.788 643.691 432.788C641.759 431.207 640.002 429.802 638.07 428.397C636.49 427.168 634.207 426.641 632.977 424.709C632.275 423.479 630.87 422.601 629.289 422.601C629.113 422.601 628.762 422.25 628.762 422.074C628.762 421.899 628.938 421.547 629.289 421.547C630.694 420.845 632.099 420.494 633.328 419.616C634.031 419.264 634.207 419.264 634.909 419.616C636.665 420.494 638.246 421.723 639.651 423.128C641.759 424.884 644.042 425.938 646.852 425.411C648.433 425.06 649.662 425.587 651.067 426.29C653.175 427.168 654.931 428.748 657.39 428.748C658.092 429.627 658.619 428.046 659.322 428.573C659.849 429.1 660.727 429.275 661.254 429.627C661.781 429.978 661.781 429.802 661.956 429.275C662.132 427.695 661.078 426.992 659.849 426.465C655.107 424.358 650.365 422.074 645.271 420.318C647.203 418.562 649.838 417.508 651.594 415.576C652.121 415.049 652.999 415.049 653.702 414.873C655.634 414.347 657.566 413.82 659.146 412.59C660.727 411.361 662.483 410.658 664.064 409.78C664.591 409.429 665.469 409.253 665.469 408.902C665.645 408.024 666.172 408.024 666.698 408.199C667.577 408.375 668.455 408.726 669.333 409.078V409.605C668.455 410.131 667.577 410.834 666.523 411.185C663.186 411.888 660.727 414.347 658.092 416.279C656.336 417.684 654.755 419.44 652.999 420.845C652.823 421.021 652.823 421.196 652.648 421.372C652.823 421.372 652.999 421.547 653.175 421.547C653.526 421.547 654.053 421.547 654.229 421.372C654.931 420.845 655.809 420.318 656.161 419.616C656.687 418.562 657.39 418.562 658.268 418.562C659.849 418.386 661.605 418.21 662.834 417.157C664.24 415.927 665.996 415.225 667.577 414.522C668.455 414.171 669.509 413.82 670.035 413.293C671.616 411.712 673.548 411.185 675.656 411.712C676.183 411.888 676.885 411.888 677.412 411.888C677.588 411.888 677.763 412.063 677.939 412.063C677.939 412.239 677.763 412.415 677.763 412.415C674.777 415.049 671.616 417.859 668.63 420.494C667.577 421.372 666.523 422.074 665.996 423.655C665.82 424.358 665.293 425.06 664.766 425.763C665.469 425.587 666.172 425.411 666.874 425.587C668.63 425.938 670.035 425.06 671.44 424.358C672.67 423.655 673.724 422.953 674.777 422.074C675.831 421.196 676.885 419.967 677.939 418.913C678.466 418.21 678.993 417.508 679.695 416.981C683.032 414.522 685.315 410.834 687.599 407.497C690.057 404.16 692.692 401.174 695.678 398.54C696.556 397.662 697.083 398.364 697.61 398.54C698.137 398.715 698.663 399.242 699.19 399.594C700.42 400.472 701.649 401.174 702.352 402.579C703.054 403.984 703.932 405.389 704.986 406.443C707.094 408.551 709.553 410.307 711.836 412.063C713.592 413.468 715.348 415.049 717.105 416.454C718.51 417.508 720.09 418.035 721.496 419.089C723.779 420.669 726.589 420.494 729.048 421.547C729.223 421.723 729.75 421.547 729.926 421.547C730.102 421.196 730.102 420.669 729.926 420.494C728.345 418.386 726.764 416.279 724.306 415.049C724.13 414.873 723.779 414.873 723.603 414.698C723.779 414.698 724.13 414.522 724.306 414.522C725.008 414.171 725.711 413.644 726.589 413.293C727.818 412.942 729.048 412.766 730.102 412.59C731.155 414.171 733.263 414.698 734.492 416.454C735.019 417.332 735.897 418.035 736.6 418.737C737.654 419.616 739.059 418.913 739.761 420.142C740.288 419.967 740.991 419.791 741.342 419.44C741.693 419.089 741.518 418.562 740.815 418.386C740.464 418.386 740.288 417.859 739.937 417.684C737.478 416.454 736.424 415.049 736.6 412.59C736.6 412.063 736.951 411.361 736.776 411.185C736.073 410.131 736.424 410.131 737.302 410.307C737.829 410.483 738.356 410.834 738.883 411.01C741.342 411.712 743.098 413.468 745.206 414.698C749.597 417.332 754.163 419.967 758.027 423.304C758.729 424.006 759.432 424.533 760.31 425.06C759.432 425.763 758.554 426.465 757.676 427.343C757.676 427.343 757.5 427.343 757.5 427.519C755.919 428.573 753.987 429.978 752.582 431.558C750.826 432.788 748.894 434.017 746.962 434.72C745.557 435.247 746.084 437.706 747.665 437.179C748.894 436.652 750.123 436.125 751.353 435.422C751.353 435.949 751.529 436.476 751.704 437.003C752.055 437.881 753.109 438.233 753.812 437.53C755.568 435.949 757.324 434.369 759.081 432.788C759.256 432.788 759.256 432.612 759.432 432.612C759.783 432.437 760.135 432.261 760.135 431.91C762.066 430.505 763.823 429.1 765.755 427.695C765.93 427.695 766.106 427.87 766.457 427.87V427.168C769.794 424.884 773.131 422.777 776.468 420.669H776.644C776.82 421.547 777.171 422.25 777.522 422.953C776.644 423.655 775.941 424.358 775.063 425.06C773.834 425.938 774.888 428.046 776.293 427.168C783.142 422.601 789.992 418.21 796.842 413.644C797.72 413.117 797.544 411.888 796.842 411.536C797.193 411.361 797.368 411.185 797.72 411.01C797.895 411.01 797.895 411.01 798.071 411.01C800.881 411.01 803.867 410.834 806.677 410.834C810.014 413.468 813.527 415.927 817.215 418.21C816.864 418.737 816.688 419.264 817.215 419.967C818.971 422.074 821.254 423.655 823.713 424.709C823.713 425.06 823.889 425.236 824.065 425.587C824.065 426.114 824.24 426.465 824.591 426.816C827.226 428.397 830.212 425.411 832.319 423.655C833.022 424.182 834.076 424.006 834.427 423.128C834.602 423.128 834.602 423.128 834.778 423.128C835.129 423.304 835.481 423.831 835.832 424.006C835.305 424.533 834.778 424.884 834.251 425.411C833.022 426.29 834.602 427.87 835.832 427.343C837.764 426.465 839.344 425.236 840.574 423.655C840.75 423.831 840.925 423.831 841.101 424.006C843.033 424.884 844.789 425.938 846.545 427.168C847.424 427.87 849.531 428.397 850.058 427.87C850.585 426.816 850.058 426.29 849.356 425.763ZM304.721 411.185C304.897 411.01 305.073 410.834 305.073 410.834C305.248 410.834 305.248 410.834 305.424 410.834C305.248 410.834 305.073 411.01 304.721 411.185ZM382.175 417.859C382.351 417.684 382.351 417.684 382.526 417.684C382.526 417.684 382.351 417.859 382.175 417.859ZM442.592 410.131C442.943 410.131 443.295 410.307 443.646 410.307C443.295 410.307 442.943 410.307 442.592 410.131ZM792.626 411.185C792.802 411.01 792.978 410.834 792.978 410.834C793.153 410.834 793.153 410.834 793.329 410.834C792.978 410.834 792.802 411.01 792.626 411.185Z" fill="#E6E6E6"/>
<path d="M700.771 418.035C699.19 418.211 697.785 418.913 696.205 419.616C696.029 419.616 695.502 419.616 695.502 419.265C695.326 419.089 695.502 418.562 695.502 418.562C696.38 417.684 697.785 416.981 698.312 415.576C698.312 415.401 698.312 415.225 698.488 414.874C698.312 414.874 698.136 414.698 697.961 414.874C697.61 414.874 697.258 415.049 696.907 415.225C694.273 416.63 691.989 418.211 690.233 420.67C689.882 421.196 689.179 421.548 688.477 421.899C687.247 422.777 685.667 423.304 684.613 424.358C683.559 425.412 682.33 426.641 681.276 427.695C681.1 427.87 681.1 428.046 681.276 428.222C681.276 428.397 681.627 428.397 681.803 428.749C682.154 428.573 682.505 428.222 682.856 428.046C683.559 427.519 684.262 426.641 684.964 426.641C687.247 426.641 688.828 424.709 691.111 424.533C692.868 422.777 695.151 422.426 697.258 421.548C698.663 420.845 700.42 420.67 701.473 419.265C702 418.562 702.703 418.035 703.23 417.508C702.352 417.157 701.649 417.859 700.771 418.035Z" fill="#E6E6E6"/>
<path d="M739.937 428.046C738.005 427.519 737.478 425.587 735.897 424.885C735.37 422.953 733.79 422.953 732.385 422.953C732.209 422.953 731.858 423.128 731.682 423.304C731.682 423.48 731.682 423.831 731.858 424.006C732.209 424.358 732.736 424.533 733.087 424.709C735.195 426.641 737.829 428.046 739.41 430.505C739.937 431.383 740.639 431.734 741.518 431.734C741.869 431.734 742.044 431.734 742.22 431.734C742.571 431.734 742.923 431.734 742.923 431.559C743.098 431.383 742.923 430.856 742.747 430.68C741.869 429.802 740.991 428.397 739.937 428.046Z" fill="#E6E6E6"/>
<path d="M717.105 423.128C716.051 422.075 714.821 421.196 713.592 420.143C713.241 419.791 712.714 419.44 712.187 419.264C712.011 419.089 712.011 420.143 712.714 421.196C712.889 421.548 713.416 422.075 713.416 422.426C713.241 423.48 713.943 424.006 714.47 424.709C715.173 425.587 716.227 426.29 716.929 427.168C717.632 428.046 718.51 428.573 719.564 428.573C719.739 428.573 719.915 428.397 720.09 428.222C720.09 428.046 720.09 427.87 720.09 427.695C719.212 426.114 718.334 424.533 717.105 423.128Z" fill="#E6E6E6"/>
<path d="M742.571 422.075C742.396 422.075 742.22 422.426 742.044 422.602C742.22 422.953 742.396 423.304 742.571 423.304C743.625 423.831 744.679 424.182 745.733 424.709C745.908 424.709 746.259 424.709 746.259 424.534C746.259 424.358 746.435 423.831 746.259 423.655C745.03 422.777 743.801 422.426 742.571 422.075Z" fill="#E6E6E6"/>
<path d="M689.179 434.544C689.355 434.72 689.706 434.896 689.882 434.72C690.233 434.72 690.409 434.544 690.76 434.369C690.584 434.193 690.233 434.193 689.882 434.018C689.706 434.193 689.53 434.369 689.179 434.544Z" fill="#E6E6E6"/>
<path d="M821.43 427.519C821.43 427.519 821.255 427.519 821.43 427.519C821.255 427.519 821.255 427.519 821.079 427.344C820.552 426.992 819.674 426.817 819.323 427.344C818.444 428.397 817.742 429.451 816.864 430.505C815.985 431.559 817.039 433.315 818.444 432.437C819.849 431.559 821.255 430.681 822.66 429.627C824.065 428.749 822.835 426.641 821.43 427.519Z" fill="#E6E6E6"/>
<path d="M771.551 428.749C771.024 429.276 770.497 429.802 770.146 430.154C770.146 430.154 769.97 430.154 769.97 430.329C767.862 432.086 765.755 433.842 763.647 435.774C762.593 436.652 763.998 438.584 765.228 437.706L765.403 437.53C766.633 436.652 767.687 435.774 768.74 434.72C768.916 434.72 769.092 434.544 769.267 434.369C769.619 434.018 770.146 433.491 770.497 433.139C771.375 432.261 772.429 431.383 773.307 430.505C774.361 429.276 772.604 427.519 771.551 428.749Z" fill="#E6E6E6"/>
<path d="M38.4634 380.977C37.234 380.274 36.1802 379.572 34.9507 379.045C35.1264 379.045 35.1264 378.869 35.302 378.869C35.6533 378.518 35.6533 377.815 35.4776 377.288C34.7751 375.883 31.965 375.181 30.7356 374.654C30.0331 374.303 29.3305 374.654 28.9793 375.356C28.8036 375.356 28.4524 375.181 28.1011 375.181C27.3986 375.005 26.696 375.532 26.5204 376.235C23.8859 374.83 20.9002 373.776 18.0901 372.722C16.5094 372.195 15.9825 374.654 17.3876 375.181C22.3053 376.762 26.8717 378.869 31.0868 381.855C31.965 382.382 32.8432 381.679 32.8432 380.801C34.2482 381.679 35.6533 382.382 37.0583 383.26C38.4634 383.962 39.6928 381.855 38.4634 380.977Z" fill="#E6E6E6"/>
<path d="M24.5885 399.945C18.4414 399.242 12.1186 399.242 5.97153 398.891C4.39084 398.891 4.39084 401.35 5.97153 401.35C8.78163 401.526 11.5917 401.701 14.4019 401.701C14.4019 402.052 14.5775 402.404 14.9287 402.755C16.5094 404.16 20.1977 401.174 20.9002 404.16C21.0759 405.214 22.6565 405.214 23.1834 404.511C23.3591 403.984 23.7103 403.633 24.4129 403.458C24.7641 404.336 25.8179 404.687 26.5204 403.984C26.6961 403.809 26.8717 403.633 27.0473 403.458C27.3986 403.809 27.5742 404.16 27.5742 404.687C27.223 406.268 29.6818 406.97 30.0331 405.389C30.56 401.877 27.7499 400.296 24.5885 399.945Z" fill="#E6E6E6"/>
</g>
<path d="M87.8159 343.392H310.868V345.148H87.8159V343.392Z" fill="#E6E6E6"/>
<path d="M567.291 343.392H790.343V345.148H567.291V343.392Z" fill="#E6E6E6"/>
<path d="M87.8159 355.686H310.868V357.442H87.8159V355.686Z" fill="#E6E6E6"/>
<path d="M567.291 355.686H790.343V357.442H567.291V355.686Z" fill="#E6E6E6"/>
<path d="M333.03 357.442H334.508L329.716 343.532H327.833L323.042 357.442H324.519L325.688 354.071H331.861L333.03 357.442ZM326.142 352.738L328.76 345.126L331.397 352.738H326.142Z" fill="#969696"/>
<path d="M337.916 357.442C340.524 358.109 341.055 356.177 341.451 353.694C341.963 350.42 342.108 347.56 342.282 344.894H348.271V357.442H349.691V343.532H340.911C340.756 347.039 340.553 349.995 340.07 353.028C339.626 355.858 339.336 356.312 337.916 356.177V357.442Z" fill="#969696"/>
<path d="M363.345 357.442H364.823L360.031 343.532H358.148L353.357 357.442H354.834L356.003 354.071H362.176L363.345 357.442ZM356.457 352.738L359.075 345.126L361.712 352.738H356.457Z" fill="#969696"/>
<path d="M371.048 357.442H372.468V344.894H377.327V343.532H366.189V344.894H371.048V357.442Z" fill="#969696"/>
<path d="M389.452 357.442H390.93L386.139 343.532H384.255L379.464 357.442H380.942L382.111 354.071H388.284L389.452 357.442ZM382.565 352.738L385.183 345.126L387.82 352.738H382.565Z" fill="#969696"/>
<path d="M396.954 357.442H398.5L404.972 343.532H403.455L399.263 352.622L395.148 343.532H393.573L398.519 354.148L396.954 357.442Z" fill="#969696"/>
<path d="M413.434 357.732C416.66 357.732 418.737 355.945 419.5 353.163L418.051 352.786C417.462 354.979 415.926 356.37 413.434 356.37C410.169 356.37 408.507 353.965 408.527 350.487C408.555 347.01 410.169 344.604 413.434 344.604C415.926 344.604 417.462 345.995 418.051 348.188L419.5 347.811C418.737 345.029 416.66 343.242 413.434 343.242C409.28 343.242 407.029 346.208 407.029 350.487C407.029 354.767 409.28 357.732 413.434 357.732Z" fill="#969696"/>
<path d="M423.563 357.442H424.983V350.487L431.822 357.442H433.677L426.664 350.246L433.146 343.532H431.33L424.983 350.101V343.532H423.563V357.442Z" fill="#969696"/>
<path d="M445.988 357.442H447.466L442.675 343.532H440.791L436 357.442H437.478L438.647 354.071H444.82L445.988 357.442ZM439.101 352.738L441.719 345.126L444.356 352.738H439.101Z" fill="#969696"/>
<path d="M455.248 343.532C454.978 343.532 454.63 343.552 454.272 343.61C452.099 343.948 450.882 345.677 450.882 347.85C450.882 349.676 451.742 351.183 453.306 351.811L450.563 357.442H452.196L454.755 352.158H459.209V357.442H460.619V343.532H455.248ZM459.209 350.806H455.287C455.055 350.806 454.726 350.787 454.427 350.719C453.007 350.42 452.35 349.145 452.35 347.85C452.35 346.556 453.007 345.281 454.427 344.972C454.726 344.914 455.055 344.894 455.287 344.894H459.209V350.806Z" fill="#969696"/>
<path d="M474.762 357.442H476.182V344.894H481.041V343.532H469.903V344.894H474.762V357.442Z" fill="#969696"/>
<path d="M484.522 357.442H485.942V352.158H489.892C490.153 352.158 490.52 352.139 490.868 352.081C493.032 351.753 494.259 350.014 494.259 347.85C494.259 345.677 493.042 343.948 490.868 343.61C490.52 343.552 490.163 343.532 489.892 343.532H484.522V357.442ZM485.942 350.806V344.894H489.854C490.086 344.894 490.424 344.914 490.714 344.972C492.143 345.281 492.8 346.556 492.8 347.85C492.8 349.145 492.143 350.42 490.714 350.719C490.424 350.787 490.086 350.806 489.854 350.806H485.942Z" fill="#969696"/>
<path d="M506.758 357.442H508.236L503.445 343.532H501.561L496.77 357.442H498.248L499.417 354.071H505.589L506.758 357.442ZM499.871 352.738L502.488 345.126L505.126 352.738H499.871Z" fill="#969696"/>
<path d="M517.167 357.732C520.393 357.732 522.47 355.945 523.233 353.163L521.784 352.786C521.195 354.979 519.659 356.37 517.167 356.37C513.902 356.37 512.24 353.965 512.259 350.487C512.288 347.01 513.902 344.604 517.167 344.604C519.659 344.604 521.195 345.995 521.784 348.188L523.233 347.811C522.47 345.029 520.393 343.242 517.167 343.242C513.013 343.242 510.762 346.208 510.762 350.487C510.762 354.767 513.013 357.732 517.167 357.732Z" fill="#969696"/>
<path d="M532.928 357.732C536.154 357.732 538.231 355.945 538.994 353.163L537.545 352.786C536.956 354.979 535.42 356.37 532.928 356.37C529.663 356.37 528.001 353.965 528.021 350.487C528.05 347.01 529.663 344.604 532.928 344.604C535.42 344.604 536.956 345.995 537.545 348.188L538.994 347.811C538.231 345.029 536.154 343.242 532.928 343.242C528.774 343.242 526.523 346.208 526.523 350.487C526.523 354.767 528.774 357.732 532.928 357.732Z" fill="#969696"/>
<path d="M551.702 357.442H553.18L548.389 343.532H546.505L541.714 357.442H543.192L544.361 354.071H550.533L551.702 357.442ZM544.815 352.738L547.433 345.126L550.07 352.738H544.815Z" fill="#969696"/>
<path d="M87.8159 62.3806H303.843V64.1369H87.8159V62.3806Z" fill="#E6E6E6"/>
<path d="M574.316 62.3806H790.343V64.1369H574.316V62.3806Z" fill="#E6E6E6"/>
<path d="M87.8159 74.6748H303.843V76.4311H87.8159V74.6748Z" fill="#E6E6E6"/>
<path d="M574.316 74.6748H790.343V76.4311H574.316V74.6748Z" fill="#E6E6E6"/>
<path d="M313.504 76.4312H314.924V69.4762L321.763 76.4312H323.618L316.605 69.2347L323.087 62.5211H321.271L314.924 69.0898V62.5211H313.504V76.4312Z" fill="#969696"/>
<path d="M329.255 76.4312H330.8L337.272 62.5211H335.756L331.563 71.611L327.448 62.5211H325.874L330.819 73.1372L329.255 76.4312Z" fill="#969696"/>
<path d="M338.552 76.4312C341.16 77.0977 341.691 75.1658 342.087 72.6832C342.599 69.4085 342.744 66.5493 342.918 63.8832H348.907V76.4312H350.327V62.5211H341.546C341.392 66.0276 341.189 68.9835 340.706 72.0167C340.262 74.847 339.972 75.301 338.552 75.1658V76.4312Z" fill="#969696"/>
<path d="M354.949 76.4312H360.319C360.59 76.4312 360.947 76.4119 361.305 76.3539C363.469 76.0158 364.686 74.2867 364.686 72.1133C364.686 69.9495 363.469 68.2107 361.305 67.8823C360.947 67.8243 360.59 67.805 360.319 67.805H356.369V62.5211H354.949V76.4312ZM356.369 75.0692V69.1574H360.281C360.513 69.1574 360.851 69.1767 361.15 69.2443C362.57 69.5438 363.227 70.8189 363.227 72.1133C363.227 73.4077 362.57 74.6828 361.15 74.9919C360.851 75.0498 360.513 75.0692 360.281 75.0692H356.369Z" fill="#969696"/>
<path d="M368.091 78.7495H369.511V76.4312H379.451V78.7495H380.862V75.0692H379.867V62.5211L371.289 62.5115C371.125 65.564 371.047 67.7277 370.777 70.2876C370.526 72.6446 370.255 75.0692 368.091 75.0692V78.7495ZM370.806 75.0692C371.704 74.2577 371.936 72.9344 372.158 70.7126C372.4 68.288 372.496 66.2208 372.612 63.8735L378.447 63.8832V75.0692H370.806Z" fill="#969696"/>
<path d="M383.756 76.4312H385.581L391.455 69.5438V76.4312H392.874V69.5438L398.757 76.4312H400.573L394.41 69.2347L400.042 62.5211H398.255L392.874 69.0222V62.5211H391.455V69.0222L386.074 62.5211H384.287L389.919 69.2347L383.756 76.4312Z" fill="#969696"/>
<path d="M414.573 76.4312V62.5211H413.143L405.483 73.9197V62.5211H404.053V76.4312H405.483L413.143 65.023V76.4312H414.573Z" fill="#969696"/>
<path d="M419.211 76.4312H420.631V70.1523H428.32V76.4312H429.73V62.5211H428.32V68.7903H420.631V62.5211H419.211V76.4312Z" fill="#969696"/>
<path d="M440 76.721C443.226 76.721 445.303 74.9339 446.066 72.1519L444.617 71.7752C444.028 73.9679 442.492 75.359 440 75.359C436.735 75.359 435.073 72.9537 435.093 69.4762C435.122 65.9987 436.735 63.5934 440 63.5934C442.492 63.5934 444.028 64.9844 444.617 67.1771L446.066 66.8004C445.303 64.0184 443.226 62.2314 440 62.2314C435.846 62.2314 433.595 65.1969 433.595 69.4762C433.595 73.7554 435.846 76.721 440 76.721Z" fill="#969696"/>
<path d="M450.13 76.4312H451.549V69.4762L458.389 76.4312H460.243L453.23 69.2347L459.712 62.5211H457.896L451.549 69.0898V62.5211H450.13V76.4312Z" fill="#969696"/>
<path d="M474.052 76.4312V62.5211H472.622L464.962 73.9197V62.5211H463.532V76.4312H464.962L472.622 65.023V76.4312H474.052Z" fill="#969696"/>
<path d="M484.061 61.2847C485.442 61.2847 486.553 60.1738 486.553 58.7925H485.374C485.374 59.517 484.795 60.1062 484.061 60.1062C483.336 60.1062 482.747 59.517 482.747 58.7925H481.568C481.568 60.1738 482.679 61.2847 484.061 61.2847ZM478.69 76.4312H480.12L487.78 65.023V76.4312H489.209V62.5211H487.78L480.12 73.9197V62.5211H478.69V76.4312Z" fill="#969696"/>
<path d="M503.347 76.4312H504.767V63.8832H509.626V62.5211H498.488V63.8832H503.347V76.4312Z" fill="#969696"/>
<path d="M513.107 76.4312H514.527V71.1473H518.477C518.738 71.1473 519.105 71.128 519.453 71.07C521.617 70.7416 522.844 69.0028 522.844 66.8391C522.844 64.6656 521.626 62.9365 519.453 62.5984C519.105 62.5405 518.748 62.5211 518.477 62.5211H513.107V76.4312ZM514.527 69.7949V63.8832H518.439C518.671 63.8832 519.009 63.9025 519.298 63.9604C520.728 64.2696 521.385 65.5446 521.385 66.8391C521.385 68.1335 520.728 69.4085 519.298 69.708C519.009 69.7756 518.671 69.7949 518.439 69.7949H514.527Z" fill="#969696"/>
<path d="M535.343 76.4312H536.821L532.03 62.5211H530.146L525.355 76.4312H526.833L528.002 73.0599H534.174L535.343 76.4312ZM528.456 71.7269L531.073 64.115L533.71 71.7269H528.456Z" fill="#969696"/>
<path d="M540.497 76.4312H541.917V69.4762L548.756 76.4312H550.611L543.598 69.2347L550.08 62.5211H548.264L541.917 69.0898V62.5211H540.497V76.4312Z" fill="#969696"/>
<path d="M557.6 76.4312H559.02V63.8832H563.879V62.5211H552.741V63.8832H557.6V76.4312Z" fill="#969696"/>
<defs>
<clipPath id="clip0">
<rect width="850.234" height="449.091" fill="white" transform="translate(0 0.909424)"/>
</clipPath>
</defs>
</svg>
